<svg xmlns="http://www.w3.org/2000/svg" xmlns:xlink="http://www.w3.org/1999/xlink" width="40" zoomAndPan="magnify" viewBox="0 0 30 30.000001" height="40" preserveAspectRatio="xMidYMid meet" version="1.0"><defs><clipPath id="842c30008e"><path d="M 0.484375 0 L 29.515625 0 L 29.515625 29.03125 L 0.484375 29.03125 Z M 0.484375 0 " clip-rule="nonzero"/></clipPath><clipPath id="ba596d1ffc"><path d="M 2 3 L 29.515625 3 L 29.515625 29 L 2 29 Z M 2 3 " clip-rule="nonzero"/></clipPath><clipPath id="f75cb42412"><path d="M 17 15 L 29.515625 15 L 29.515625 29 L 17 29 Z M 17 15 " clip-rule="nonzero"/></clipPath><clipPath id="3054d0fac3"><path d="M 27 18 L 29.515625 18 L 29.515625 25 L 27 25 Z M 27 18 " clip-rule="nonzero"/></clipPath><clipPath id="220547b733"><path d="M 26 18 L 29.515625 18 L 29.515625 25 L 26 25 Z M 26 18 " clip-rule="nonzero"/></clipPath><clipPath id="52a1397022"><path d="M 29 20 L 29.515625 20 L 29.515625 23 L 29 23 Z M 29 20 " clip-rule="nonzero"/></clipPath><clipPath id="c8d2208147"><path d="M 23 8 L 29.515625 8 L 29.515625 15 L 23 15 Z M 23 8 " clip-rule="nonzero"/></clipPath><clipPath id="13a3eee4fe"><path d="M 0.484375 12 L 3 12 L 3 17 L 0.484375 17 Z M 0.484375 12 " clip-rule="nonzero"/></clipPath><clipPath id="b289f3051f"><path d="M 0.484375 12 L 3 12 L 3 18 L 0.484375 18 Z M 0.484375 12 " clip-rule="nonzero"/></clipPath><clipPath id="e5b0af15a3"><path d="M 0.484375 14 L 3 14 L 3 19 L 0.484375 19 Z M 0.484375 14 " clip-rule="nonzero"/></clipPath><clipPath id="e523bef301"><path d="M 0.484375 14 L 19 14 L 19 29 L 0.484375 29 Z M 0.484375 14 " clip-rule="nonzero"/></clipPath><clipPath id="ad24c292ae"><path d="M 20 1 L 29.515625 1 L 29.515625 8 L 20 8 Z M 20 1 " clip-rule="nonzero"/></clipPath></defs><g clip-path="url(#842c30008e)"><path fill="#ffffff" d="M 0.484375 0 L 29.515625 0 L 29.515625 174.195312 L 0.484375 174.195312 Z M 0.484375 0 " fill-opacity="1" fill-rule="nonzero"/><path fill="#ffffff" d="M 0.484375 0 L 29.515625 0 L 29.515625 29.03125 L 0.484375 29.03125 Z M 0.484375 0 " fill-opacity="1" fill-rule="nonzero"/><path fill="#ffffff" d="M 0.484375 0 L 29.515625 0 L 29.515625 29.03125 L 0.484375 29.03125 Z M 0.484375 0 " fill-opacity="1" fill-rule="nonzero"/></g><g clip-path="url(#ba596d1ffc)"><path fill="#e7e8ff" d="M 11.558594 28.996094 L 25.730469 28.996094 C 27.097656 28.996094 28.414062 28.484375 29.429688 27.5625 L 30.8125 26.300781 C 32.535156 24.730469 32.46875 21.980469 30.703125 20.464844 C 28.84375 18.871094 28.914062 15.9375 30.871094 14.46875 C 32.609375 13.167969 32.917969 10.675781 31.550781 8.988281 L 29.027344 5.875 C 27.195312 3.613281 24.25 2.589844 21.421875 3.226562 L 10.371094 5.722656 C 9.960938 5.8125 9.527344 5.671875 9.25 5.355469 C 8.429688 4.410156 6.054688 5.433594 6.019531 6.6875 C 5.960938 8.671875 5.785156 10.621094 5.65625 11.753906 C 5.632812 11.972656 5.578125 12.1875 5.46875 12.378906 C 5.332031 12.621094 5.160156 12.871094 4.953125 13.132812 C 2.679688 15.992188 1.484375 19.621094 2.960938 22.96875 L 3.214844 23.542969 C 4.675781 26.859375 7.945312 28.996094 11.558594 28.996094 Z M 11.558594 28.996094 " fill-opacity="1" fill-rule="nonzero"/></g><path fill="#efcb96" d="M 25 10.3125 C 23.53125 11.355469 24.148438 13.210938 24.425781 13.929688 L 24.304688 15.394531 C 24.429688 15.859375 24.882812 16.78125 25.699219 16.78125 C 26.515625 16.78125 26.890625 15.992188 26.976562 15.597656 L 26.847656 14.484375 C 27.804688 14.136719 27.871094 12.746094 27.804688 11.632812 C 27.730469 10.3125 26.292969 9.394531 25 10.3125 Z M 25 10.3125 " fill-opacity="1" fill-rule="nonzero"/><g clip-path="url(#f75cb42412)"><path fill="#f4ad5e" d="M 25.625 16.253906 C 26.582031 16.253906 27.03125 15.664062 27.136719 15.367188 C 28.964844 15.367188 30.476562 16.636719 31.171875 17.523438 C 31.863281 18.410156 34.449219 23.101562 33.816406 25.003906 C 33.3125 26.523438 32.09375 26.757812 31.421875 26.652344 L 31.53125 28.632812 C 31.539062 28.792969 31.410156 28.933594 31.246094 28.933594 L 22.03125 28.933594 C 21.0625 28.996094 18.953125 29.019531 18.25 28.617188 C 17.367188 28.109375 16.546875 25.507812 18.25 20.375 C 19.609375 16.269531 22.808594 15.324219 24.238281 15.367188 C 24.300781 15.664062 24.664062 16.253906 25.625 16.253906 Z M 25.625 16.253906 " fill-opacity="1" fill-rule="nonzero"/></g><path fill="#000000" d="M 21.03125 28.9375 C 19.511719 27.074219 17.90625 26.410156 17.292969 26.308594 C 17.292969 26.90625 17.589844 28.039062 18.125 28.578125 C 18.550781 29.007812 20.242188 28.996094 21.03125 28.9375 Z M 21.03125 28.9375 " fill-opacity="1" fill-rule="nonzero"/><path fill="#000000" d="M 25.496094 22.085938 C 25.054688 22.277344 21.777344 23.820312 20.265625 24.558594 C 20.453125 24.242188 21.210938 23.734375 21.398438 23.542969 C 21.589844 23.355469 22.28125 21.136719 22.28125 21.453125 C 22.28125 21.769531 21.902344 23.226562 22.09375 23.226562 C 22.28125 23.226562 24.929688 22.085938 25.496094 22.085938 Z M 25.496094 22.085938 " fill-opacity="1" fill-rule="nonzero"/><path fill="#000000" d="M 26.820312 23.925781 C 24.148438 27.527344 21.96875 28.804688 21.210938 28.996094 L 22.535156 28.996094 C 24.804688 27.222656 26.335938 24.875 26.820312 23.925781 Z M 26.820312 23.925781 " fill-opacity="1" fill-rule="nonzero"/><g clip-path="url(#3054d0fac3)"><path fill="#ffffff" d="M 27.570312 19.25 L 27.085938 23.988281 C 27.078125 24.050781 27.132812 24.105469 27.195312 24.09375 L 29.464844 23.683594 C 29.503906 23.675781 29.535156 23.644531 29.542969 23.605469 L 30.207031 19.097656 C 30.214844 19.039062 30.167969 18.984375 30.105469 18.988281 L 27.65625 19.164062 C 27.609375 19.167969 27.574219 19.203125 27.570312 19.25 Z M 27.570312 19.25 " fill-opacity="1" fill-rule="nonzero"/></g><g clip-path="url(#220547b733)"><path fill="#000000" d="M 30.101562 18.894531 C 30.222656 18.886719 30.320312 18.992188 30.300781 19.113281 L 29.632812 23.617188 C 29.621094 23.699219 29.5625 23.761719 29.480469 23.777344 L 27.214844 24.1875 C 27.089844 24.210938 26.980469 24.105469 26.992188 23.980469 L 27.476562 19.242188 C 27.484375 19.148438 27.558594 19.078125 27.648438 19.070312 Z M 30.113281 19.085938 L 27.664062 19.261719 L 27.179688 24 L 29.449219 23.589844 Z M 30.113281 19.085938 " fill-opacity="1" fill-rule="evenodd"/></g><g clip-path="url(#52a1397022)"><path fill="#efcb96" d="M 30.855469 21.578125 L 30.097656 22.722656 C 29.089844 22.785156 28.902344 22.214844 29.089844 21.328125 C 29.242188 20.617188 29.804688 20.609375 30.035156 20.691406 L 30.160156 20.183594 C 30.855469 20.753906 30.855469 21.304688 30.855469 21.578125 Z M 30.855469 21.578125 " fill-opacity="1" fill-rule="nonzero"/></g><g clip-path="url(#c8d2208147)"><path fill="#000000" d="M 24.472656 13.566406 L 24.34375 14.828125 C 24.300781 14.734375 24.203125 14.460938 24.152344 14.125 C 24.089844 13.707031 23.074219 12.09375 23.390625 10.902344 C 23.644531 9.949219 24.34375 9.992188 24.660156 10.132812 C 24.851562 9.78125 25.996094 8.589844 27.648438 8.730469 C 29.300781 8.871094 29.492188 11.253906 28.15625 11.601562 C 27.089844 11.882812 25.890625 11.71875 25.425781 11.601562 C 25.382812 11.695312 25.257812 12.007812 25.105469 12.515625 C 24.914062 13.144531 24.914062 13.285156 24.851562 12.863281 C 24.789062 12.445312 24.535156 11.671875 24.21875 12.445312 C 23.960938 13.0625 24.28125 13.449219 24.472656 13.566406 Z M 24.472656 13.566406 " fill-opacity="1" fill-rule="nonzero"/></g><path fill="#000000" d="M 25.394531 14.460938 C 25.832031 14.71875 26.582031 14.585938 26.867188 14.480469 L 26.914062 14.90625 C 26.28125 15.0625 25.617188 14.675781 25.394531 14.460938 Z M 25.394531 14.460938 " fill-opacity="1" fill-rule="nonzero"/><path fill="#efcb96" d="M 26.441406 21.453125 C 26.292969 21.859375 26 22.128906 25.875 22.214844 L 26.695312 23.480469 C 26.945312 23.226562 27.261719 23.226562 27.957031 22.910156 C 28.648438 22.59375 28.835938 21.453125 28.648438 20.820312 C 28.496094 20.3125 27.621094 20.691406 27.261719 20.945312 L 27.324219 20.25 C 26.882812 20.4375 26.632812 20.945312 26.441406 21.453125 Z M 26.441406 21.453125 " fill-opacity="1" fill-rule="nonzero"/><g clip-path="url(#13a3eee4fe)"><path fill="#ffffff" d="M 0.0859375 13.019531 L 0.617188 16.84375 C 0.625 16.894531 0.671875 16.929688 0.726562 16.917969 L 2.769531 16.5 C 2.8125 16.488281 2.847656 16.445312 2.839844 16.398438 L 2.359375 12.574219 C 2.351562 12.523438 2.300781 12.488281 2.25 12.496094 L 0.160156 12.917969 C 0.113281 12.925781 0.078125 12.972656 0.0859375 13.019531 Z M 0.0859375 13.019531 " fill-opacity="1" fill-rule="nonzero"/></g><g clip-path="url(#b289f3051f)"><path fill="#000000" d="M 2.230469 12.40625 C 2.335938 12.386719 2.433594 12.457031 2.449219 12.5625 L 2.929688 16.386719 C 2.941406 16.480469 2.878906 16.570312 2.785156 16.589844 L 0.742188 17.007812 C 0.640625 17.03125 0.539062 16.957031 0.527344 16.855469 L -0.00390625 13.03125 C -0.015625 12.9375 0.046875 12.847656 0.140625 12.828125 Z M 2.269531 12.585938 L 0.175781 13.007812 L 0.707031 16.828125 L 2.75 16.410156 Z M 2.269531 12.585938 " fill-opacity="1" fill-rule="evenodd"/></g><g clip-path="url(#e5b0af15a3)"><path fill="#efcb96" d="M -0.128906 15.164062 C -0.378906 15.824219 -0.378906 16.632812 -0.128906 17.089844 C 0.046875 17.40625 0.238281 17.847656 0.335938 18.105469 L 2.246094 17.597656 L 1.992188 16.683594 L 0.628906 16.988281 L 0.527344 16.378906 C 1.183594 16.179688 1.589844 16.078125 1.589844 15.164062 C 1.589844 14.378906 1.132812 14.300781 0.78125 14.351562 C 0.238281 14.433594 0.0273438 14.757812 -0.128906 15.164062 Z M -0.128906 15.164062 " fill-opacity="1" fill-rule="nonzero"/></g><path fill="#efcb96" d="M 9.867188 14.050781 L 9.5625 15.164062 C 9.410156 15.722656 9.867188 16.378906 11.128906 16.378906 C 12.136719 16.378906 12.289062 15.433594 12.238281 14.960938 L 11.984375 13.695312 C 12.238281 13.441406 12.4375 13.289062 12.4375 12.070312 C 12.4375 10.550781 11.632812 9.992188 10.671875 9.992188 C 9.714844 9.992188 8.90625 10.804688 8.90625 12.273438 C 8.90625 13.542969 9.578125 13.949219 9.867188 14.050781 Z M 9.867188 14.050781 " fill-opacity="1" fill-rule="nonzero"/><g clip-path="url(#e523bef301)"><path fill="#f4ad5e" d="M 10.773438 15.824219 C 11.703125 15.824219 12.171875 15.214844 12.289062 14.910156 C 13.179688 14.910156 15.195312 15.183594 16.125 16.28125 C 17.285156 17.648438 18.699219 24.441406 18.898438 25.605469 C 19.0625 26.539062 18.832031 28.226562 18.699219 28.949219 C 14.492188 28.984375 5.96875 29.03125 5.523438 28.949219 C 5.082031 28.871094 5.003906 27.699219 5.019531 27.125 C 4.332031 27.582031 2.730469 28.222656 1.839844 27.125 C 0.730469 25.757812 -0.078125 19.066406 0.0234375 18.558594 C 0.125 18.054688 2.144531 17.242188 2.496094 17.394531 C 2.78125 17.515625 3.523438 18.898438 3.859375 19.574219 C 5.597656 15.679688 8.351562 14.84375 9.511719 14.910156 C 9.546875 15.214844 9.84375 15.824219 10.773438 15.824219 Z M 10.773438 15.824219 " fill-opacity="1" fill-rule="nonzero"/></g><path fill="#000000" d="M 7.394531 12.984375 C 6.625 13.796875 6.667969 15.214844 6.785156 15.824219 C 8.082031 15.042969 9.082031 14.90625 9.511719 14.921875 C 9.511719 15.015625 9.570312 15.191406 9.601562 15.195312 L 9.867188 14.050781 C 9.328125 13.78125 8.957031 13.390625 8.90625 12.222656 C 8.917969 11.359375 9.328125 10.652344 9.5625 10.449219 C 10.371094 10.398438 10.773438 11.414062 11.027344 11.820312 C 11.226562 12.144531 11.378906 12.089844 11.429688 12.023438 C 11.683594 11.414062 12.136719 11.363281 12.238281 12.023438 C 12.320312 12.546875 11.933594 12.816406 11.734375 12.882812 L 12.238281 15.015625 C 12.253906 15.015625 12.285156 14.9375 12.285156 14.921875 C 13.28125 14.894531 14.414062 15.234375 14.863281 15.417969 C 15.011719 13.796875 13.75 13.238281 13.347656 12.222656 C 12.945312 11.210938 13.5 10.703125 13.09375 10.042969 C 12.796875 9.554688 12.238281 9.488281 11.882812 9.386719 C 11.53125 9.285156 11.328125 8.878906 10.925781 8.675781 C 10.21875 8.421875 9.546875 9.046875 9.359375 9.488281 C 9.242188 9.46875 8.90625 9.519531 8.503906 9.84375 C 7.34375 10.652344 8.351562 11.972656 7.394531 12.984375 Z M 7.394531 12.984375 " fill-opacity="1" fill-rule="nonzero"/><path fill="#000000" d="M 5.929688 20.6875 L 5.019531 27.175781 C 4.738281 27.339844 4.332031 27.449219 4.164062 27.480469 C 4.605469 26.710938 5.523438 22.632812 5.929688 20.6875 Z M 5.929688 20.6875 " fill-opacity="1" fill-rule="nonzero"/><path fill="#000000" d="M 4.917969 27.175781 C 3.34375 26.203125 1.910156 26.195312 1.386719 26.316406 C 1.488281 26.738281 1.921875 27.625 2.851562 27.785156 C 3.777344 27.949219 4.617188 27.449219 4.917969 27.175781 Z M 4.917969 27.175781 " fill-opacity="1" fill-rule="nonzero"/><path fill="#000000" d="M 4.464844 21.144531 L 3.859375 19.523438 L 4.214844 18.914062 Z M 4.464844 21.144531 " fill-opacity="1" fill-rule="nonzero"/><path fill="#000000" d="M 15.214844 26.265625 C 15.296875 27.277344 15.179688 28.476562 15.113281 28.949219 L 15.71875 28.949219 L 15.71875 27.632812 C 15.71875 26.984375 15.046875 22.765625 14.710938 20.738281 C 14.84375 22.160156 15.132812 25.25 15.214844 26.265625 Z M 15.214844 26.265625 " fill-opacity="1" fill-rule="nonzero"/><path fill="#000000" d="M 18.796875 28.496094 C 18.3125 27.359375 18.496094 25.386719 18.699219 24.644531 C 19.140625 26.546875 18.949219 27.628906 18.800781 28.492188 Z M 18.796875 28.496094 " fill-opacity="1" fill-rule="nonzero"/><path fill="#000000" d="M 10.925781 14 C 10.320312 14.160156 9.964844 14.101562 9.867188 14.050781 L 9.714844 14.605469 C 10.359375 14.6875 10.789062 14.234375 10.925781 14 Z M 10.925781 14 " fill-opacity="1" fill-rule="nonzero"/><path fill="#ffffff" d="M 10.875 0.101562 L 3.421875 0.101562 C 3.253906 0.101562 3.117188 0.238281 3.117188 0.40625 L 3.117188 4.3125 C 3.117188 4.480469 3.253906 4.617188 3.421875 4.617188 L 9.070312 4.617188 C 9.128906 4.617188 9.1875 4.636719 9.238281 4.667969 L 10.703125 5.660156 C 10.90625 5.796875 11.175781 5.652344 11.175781 5.410156 L 11.175781 0.40625 C 11.175781 0.238281 11.042969 0.101562 10.875 0.101562 Z M 10.875 0.101562 " fill-opacity="1" fill-rule="nonzero"/><path fill="#000000" d="M 3.015625 0.40625 C 3.015625 0.179688 3.195312 0 3.421875 0 L 10.875 0 C 11.097656 0 11.277344 0.179688 11.277344 0.40625 L 11.277344 5.410156 C 11.277344 5.734375 10.917969 5.925781 10.648438 5.746094 L 9.183594 4.753906 C 9.148438 4.730469 9.109375 4.71875 9.070312 4.71875 L 3.421875 4.71875 C 3.195312 4.71875 3.015625 4.539062 3.015625 4.3125 Z M 3.421875 0.203125 C 3.308594 0.203125 3.21875 0.292969 3.21875 0.40625 L 3.21875 4.3125 C 3.21875 4.425781 3.308594 4.515625 3.421875 4.515625 L 9.070312 4.515625 C 9.148438 4.515625 9.230469 4.539062 9.296875 4.585938 L 10.761719 5.578125 C 10.894531 5.667969 11.074219 5.570312 11.074219 5.410156 L 11.074219 0.40625 C 11.074219 0.292969 10.984375 0.203125 10.875 0.203125 Z M 3.421875 0.203125 " fill-opacity="1" fill-rule="evenodd"/><path fill="#f4ad5e" d="M 5.367188 2.3125 C 5.367188 2.546875 5.175781 2.734375 4.945312 2.734375 C 4.710938 2.734375 4.523438 2.546875 4.523438 2.3125 C 4.523438 2.078125 4.710938 1.890625 4.945312 1.890625 C 5.175781 1.890625 5.367188 2.078125 5.367188 2.3125 Z M 5.367188 2.3125 " fill-opacity="1" fill-rule="nonzero"/><path fill="#f4ad5e" d="M 7.617188 2.3125 C 7.617188 2.546875 7.425781 2.734375 7.195312 2.734375 C 6.960938 2.734375 6.773438 2.546875 6.773438 2.3125 C 6.773438 2.078125 6.960938 1.890625 7.195312 1.890625 C 7.425781 1.890625 7.617188 2.078125 7.617188 2.3125 Z M 7.617188 2.3125 " fill-opacity="1" fill-rule="nonzero"/><path fill="#f4ad5e" d="M 9.863281 2.3125 C 9.863281 2.546875 9.675781 2.734375 9.441406 2.734375 C 9.210938 2.734375 9.023438 2.546875 9.023438 2.3125 C 9.023438 2.078125 9.210938 1.890625 9.441406 1.890625 C 9.675781 1.890625 9.863281 2.078125 9.863281 2.3125 Z M 9.863281 2.3125 " fill-opacity="1" fill-rule="nonzero"/><path fill="#ffffff" d="M 21.195312 1.925781 L 28.648438 1.925781 C 28.816406 1.925781 28.953125 2.0625 28.953125 2.230469 L 28.953125 6.136719 C 28.953125 6.304688 28.816406 6.441406 28.648438 6.441406 L 23 6.441406 C 22.9375 6.441406 22.878906 6.460938 22.828125 6.496094 L 21.363281 7.488281 C 21.164062 7.621094 20.890625 7.476562 20.890625 7.234375 L 20.890625 2.230469 C 20.890625 2.0625 21.027344 1.925781 21.195312 1.925781 Z M 21.195312 1.925781 " fill-opacity="1" fill-rule="nonzero"/><g clip-path="url(#ad24c292ae)"><path fill="#000000" d="M 29.050781 2.230469 C 29.050781 2.007812 28.871094 1.824219 28.648438 1.824219 L 21.195312 1.824219 C 20.972656 1.824219 20.789062 2.007812 20.789062 2.230469 L 20.789062 7.234375 C 20.789062 7.558594 21.152344 7.753906 21.421875 7.570312 L 22.886719 6.578125 C 22.917969 6.554688 22.957031 6.542969 23 6.542969 L 28.648438 6.542969 C 28.871094 6.542969 29.050781 6.363281 29.050781 6.136719 Z M 28.648438 2.027344 C 28.761719 2.027344 28.851562 2.117188 28.851562 2.230469 L 28.851562 6.136719 C 28.851562 6.25 28.761719 6.339844 28.648438 6.339844 L 23 6.339844 C 22.917969 6.339844 22.839844 6.363281 22.773438 6.410156 L 21.308594 7.402344 C 21.171875 7.492188 20.992188 7.398438 20.992188 7.234375 L 20.992188 2.230469 C 20.992188 2.117188 21.082031 2.027344 21.195312 2.027344 Z M 28.648438 2.027344 " fill-opacity="1" fill-rule="evenodd"/></g><path fill="#f4ad5e" d="M 27.457031 3.597656 L 22.457031 3.597656 L 22.457031 3.394531 L 27.457031 3.394531 Z M 27.457031 5.019531 L 22.457031 5.019531 L 22.457031 4.816406 L 27.457031 4.816406 Z M 27.457031 5.019531 " fill-opacity="1" fill-rule="evenodd"/><path fill="#f4ad5e" d="M 3.671875 9.855469 L 3.785156 10.335938 C 3.789062 10.367188 3.78125 10.398438 3.757812 10.417969 L 3.464844 10.65625 C 3.402344 10.710938 3.453125 10.8125 3.53125 10.796875 L 3.914062 10.738281 C 3.941406 10.730469 3.96875 10.742188 3.988281 10.765625 L 4.265625 11.089844 C 4.316406 11.148438 4.414062 11.109375 4.40625 11.027344 L 4.347656 10.589844 C 4.34375 10.566406 4.355469 10.539062 4.371094 10.523438 L 4.628906 10.285156 C 4.6875 10.230469 4.640625 10.132812 4.5625 10.144531 L 4.222656 10.199219 C 4.195312 10.203125 4.167969 10.191406 4.148438 10.171875 L 3.8125 9.785156 C 3.757812 9.722656 3.65625 9.773438 3.671875 9.855469 Z M 3.671875 9.855469 " fill-opacity="1" fill-rule="nonzero"/><path fill="#f4ad5e" d="M 16.367188 6.34375 L 16.214844 6.839844 C 16.207031 6.871094 16.179688 6.894531 16.148438 6.898438 L 15.757812 6.964844 C 15.671875 6.980469 15.664062 7.097656 15.742188 7.128906 L 16.125 7.273438 C 16.152344 7.285156 16.171875 7.308594 16.179688 7.339844 L 16.261719 7.78125 C 16.277344 7.863281 16.390625 7.875 16.421875 7.796875 L 16.597656 7.367188 C 16.609375 7.34375 16.628906 7.324219 16.65625 7.320312 L 17.015625 7.238281 C 17.097656 7.21875 17.105469 7.105469 17.027344 7.074219 L 16.6875 6.945312 C 16.660156 6.933594 16.640625 6.910156 16.636719 6.882812 L 16.53125 6.351562 C 16.511719 6.265625 16.394531 6.257812 16.367188 6.34375 Z M 16.367188 6.34375 " fill-opacity="1" fill-rule="nonzero"/></svg>