<svg xmlns="http://www.w3.org/2000/svg" xmlns:xlink="http://www.w3.org/1999/xlink" width="40" zoomAndPan="magnify" viewBox="0 0 30 30.000001" height="40" preserveAspectRatio="xMidYMid meet" version="1.0"><defs><clipPath id="c9f9640618"><path d="M 0.484375 0 L 29.515625 0 L 29.515625 29.03125 L 0.484375 29.03125 Z M 0.484375 0 " clip-rule="nonzero"/></clipPath><clipPath id="d9057db85e"><path d="M 0.484375 3 L 29.515625 3 L 29.515625 29.03125 L 0.484375 29.03125 Z M 0.484375 3 " clip-rule="nonzero"/></clipPath><clipPath id="de19cbc4cb"><path d="M 0.484375 21 L 29.515625 21 L 29.515625 23 L 0.484375 23 Z M 0.484375 21 " clip-rule="nonzero"/></clipPath><clipPath id="0b3d465c94"><path d="M 19 4 L 29.515625 4 L 29.515625 15 L 19 15 Z M 19 4 " clip-rule="nonzero"/></clipPath><clipPath id="e653592d11"><path d="M 21 12 L 29.515625 12 L 29.515625 13 L 21 13 Z M 21 12 " clip-rule="nonzero"/></clipPath><clipPath id="ed723edcfc"><path d="M 26.339844 11.441406 L 28.703125 11.441406 L 28.703125 11.742188 L 26.339844 11.742188 Z M 26.339844 11.441406 " clip-rule="nonzero"/></clipPath><clipPath id="2f8e8345d9"><path d="M 26.320312 8.074219 L 28.820312 8.074219 L 28.820312 11.742188 L 26.320312 11.742188 Z M 26.320312 8.074219 " clip-rule="nonzero"/></clipPath><clipPath id="2abd8db990"><path d="M 27 10 L 29.515625 10 L 29.515625 12 L 27 12 Z M 27 10 " clip-rule="nonzero"/></clipPath><clipPath id="93ce8102b8"><path d="M 28 10 L 29.515625 10 L 29.515625 12 L 28 12 Z M 28 10 " clip-rule="nonzero"/></clipPath><clipPath id="594c68db25"><path d="M 28 8 L 29.515625 8 L 29.515625 12 L 28 12 Z M 28 8 " clip-rule="nonzero"/></clipPath><clipPath id="e018d8d759"><path d="M 21 15 L 29.515625 15 L 29.515625 22 L 21 22 Z M 21 15 " clip-rule="nonzero"/></clipPath></defs><g clip-path="url(#c9f9640618)"><path fill="#ffffff" d="M 0.484375 0 L 29.515625 0 L 29.515625 29.03125 L 0.484375 29.03125 Z M 0.484375 0 " fill-opacity="1" fill-rule="nonzero"/><path fill="#ffffff" d="M 0.484375 0 L 29.515625 0 L 29.515625 29.03125 L 0.484375 29.03125 Z M 0.484375 0 " fill-opacity="1" fill-rule="nonzero"/></g><g clip-path="url(#d9057db85e)"><path fill="#f6e3d3" d="M 15.4375 28.777344 C 14.292969 28.3125 14.480469 27.925781 11.640625 26.613281 C 9.121094 25.445312 3.015625 27.589844 0.765625 19.722656 C -2.449219 8.484375 8.988281 0 21.902344 4.414062 C 24.539062 5.3125 32.375 10.472656 30.980469 19.316406 C 30.257812 23.882812 26.859375 27.734375 22.378906 28.890625 C 20.339844 29.417969 17.828125 29.757812 15.4375 28.777344 " fill-opacity="1" fill-rule="nonzero"/></g><path fill="#ffffff" d="M 16.292969 21.5 L 10.859375 21.5 L 10.859375 11.308594 L 16.292969 11.308594 L 16.292969 21.5 " fill-opacity="1" fill-rule="nonzero"/><path fill="#ffffff" d="M 16.292969 10.878906 L 10.859375 10.882812 L 10.855469 0.691406 L 16.289062 0.691406 L 16.292969 10.878906 " fill-opacity="1" fill-rule="nonzero"/><path fill="#ffffff" d="M 22.160156 21.496094 L 16.726562 21.5 L 16.722656 11.308594 L 22.15625 11.308594 L 22.160156 21.496094 " fill-opacity="1" fill-rule="nonzero"/><path fill="#ffffff" d="M 22.15625 10.878906 L 16.722656 10.878906 L 16.722656 0.691406 L 22.15625 0.6875 L 22.15625 10.878906 " fill-opacity="1" fill-rule="nonzero"/><path fill="#ffffff" d="M 28.023438 21.496094 L 22.589844 21.496094 L 22.589844 11.308594 L 28.023438 11.304688 L 28.023438 21.496094 " fill-opacity="1" fill-rule="nonzero"/><path fill="#ffffff" d="M 28.023438 10.878906 L 22.589844 10.878906 L 22.585938 0.6875 L 28.023438 0.6875 L 28.023438 10.878906 " fill-opacity="1" fill-rule="nonzero"/><path fill="#a30010" d="M 19.277344 21.535156 L 22.222656 21.535156 C 22.21875 21.515625 22.214844 21.496094 22.210938 21.480469 C 22.109375 20.957031 21.867188 20.761719 21.753906 20.683594 C 21.28125 20.351562 20.640625 20.558594 20.472656 20.617188 C 19.875 20.808594 19.484375 21.242188 19.277344 21.535156 " fill-opacity="1" fill-rule="nonzero"/><path fill="#a30010" d="M 9.640625 21.535156 L 18.917969 21.535156 C 19.359375 20.871094 19.824219 20.207031 20.332031 19.203125 C 20.476562 18.921875 20.625 18.511719 20.539062 18.023438 C 20.464844 17.582031 20.214844 17.273438 20.082031 17.15625 C 19.289062 16.476562 17.640625 16.078125 15.886719 15.933594 C 14.539062 15.820312 13.785156 15.839844 12.671875 15.933594 C 10.917969 16.078125 9.269531 16.476562 8.476562 17.160156 C 8.34375 17.273438 8.09375 17.582031 8.019531 18.023438 C 7.933594 18.511719 8.082031 18.925781 8.226562 19.207031 C 8.734375 20.207031 9.203125 20.871094 9.640625 21.535156 " fill-opacity="1" fill-rule="nonzero"/><path fill="#a30010" d="M 9.285156 21.535156 C 9.074219 21.242188 8.683594 20.808594 8.089844 20.617188 C 7.921875 20.5625 7.277344 20.351562 6.804688 20.6875 C 6.691406 20.765625 6.449219 20.960938 6.347656 21.480469 C 6.34375 21.5 6.339844 21.515625 6.339844 21.535156 L 9.285156 21.535156 " fill-opacity="1" fill-rule="nonzero"/><path stroke-linecap="butt" transform="matrix(0.00193914, 0, 0, -0.00192459, -3.796248, 36.326707)" fill="none" stroke-linejoin="miter" d="M 9483.571585 10965.458418 C 9560.119592 10926.895081 9674.941602 10878.183497 9797.821297 10849.768406 C 9896.527938 10825.412614 9985.162472 10817.294017 10057.681637 10815.264368 " stroke="#000000" stroke-width="10" stroke-opacity="1" stroke-miterlimit="10"/><path fill="#f79556" d="M 13.464844 14.074219 C 13.4375 14.085938 13.359375 14.113281 13.277344 14.089844 C 13.1875 14.0625 13.140625 13.992188 13.078125 13.902344 C 13.023438 13.824219 13.015625 13.792969 12.945312 13.652344 C 12.835938 13.4375 12.8125 13.441406 12.785156 13.351562 C 12.746094 13.214844 12.761719 13.101562 12.773438 13.019531 C 12.785156 12.921875 12.835938 12.695312 13.011719 12.53125 C 13.089844 12.460938 13.132812 12.453125 13.15625 12.453125 C 13.265625 12.453125 13.304688 12.472656 13.4375 12.574219 C 13.546875 12.65625 13.550781 12.699219 13.582031 12.730469 C 13.609375 12.757812 13.761719 12.910156 13.820312 13.125 C 13.933594 13.515625 13.71875 13.980469 13.464844 14.074219 " fill-opacity="1" fill-rule="nonzero"/><path fill="#ec7d40" d="M 17.535156 13.722656 C 17.59375 13.75 17.636719 13.832031 17.644531 13.863281 C 17.691406 14.011719 17.652344 14.207031 17.515625 14.390625 C 17.457031 14.46875 17.183594 14.847656 17.097656 14.921875 C 17.039062 14.96875 16.953125 15.019531 16.832031 14.96875 C 16.660156 14.898438 16.554688 14.535156 16.660156 14.246094 C 16.765625 13.957031 17.074219 13.484375 17.535156 13.722656 " fill-opacity="1" fill-rule="nonzero"/><path fill="#fccc44" d="M 11.605469 22.105469 C 11.160156 21.324219 11.296875 20.578125 11.285156 19.613281 C 11.273438 18.632812 11.273438 18.863281 11.285156 17.6875 C 11.292969 16.890625 11.035156 16.015625 11.40625 15.355469 C 11.648438 14.917969 12.03125 15.042969 13.089844 14.960938 C 13.558594 14.925781 14.402344 14.582031 15.109375 14.71875 C 16.046875 14.902344 15.929688 15.273438 16.832031 15.558594 C 17.058594 15.628906 17.265625 15.632812 17.476562 15.800781 C 17.859375 16.117188 17.714844 16.511719 17.703125 16.644531 C 17.644531 17.339844 17.164062 18.296875 17.023438 18.953125 C 16.839844 19.828125 17.007812 19.707031 16.785156 21.050781 C 16.59375 22.207031 16.238281 22.265625 16.238281 22.265625 L 12.519531 22.265625 C 12.519531 22.265625 11.71875 22.308594 11.605469 22.105469 " fill-opacity="1" fill-rule="nonzero"/><path fill="#ec7d40" d="M 11.277344 19.808594 C 11.324219 19.726562 12.167969 19.886719 12.378906 19.925781 C 12.460938 19.941406 12.53125 19.957031 12.578125 20.019531 C 12.613281 20.0625 12.617188 20.113281 12.617188 20.175781 C 12.628906 20.367188 12.539062 20.503906 12.511719 20.546875 C 12.472656 20.605469 12.453125 20.632812 12.417969 20.652344 C 12.332031 20.699219 12.226562 20.640625 11.914062 20.453125 C 11.558594 20.238281 11.441406 20.160156 11.34375 20.003906 C 11.296875 19.929688 11.25 19.855469 11.277344 19.808594 " fill-opacity="1" fill-rule="nonzero"/><path fill="#ec7d40" d="M 13.785156 14.628906 C 13.585938 14.820312 13.496094 15.105469 13.46875 15.195312 C 13.445312 15.28125 13.390625 15.476562 13.40625 15.734375 C 13.414062 15.878906 13.433594 16.15625 13.621094 16.4375 C 13.65625 16.492188 13.828125 16.742188 14.164062 16.902344 C 14.476562 17.050781 14.753906 17.035156 14.9375 17.027344 C 15.109375 17.019531 15.515625 16.875 15.683594 16.589844 C 15.738281 16.492188 15.90625 16.242188 15.859375 15.785156 C 15.816406 15.351562 15.710938 14.953125 15.390625 14.667969 C 14.949219 14.277344 14.167969 14.269531 13.785156 14.628906 " fill-opacity="1" fill-rule="nonzero"/><path fill="#ec7d40" d="M 8.648438 19.828125 C 8.707031 19.703125 8.855469 19.390625 9.171875 19.304688 C 9.4375 19.230469 9.683594 19.351562 9.828125 19.421875 C 10.0625 19.535156 10.027344 19.609375 10.292969 19.746094 C 10.570312 19.886719 10.835938 19.921875 10.886719 19.929688 C 11.160156 19.964844 11.195312 19.902344 11.3125 19.964844 C 11.550781 20.085938 11.609375 20.445312 11.597656 20.664062 C 11.59375 20.738281 11.570312 21.101562 11.304688 21.269531 C 11.242188 21.308594 11.160156 21.347656 10.828125 21.34375 C 10.578125 21.34375 10.308594 21.320312 9.757812 21.21875 C 9.308594 21.132812 9.207031 21.097656 9.128906 21.0625 C 8.917969 20.96875 8.71875 20.878906 8.605469 20.675781 C 8.410156 20.328125 8.601562 19.925781 8.648438 19.828125 " fill-opacity="1" fill-rule="nonzero"/><path fill="#ec7d40" d="M 12.242188 15.589844 C 12.167969 15.4375 12.035156 15.167969 11.804688 15.128906 C 11.597656 15.097656 11.433594 15.242188 11.3125 15.316406 C 10.714844 15.671875 10.128906 16.816406 10.0625 16.9375 C 9.703125 17.605469 9.511719 18.003906 9.144531 18.714844 C 9.066406 18.871094 8.855469 19.179688 8.667969 19.625 C 8.429688 20.191406 8.605469 20.402344 8.667969 20.523438 C 8.699219 20.585938 8.785156 20.8125 8.960938 20.824219 C 9.828125 20.890625 9.785156 20.429688 10.714844 19.363281 C 11.230469 18.769531 12.003906 17.871094 12.226562 17.1875 C 12.324219 16.894531 12.539062 16.222656 12.242188 15.589844 " fill-opacity="1" fill-rule="nonzero"/><path fill="#ec7d40" d="M 16.851562 18.492188 C 16.738281 18.25 16.21875 17.320312 16.929688 16.082031 C 17.089844 15.800781 17.261719 15.769531 17.304688 15.765625 C 17.488281 15.75 17.765625 16.15625 17.996094 16.625 C 18.730469 18.105469 18.703125 18.300781 19.035156 18.890625 C 19.496094 19.71875 19.59375 19.703125 19.515625 19.96875 C 19.359375 20.488281 18.683594 20.570312 18.539062 20.53125 C 18.398438 20.496094 18.09375 20.449219 18 20.15625 C 17.863281 19.722656 17.613281 19.425781 17.378906 19.140625 C 16.871094 18.523438 16.890625 18.578125 16.851562 18.492188 " fill-opacity="1" fill-rule="nonzero"/><path fill="#f79556" d="M 13.449219 13.101562 C 13.417969 13.300781 13.367188 13.644531 13.398438 14.089844 C 13.421875 14.453125 13.441406 14.761719 13.609375 15.117188 C 13.777344 15.46875 13.867188 15.433594 14.3125 16.027344 C 14.351562 16.078125 14.429688 16.199219 14.59375 16.289062 C 14.65625 16.328125 14.8125 16.375 14.964844 16.355469 C 15.136719 16.332031 15.167969 16.296875 15.457031 16.183594 C 15.617188 16.121094 15.585938 16.128906 15.773438 16.078125 C 16.425781 15.90625 16.679688 15.449219 16.929688 15 C 17.140625 14.617188 17.273438 14.316406 17.300781 14.246094 C 17.484375 13.820312 17.460938 13.78125 17.648438 13.335938 C 17.855469 12.851562 18.074219 12.402344 18.074219 11.753906 C 18.074219 11.53125 17.980469 10.984375 17.554688 10.566406 C 17.089844 10.109375 16.472656 10.082031 16.082031 10.066406 C 15.75 10.054688 15.054688 10.027344 14.472656 10.449219 C 13.828125 10.917969 13.703125 11.550781 13.449219 13.101562 " fill-opacity="1" fill-rule="nonzero"/><path fill="#512618" d="M 17.378906 12.097656 C 17.382812 12.058594 17.332031 12.035156 17.300781 12.0625 C 17.21875 12.125 17.074219 12.191406 16.625 12.269531 C 16.4375 12.300781 16.34375 12.359375 15.695312 12.230469 C 14.292969 11.945312 13.957031 12.710938 13.542969 12.691406 C 13.398438 12.683594 13.402344 12.246094 13.464844 11.953125 C 13.535156 11.601562 13.515625 11.417969 13.636719 11.121094 C 13.730469 10.886719 13.988281 10.449219 14.417969 10.132812 C 14.890625 9.789062 15.359375 9.785156 15.867188 9.777344 C 16.238281 9.773438 16.65625 9.824219 16.878906 9.976562 C 17.078125 10.109375 17.191406 10.230469 17.289062 10.277344 C 17.523438 10.386719 17.492188 10.308594 17.660156 10.382812 C 17.960938 10.515625 18.050781 10.957031 18.152344 11.320312 C 18.273438 11.742188 18.21875 12.53125 18.007812 12.902344 C 17.867188 13.144531 17.53125 13.644531 17.554688 13.5625 C 17.695312 13.015625 17.308594 12.648438 17.378906 12.097656 " fill-opacity="1" fill-rule="nonzero"/><path fill="#512618" d="M 17.3125 12.15625 L 17.300781 12.167969 L 17.292969 12.171875 C 17.289062 12.171875 17.285156 12.179688 17.277344 12.179688 L 17.261719 12.191406 L 17.246094 12.199219 C 17.226562 12.210938 17.207031 12.222656 17.1875 12.230469 C 17.148438 12.25 17.105469 12.265625 17.066406 12.28125 C 16.984375 12.3125 16.902344 12.335938 16.820312 12.359375 C 16.65625 12.398438 16.488281 12.425781 16.316406 12.433594 C 16.148438 12.4375 15.980469 12.429688 15.8125 12.402344 C 15.792969 12.402344 15.773438 12.398438 15.753906 12.394531 L 15.722656 12.386719 L 15.691406 12.382812 L 15.570312 12.355469 C 15.492188 12.339844 15.410156 12.328125 15.332031 12.320312 C 15.171875 12.300781 15.011719 12.292969 14.851562 12.3125 C 14.691406 12.328125 14.535156 12.367188 14.386719 12.425781 C 14.3125 12.457031 14.238281 12.492188 14.167969 12.535156 C 14.097656 12.574219 14.027344 12.617188 13.960938 12.660156 C 13.894531 12.707031 13.824219 12.753906 13.753906 12.792969 C 13.714844 12.8125 13.679688 12.828125 13.640625 12.84375 C 13.601562 12.855469 13.558594 12.863281 13.519531 12.859375 C 13.558594 12.859375 13.597656 12.851562 13.636719 12.835938 C 13.675781 12.820312 13.710938 12.800781 13.746094 12.78125 C 13.816406 12.738281 13.878906 12.6875 13.945312 12.640625 C 14.011719 12.59375 14.078125 12.542969 14.148438 12.5 C 14.214844 12.453125 14.289062 12.414062 14.363281 12.378906 C 14.515625 12.308594 14.675781 12.257812 14.839844 12.234375 C 15.007812 12.207031 15.175781 12.203125 15.339844 12.214844 C 15.425781 12.21875 15.507812 12.226562 15.589844 12.238281 L 15.710938 12.257812 L 15.742188 12.261719 L 15.769531 12.265625 C 15.792969 12.269531 15.8125 12.269531 15.832031 12.273438 C 15.988281 12.289062 16.148438 12.289062 16.308594 12.273438 C 16.464844 12.257812 16.621094 12.226562 16.769531 12.179688 C 16.84375 12.15625 16.917969 12.128906 16.988281 12.097656 C 17.023438 12.082031 17.058594 12.066406 17.09375 12.046875 C 17.109375 12.039062 17.125 12.03125 17.140625 12.019531 L 17.152344 12.015625 L 17.160156 12.007812 C 17.164062 12.003906 17.167969 12.003906 17.167969 12 L 17.171875 12 C 17.171875 11.996094 17.171875 11.996094 17.175781 11.996094 L 17.3125 12.15625 " fill-opacity="1" fill-rule="nonzero"/><path fill="#512618" d="M 17.535156 13.558594 C 17.542969 13.492188 17.542969 13.429688 17.535156 13.363281 C 17.53125 13.300781 17.515625 13.238281 17.5 13.175781 C 17.464844 13.050781 17.414062 12.933594 17.363281 12.8125 C 17.3125 12.691406 17.265625 12.5625 17.238281 12.429688 C 17.210938 12.296875 17.203125 12.15625 17.214844 12.019531 L 17.398438 12.042969 C 17.375 12.164062 17.367188 12.285156 17.378906 12.410156 C 17.386719 12.535156 17.414062 12.65625 17.449219 12.78125 C 17.484375 12.90625 17.523438 13.035156 17.546875 13.164062 C 17.554688 13.230469 17.5625 13.296875 17.558594 13.363281 C 17.558594 13.429688 17.550781 13.496094 17.535156 13.558594 " fill-opacity="1" fill-rule="nonzero"/><path fill="#ec7d40" d="M 18.164062 19.648438 C 18.289062 19.523438 18.230469 19.398438 18.472656 19.265625 C 18.695312 19.144531 18.921875 19.191406 18.964844 19.199219 C 19.007812 19.210938 19.242188 19.261719 19.414062 19.476562 C 19.585938 19.695312 19.578125 19.941406 19.574219 20.058594 C 19.5625 20.421875 19.359375 20.667969 19.296875 20.742188 C 19.207031 20.847656 18.875 21.183594 18.40625 21.179688 C 16.984375 21.164062 17.308594 20.25 17.421875 20.097656 C 17.660156 19.765625 17.96875 19.851562 18.164062 19.648438 " fill-opacity="1" fill-rule="nonzero"/><path fill="#512618" d="M 15.25 13.832031 C 15.179688 13.890625 15.09375 13.921875 15.003906 13.929688 C 14.910156 13.941406 14.816406 13.929688 14.730469 13.894531 C 14.710938 13.882812 14.6875 13.875 14.667969 13.863281 L 14.640625 13.847656 C 14.628906 13.84375 14.621094 13.835938 14.609375 13.828125 L 14.597656 13.820312 C 14.589844 13.816406 14.585938 13.8125 14.582031 13.808594 C 14.574219 13.800781 14.566406 13.792969 14.554688 13.789062 C 14.539062 13.773438 14.523438 13.757812 14.507812 13.738281 C 14.476562 13.707031 14.453125 13.671875 14.429688 13.628906 C 14.410156 13.589844 14.394531 13.550781 14.386719 13.503906 C 14.460938 13.554688 14.527344 13.597656 14.59375 13.636719 C 14.660156 13.675781 14.726562 13.707031 14.796875 13.734375 C 14.863281 13.761719 14.933594 13.78125 15.007812 13.796875 C 15.082031 13.8125 15.160156 13.820312 15.25 13.832031 " fill-opacity="1" fill-rule="nonzero"/><path fill="#512618" d="M 16.050781 14.007812 C 16.121094 14.046875 16.183594 14.078125 16.242188 14.105469 C 16.304688 14.132812 16.367188 14.152344 16.429688 14.167969 C 16.492188 14.183594 16.554688 14.191406 16.625 14.195312 C 16.691406 14.203125 16.761719 14.203125 16.839844 14.207031 C 16.785156 14.261719 16.710938 14.296875 16.632812 14.3125 C 16.558594 14.332031 16.472656 14.332031 16.394531 14.3125 C 16.3125 14.296875 16.238281 14.257812 16.179688 14.203125 C 16.148438 14.179688 16.121094 14.148438 16.101562 14.117188 C 16.078125 14.082031 16.0625 14.046875 16.050781 14.007812 " fill-opacity="1" fill-rule="nonzero"/><path fill="#f79556" d="M 19.390625 20.53125 C 19.355469 20.503906 19.316406 20.488281 19.277344 20.480469 C 19.261719 20.480469 19.253906 20.464844 19.257812 20.453125 C 19.285156 20.347656 19.238281 20.234375 19.140625 20.179688 C 19.046875 20.128906 18.9375 20.144531 18.859375 20.210938 C 18.847656 20.222656 18.835938 20.214844 18.84375 20.195312 C 18.890625 20.070312 18.828125 19.929688 18.699219 19.878906 C 18.609375 19.847656 18.507812 19.867188 18.441406 19.929688 C 18.429688 19.945312 18.40625 19.933594 18.40625 19.914062 C 18.398438 19.816406 18.332031 19.730469 18.230469 19.699219 C 18.101562 19.660156 17.988281 19.742188 17.921875 19.859375 C 17.722656 20.210938 17.289062 20.855469 17.476562 21.074219 C 17.523438 21.125 17.597656 21.136719 17.664062 21.128906 C 17.675781 21.128906 17.6875 21.125 17.699219 21.125 C 17.710938 21.121094 17.726562 21.128906 17.726562 21.140625 C 17.738281 21.1875 17.761719 21.230469 17.800781 21.265625 C 17.851562 21.3125 17.917969 21.335938 17.980469 21.332031 C 18.015625 21.328125 18.046875 21.320312 18.078125 21.304688 C 18.089844 21.300781 18.101562 21.304688 18.109375 21.316406 C 18.117188 21.332031 18.125 21.347656 18.136719 21.363281 C 18.1875 21.425781 18.265625 21.457031 18.339844 21.453125 C 18.390625 21.453125 18.4375 21.433594 18.480469 21.402344 C 18.488281 21.398438 18.5 21.394531 18.507812 21.402344 C 18.546875 21.429688 18.597656 21.441406 18.648438 21.4375 C 18.679688 21.4375 18.714844 21.429688 18.746094 21.414062 C 18.75 21.410156 19.15625 21.179688 19.421875 20.863281 C 19.503906 20.765625 19.492188 20.617188 19.390625 20.53125 " fill-opacity="1" fill-rule="nonzero"/><path fill="#ec7d40" d="M 18.363281 20.046875 C 18.347656 20.148438 18.316406 20.246094 18.28125 20.339844 C 18.242188 20.433594 18.199219 20.523438 18.148438 20.609375 C 18.097656 20.695312 18.039062 20.777344 17.976562 20.855469 C 17.910156 20.933594 17.839844 21.007812 17.761719 21.070312 C 17.804688 20.980469 17.855469 20.894531 17.90625 20.808594 L 18.054688 20.554688 L 18.207031 20.300781 C 18.257812 20.21875 18.308594 20.132812 18.363281 20.046875 " fill-opacity="1" fill-rule="nonzero"/><path fill="#ec7d40" d="M 18.789062 20.3125 C 18.761719 20.410156 18.722656 20.5 18.675781 20.589844 C 18.628906 20.675781 18.578125 20.761719 18.519531 20.84375 C 18.464844 20.925781 18.402344 21.003906 18.335938 21.078125 C 18.320312 21.09375 18.304688 21.113281 18.285156 21.132812 C 18.269531 21.148438 18.253906 21.167969 18.234375 21.183594 C 18.214844 21.199219 18.195312 21.21875 18.175781 21.234375 L 18.148438 21.257812 C 18.136719 21.265625 18.128906 21.269531 18.117188 21.277344 C 18.144531 21.238281 18.171875 21.195312 18.199219 21.15625 L 18.28125 21.03125 C 18.335938 20.949219 18.390625 20.871094 18.445312 20.789062 C 18.5 20.710938 18.554688 20.628906 18.613281 20.550781 C 18.671875 20.472656 18.726562 20.394531 18.789062 20.3125 " fill-opacity="1" fill-rule="nonzero"/><path fill="#ec7d40" d="M 19.191406 20.570312 C 19.160156 20.652344 19.117188 20.726562 19.066406 20.796875 C 19.019531 20.871094 18.96875 20.9375 18.910156 21.003906 C 18.855469 21.070312 18.792969 21.132812 18.730469 21.1875 C 18.714844 21.203125 18.699219 21.21875 18.679688 21.230469 C 18.664062 21.246094 18.648438 21.261719 18.628906 21.273438 C 18.59375 21.300781 18.5625 21.324219 18.519531 21.34375 C 18.550781 21.3125 18.578125 21.277344 18.601562 21.246094 L 18.683594 21.144531 C 18.738281 21.082031 18.792969 21.015625 18.851562 20.953125 C 18.90625 20.886719 18.960938 20.824219 19.019531 20.761719 C 19.074219 20.695312 19.132812 20.632812 19.191406 20.570312 " fill-opacity="1" fill-rule="nonzero"/><path fill="#fccc44" d="M 17.339844 19.132812 C 17.128906 18.875 17.011719 18.742188 16.945312 18.664062 C 16.855469 18.558594 16.851562 18.554688 16.828125 18.503906 C 16.820312 18.488281 16.816406 18.476562 16.808594 18.460938 C 16.664062 18.164062 16.226562 17.253906 16.90625 16.070312 C 17.070312 15.785156 17.25 15.746094 17.300781 15.742188 C 17.304688 15.742188 17.304688 15.742188 17.308594 15.738281 C 17.554688 15.726562 17.890625 16.347656 18.019531 16.613281 C 18.398438 17.375 18.566406 17.800781 18.691406 18.113281 C 18.707031 18.160156 18.726562 18.203125 18.742188 18.246094 L 18.757812 18.28125 L 18.71875 18.28125 C 18.710938 18.28125 18.703125 18.28125 18.699219 18.28125 C 18.335938 18.300781 17.964844 18.453125 17.707031 18.695312 C 17.617188 18.777344 17.453125 18.929688 17.386719 19.125 L 17.371094 19.167969 L 17.339844 19.132812 " fill-opacity="1" fill-rule="nonzero"/><path fill="#fccc44" d="M 10.851562 19.21875 C 10.714844 18.972656 10.4375 18.617188 9.890625 18.304688 C 9.742188 18.21875 9.605469 18.164062 9.453125 18.125 L 9.421875 18.117188 L 9.46875 18.023438 C 9.652344 17.660156 9.808594 17.347656 10.039062 16.925781 C 10.042969 16.917969 10.046875 16.910156 10.050781 16.898438 C 10.300781 16.425781 10.796875 15.589844 11.296875 15.292969 C 11.320312 15.28125 11.339844 15.265625 11.363281 15.25 C 11.464844 15.183594 11.59375 15.097656 11.742188 15.097656 C 11.765625 15.097656 11.785156 15.101562 11.808594 15.105469 C 12.058594 15.144531 12.199219 15.4375 12.265625 15.582031 C 12.570312 16.226562 12.347656 16.90625 12.253906 17.195312 C 12.039062 17.847656 11.398438 18.703125 10.894531 19.222656 L 10.867188 19.246094 L 10.851562 19.21875 " fill-opacity="1" fill-rule="nonzero"/><path fill="#e69601" d="M 12.402344 16.042969 C 12.441406 16.1875 12.453125 16.34375 12.449219 16.496094 C 12.449219 16.574219 12.441406 16.652344 12.429688 16.726562 C 12.421875 16.804688 12.40625 16.878906 12.390625 16.953125 C 12.371094 17.03125 12.351562 17.105469 12.332031 17.175781 C 12.320312 17.214844 12.308594 17.25 12.296875 17.289062 L 12.277344 17.34375 L 12.253906 17.398438 C 12.226562 17.46875 12.195312 17.539062 12.160156 17.609375 C 12.125 17.679688 12.09375 17.746094 12.054688 17.8125 C 11.902344 18.082031 11.726562 18.332031 11.53125 18.566406 C 11.433594 18.6875 11.332031 18.800781 11.226562 18.910156 C 11.121094 19.019531 11.011719 19.125 10.894531 19.222656 C 10.984375 19.101562 11.078125 18.984375 11.167969 18.859375 C 11.214844 18.800781 11.261719 18.742188 11.304688 18.679688 C 11.347656 18.617188 11.390625 18.554688 11.433594 18.496094 C 11.605469 18.25 11.773438 17.996094 11.917969 17.738281 C 11.992188 17.609375 12.0625 17.476562 12.121094 17.339844 L 12.160156 17.238281 C 12.175781 17.207031 12.1875 17.171875 12.199219 17.136719 C 12.226562 17.066406 12.25 16.996094 12.273438 16.925781 C 12.363281 16.640625 12.414062 16.347656 12.402344 16.042969 " fill-opacity="1" fill-rule="nonzero"/><path fill="#d65b5b" d="M 14.636719 15.316406 C 14.628906 15.296875 14.644531 15.28125 14.664062 15.28125 C 14.746094 15.289062 14.949219 15.308594 15.171875 15.363281 C 15.328125 15.402344 15.464844 15.464844 15.523438 15.492188 C 15.539062 15.496094 15.542969 15.515625 15.535156 15.53125 C 15.480469 15.597656 15.3125 15.769531 15.039062 15.699219 C 14.792969 15.636719 14.675781 15.40625 14.636719 15.316406 " fill-opacity="1" fill-rule="nonzero"/><path fill="#e69601" d="M 17.65625 16.890625 C 17.644531 17.074219 17.605469 17.257812 17.5625 17.4375 C 17.519531 17.617188 17.46875 17.792969 17.414062 17.96875 C 17.359375 18.144531 17.300781 18.320312 17.246094 18.492188 L 17.203125 18.625 L 17.164062 18.753906 C 17.152344 18.796875 17.136719 18.839844 17.125 18.882812 C 17.117188 18.929688 17.101562 18.972656 17.09375 19.015625 C 17.070312 19.101562 17.054688 19.191406 17.035156 19.28125 C 17.019531 19.371094 17.003906 19.457031 16.992188 19.546875 C 16.980469 19.636719 16.972656 19.726562 16.964844 19.816406 C 16.960938 19.90625 16.953125 20 16.945312 20.089844 C 16.917969 20.460938 16.847656 20.824219 16.757812 21.183594 C 16.785156 20.8125 16.820312 20.449219 16.824219 20.085938 C 16.828125 19.90625 16.824219 19.71875 16.847656 19.53125 C 16.855469 19.4375 16.871094 19.34375 16.886719 19.253906 C 16.902344 19.160156 16.921875 19.070312 16.941406 18.980469 C 16.988281 18.796875 17.046875 18.621094 17.105469 18.445312 C 17.167969 18.273438 17.234375 18.101562 17.300781 17.929688 C 17.363281 17.757812 17.429688 17.585938 17.492188 17.414062 C 17.554688 17.242188 17.609375 17.070312 17.65625 16.890625 " fill-opacity="1" fill-rule="nonzero"/><path fill="#000000" d="M 13.054688 21.097656 L 12.933594 21.1875 C 12.921875 21.199219 12.902344 21.195312 12.890625 21.183594 L 11.167969 18.96875 C 11.15625 18.957031 11.160156 18.9375 11.171875 18.925781 L 11.292969 18.835938 C 11.304688 18.824219 11.324219 18.828125 11.332031 18.839844 L 13.058594 21.054688 C 13.070312 21.066406 13.066406 21.085938 13.054688 21.097656 " fill-opacity="1" fill-rule="nonzero"/><path fill="#000000" d="M 11.332031 18.972656 L 11.296875 19 C 11.285156 19.007812 11.269531 19.007812 11.261719 18.996094 L 11.117188 18.808594 C 11.105469 18.796875 11.109375 18.78125 11.121094 18.773438 L 11.15625 18.746094 C 11.167969 18.738281 11.183594 18.738281 11.191406 18.75 L 11.335938 18.9375 C 11.34375 18.949219 11.34375 18.964844 11.332031 18.972656 " fill-opacity="1" fill-rule="nonzero"/><path fill="#000000" d="M 13.203125 21.414062 C 13.1875 21.425781 13.164062 21.425781 13.148438 21.410156 L 12.917969 21.160156 C 12.898438 21.144531 12.902344 21.113281 12.921875 21.101562 L 12.972656 21.0625 C 12.992188 21.046875 13.019531 21.050781 13.03125 21.074219 L 13.214844 21.359375 C 13.226562 21.375 13.222656 21.398438 13.203125 21.414062 " fill-opacity="1" fill-rule="nonzero"/><path fill="#f79556" d="M 10.738281 20.457031 C 10.773438 20.28125 10.753906 20.191406 10.925781 20.035156 C 11.015625 19.953125 10.964844 19.90625 11.046875 19.785156 C 11.078125 19.738281 11.117188 19.675781 11.191406 19.640625 C 11.3125 19.578125 11.46875 19.609375 11.5625 19.679688 C 11.613281 19.714844 12.421875 20.242188 12.574219 20.378906 C 12.652344 20.445312 12.71875 20.519531 12.71875 20.613281 C 12.71875 20.632812 12.710938 20.703125 12.667969 20.761719 C 12.625 20.8125 12.574219 20.824219 12.574219 20.824219 C 12.574219 20.824219 12.605469 20.863281 12.613281 20.917969 C 12.625 20.996094 12.585938 21.058594 12.535156 21.089844 C 12.496094 21.109375 12.453125 21.117188 12.453125 21.117188 C 12.453125 21.117188 12.492188 21.167969 12.457031 21.238281 C 12.433594 21.289062 12.375 21.300781 12.375 21.300781 C 12.375 21.300781 12.375 21.355469 12.347656 21.378906 C 12.214844 21.5 11.097656 21.539062 10.953125 21.339844 C 10.945312 21.328125 10.773438 21.03125 10.738281 20.945312 C 10.6875 20.808594 10.714844 20.601562 10.738281 20.457031 " fill-opacity="1" fill-rule="nonzero"/><path fill="#ec7d40" d="M 11.230469 20.101562 C 11.257812 20.121094 11.277344 20.140625 11.300781 20.160156 C 11.324219 20.179688 11.347656 20.199219 11.371094 20.21875 C 11.414062 20.257812 11.460938 20.292969 11.511719 20.316406 L 11.839844 20.472656 L 12.164062 20.625 C 12.273438 20.679688 12.382812 20.730469 12.492188 20.785156 C 12.371094 20.773438 12.25 20.742188 12.132812 20.703125 C 12.019531 20.664062 11.902344 20.617188 11.792969 20.566406 C 11.765625 20.554688 11.738281 20.539062 11.710938 20.527344 C 11.683594 20.511719 11.65625 20.5 11.628906 20.484375 C 11.601562 20.46875 11.574219 20.453125 11.550781 20.4375 L 11.507812 20.414062 L 11.488281 20.402344 L 11.46875 20.386719 C 11.414062 20.351562 11.371094 20.304688 11.332031 20.253906 C 11.3125 20.230469 11.296875 20.207031 11.28125 20.179688 C 11.261719 20.152344 11.246094 20.128906 11.230469 20.101562 " fill-opacity="1" fill-rule="nonzero"/><path fill="#ec7d40" d="M 11.113281 20.550781 C 11.15625 20.589844 11.195312 20.632812 11.238281 20.671875 C 11.28125 20.714844 11.324219 20.75 11.375 20.78125 C 11.386719 20.785156 11.398438 20.792969 11.410156 20.800781 L 11.449219 20.816406 C 11.476562 20.832031 11.503906 20.84375 11.53125 20.855469 C 11.582031 20.875 11.636719 20.898438 11.691406 20.917969 C 11.800781 20.957031 11.914062 20.988281 12.027344 21.019531 C 12.140625 21.046875 12.257812 21.074219 12.375 21.101562 C 12.253906 21.105469 12.132812 21.097656 12.015625 21.082031 C 11.898438 21.0625 11.777344 21.03125 11.664062 20.992188 C 11.609375 20.972656 11.550781 20.949219 11.5 20.921875 C 11.472656 20.90625 11.445312 20.894531 11.417969 20.878906 C 11.40625 20.871094 11.390625 20.863281 11.378906 20.855469 C 11.367188 20.847656 11.351562 20.839844 11.339844 20.828125 C 11.289062 20.792969 11.246094 20.746094 11.210938 20.699219 C 11.175781 20.648438 11.144531 20.597656 11.113281 20.550781 " fill-opacity="1" fill-rule="nonzero"/><path fill="#ec7d40" d="M 11.21875 21.15625 C 11.308594 21.183594 11.398438 21.199219 11.492188 21.214844 C 11.582031 21.230469 11.671875 21.242188 11.765625 21.25 C 11.855469 21.261719 11.949219 21.269531 12.042969 21.277344 L 12.320312 21.300781 C 12.230469 21.324219 12.132812 21.335938 12.039062 21.339844 C 11.945312 21.34375 11.851562 21.339844 11.757812 21.332031 C 11.660156 21.320312 11.566406 21.304688 11.476562 21.277344 C 11.386719 21.25 11.292969 21.210938 11.21875 21.15625 " fill-opacity="1" fill-rule="nonzero"/><path fill="#7764a6" d="M 3.917969 11.113281 L 2.242188 11.113281 C 2.171875 11.113281 2.109375 11.171875 2.109375 11.246094 L 2.109375 12.234375 C 2.109375 12.304688 2.171875 12.367188 2.242188 12.367188 L 2.726562 12.367188 L 3.253906 12.726562 L 3.253906 12.367188 L 3.917969 12.367188 C 3.988281 12.367188 4.050781 12.304688 4.050781 12.234375 L 4.050781 11.246094 C 4.050781 11.171875 3.988281 11.113281 3.917969 11.113281 " fill-opacity="1" fill-rule="nonzero"/><path fill="#ffffff" d="M 2.949219 11.5 L 2.667969 11.5 C 2.550781 11.5 2.453125 11.597656 2.453125 11.714844 C 2.453125 11.789062 2.492188 11.851562 2.546875 11.890625 L 2.546875 12.050781 L 2.667969 11.929688 L 2.949219 11.929688 C 3.066406 11.929688 3.164062 11.832031 3.164062 11.714844 C 3.164062 11.597656 3.066406 11.5 2.949219 11.5 " fill-opacity="1" fill-rule="nonzero"/><path fill="#ffffff" d="M 3.574219 11.929688 C 3.554688 11.929688 3.535156 11.914062 3.535156 11.890625 L 3.535156 11.617188 L 3.464844 11.667969 C 3.449219 11.679688 3.421875 11.675781 3.410156 11.660156 C 3.398438 11.640625 3.402344 11.617188 3.417969 11.605469 L 3.550781 11.507812 C 3.566406 11.5 3.582031 11.5 3.59375 11.507812 C 3.605469 11.511719 3.617188 11.527344 3.617188 11.542969 L 3.617188 11.890625 C 3.617188 11.914062 3.597656 11.929688 3.574219 11.929688 " fill-opacity="1" fill-rule="nonzero"/><path fill="#fccc44" d="M 9.367188 8.152344 L 7.742188 8.152344 C 7.652344 8.152344 7.585938 8.082031 7.585938 7.996094 L 7.585938 7.042969 C 7.585938 6.957031 7.652344 6.886719 7.742188 6.886719 L 9.367188 6.886719 C 9.453125 6.886719 9.523438 6.957031 9.523438 7.042969 L 9.523438 7.996094 C 9.523438 8.082031 9.453125 8.152344 9.367188 8.152344 " fill-opacity="1" fill-rule="nonzero"/><path fill="#ffffff" d="M 8.984375 7.519531 L 9.503906 7.007812 C 9.519531 6.988281 9.519531 6.960938 9.503906 6.941406 C 9.484375 6.925781 9.457031 6.925781 9.4375 6.941406 L 8.894531 7.480469 C 8.890625 7.480469 8.890625 7.484375 8.886719 7.488281 C 8.882812 7.488281 8.882812 7.492188 8.878906 7.496094 L 8.652344 7.71875 C 8.597656 7.773438 8.507812 7.773438 8.453125 7.71875 L 7.667969 6.941406 C 7.652344 6.925781 7.621094 6.925781 7.605469 6.941406 C 7.585938 6.960938 7.585938 6.988281 7.605469 7.007812 L 8.121094 7.519531 L 7.605469 8.035156 C 7.585938 8.050781 7.585938 8.082031 7.605469 8.097656 C 7.613281 8.109375 7.625 8.113281 7.636719 8.113281 C 7.648438 8.113281 7.660156 8.109375 7.667969 8.097656 L 8.1875 7.585938 L 8.390625 7.785156 C 8.433594 7.828125 8.492188 7.851562 8.554688 7.851562 C 8.613281 7.851562 8.671875 7.828125 8.71875 7.785156 L 8.917969 7.585938 L 9.4375 8.097656 C 9.445312 8.109375 9.457031 8.113281 9.46875 8.113281 C 9.480469 8.113281 9.492188 8.109375 9.503906 8.097656 C 9.519531 8.082031 9.519531 8.050781 9.503906 8.035156 L 8.984375 7.519531 " fill-opacity="1" fill-rule="nonzero"/><path fill="#ffffff" d="M 6.679688 14.449219 L 4.945312 14.449219 C 4.835938 14.449219 4.746094 14.539062 4.746094 14.648438 L 4.746094 15.753906 C 4.746094 15.863281 4.835938 15.949219 4.945312 15.949219 L 5.105469 15.949219 C 5.117188 15.949219 5.128906 15.957031 5.136719 15.964844 L 5.136719 16.351562 C 5.152344 16.375 5.1875 16.375 5.203125 16.351562 L 5.746094 15.96875 C 5.75 15.957031 5.765625 15.949219 5.777344 15.949219 L 6.679688 15.949219 C 6.792969 15.949219 6.878906 15.863281 6.878906 15.753906 L 6.878906 14.648438 C 6.878906 14.539062 6.792969 14.449219 6.679688 14.449219 " fill-opacity="1" fill-rule="nonzero"/><path fill="#e30613" d="M 6.332031 15.441406 C 6.304688 15.441406 6.28125 15.417969 6.28125 15.390625 L 6.28125 15.050781 L 6.191406 15.113281 C 6.171875 15.128906 6.140625 15.125 6.125 15.101562 C 6.105469 15.078125 6.113281 15.046875 6.132812 15.03125 L 6.300781 14.914062 C 6.316406 14.902344 6.335938 14.898438 6.355469 14.910156 C 6.371094 14.917969 6.382812 14.933594 6.382812 14.953125 L 6.382812 15.390625 C 6.382812 15.417969 6.359375 15.441406 6.332031 15.441406 " fill-opacity="1" fill-rule="nonzero"/><path fill="#e30613" d="M 5.925781 15.046875 C 5.925781 14.945312 5.84375 14.851562 5.746094 14.851562 L 5.730469 14.851562 C 5.660156 14.851562 5.585938 14.890625 5.554688 14.953125 C 5.550781 14.960938 5.539062 14.960938 5.535156 14.953125 C 5.503906 14.890625 5.433594 14.851562 5.359375 14.851562 L 5.34375 14.851562 C 5.246094 14.851562 5.167969 14.945312 5.167969 15.046875 C 5.167969 15.308594 5.457031 15.46875 5.535156 15.507812 L 5.554688 15.507812 C 5.632812 15.46875 5.925781 15.308594 5.925781 15.046875 " fill-opacity="1" fill-rule="nonzero"/><path fill="#eb9e94" d="M 11.519531 9.429688 L 5.460938 9.429688 C 5.066406 9.429688 4.746094 9.746094 4.746094 10.136719 L 4.746094 12.960938 C 4.746094 13.355469 5.066406 13.671875 5.460938 13.671875 L 9.886719 13.671875 L 10.703125 14.410156 L 10.703125 13.671875 L 11.519531 13.671875 C 11.914062 13.671875 12.234375 13.355469 12.234375 12.960938 L 12.234375 10.136719 C 12.234375 9.746094 11.914062 9.429688 11.519531 9.429688 " fill-opacity="1" fill-rule="nonzero"/><path fill="#ffffff" d="M 9.832031 12.679688 C 9.832031 12.765625 9.761719 12.835938 9.671875 12.835938 C 9.585938 12.835938 9.515625 12.765625 9.515625 12.679688 C 9.515625 12.59375 9.585938 12.523438 9.671875 12.523438 C 9.761719 12.523438 9.832031 12.59375 9.832031 12.679688 " fill-opacity="1" fill-rule="nonzero"/><path fill="#ffffff" d="M 10.484375 12.679688 C 10.484375 12.765625 10.414062 12.835938 10.324219 12.835938 C 10.238281 12.835938 10.167969 12.765625 10.167969 12.679688 C 10.167969 12.59375 10.238281 12.523438 10.324219 12.523438 C 10.414062 12.523438 10.484375 12.59375 10.484375 12.679688 " fill-opacity="1" fill-rule="nonzero"/><path fill="#ffffff" d="M 11.136719 12.679688 C 11.136719 12.765625 11.066406 12.835938 10.980469 12.835938 C 10.890625 12.835938 10.820312 12.765625 10.820312 12.679688 C 10.820312 12.59375 10.890625 12.523438 10.980469 12.523438 C 11.066406 12.523438 11.136719 12.59375 11.136719 12.679688 " fill-opacity="1" fill-rule="nonzero"/><path fill="#ffffff" d="M 11.128906 10.585938 L 7.5 10.585938 C 7.414062 10.585938 7.34375 10.515625 7.34375 10.429688 C 7.34375 10.34375 7.414062 10.273438 7.5 10.273438 L 11.128906 10.273438 C 11.214844 10.273438 11.285156 10.34375 11.285156 10.429688 C 11.285156 10.515625 11.214844 10.585938 11.128906 10.585938 " fill-opacity="1" fill-rule="nonzero"/><path fill="#ffffff" d="M 11.128906 11.335938 L 5.851562 11.335938 C 5.765625 11.335938 5.695312 11.265625 5.695312 11.179688 C 5.695312 11.09375 5.765625 11.023438 5.851562 11.023438 L 11.128906 11.023438 C 11.214844 11.023438 11.285156 11.09375 11.285156 11.179688 C 11.285156 11.265625 11.214844 11.335938 11.128906 11.335938 " fill-opacity="1" fill-rule="nonzero"/><path fill="#ffffff" d="M 11.128906 12.085938 L 5.851562 12.085938 C 5.765625 12.085938 5.695312 12.015625 5.695312 11.929688 C 5.695312 11.84375 5.765625 11.773438 5.851562 11.773438 L 11.128906 11.773438 C 11.214844 11.773438 11.285156 11.84375 11.285156 11.929688 C 11.285156 12.015625 11.214844 12.085938 11.128906 12.085938 " fill-opacity="1" fill-rule="nonzero"/><path fill="#ffffff" d="M 9.050781 12.835938 L 5.851562 12.835938 C 5.765625 12.835938 5.695312 12.765625 5.695312 12.679688 C 5.695312 12.59375 5.765625 12.523438 5.851562 12.523438 L 9.050781 12.523438 C 9.136719 12.523438 9.207031 12.59375 9.207031 12.679688 C 9.207031 12.765625 9.136719 12.835938 9.050781 12.835938 " fill-opacity="1" fill-rule="nonzero"/><g clip-path="url(#de19cbc4cb)"><path fill="#312553" d="M 30.90625 22.503906 L 0.925781 22.507812 C 0.652344 22.507812 0.429688 22.289062 0.429688 22.015625 C 0.429688 21.742188 0.652344 21.523438 0.925781 21.523438 L 30.90625 21.515625 C 31.183594 21.515625 31.40625 21.738281 31.40625 22.011719 C 31.40625 22.285156 31.183594 22.503906 30.90625 22.503906 " fill-opacity="1" fill-rule="nonzero"/></g><path fill="#ffffff" d="M 2.347656 18.636719 L 6.105469 18.636719 C 6.261719 18.636719 6.386719 18.761719 6.386719 18.914062 L 6.386719 19.449219 C 6.386719 19.605469 6.261719 19.730469 6.105469 19.730469 L 2.347656 19.730469 " fill-opacity="1" fill-rule="nonzero"/><path fill="#fccc44" d="M 6.105469 19.8125 L 2.117188 19.8125 L 2.117188 18.550781 L 6.105469 18.550781 C 6.308594 18.550781 6.472656 18.714844 6.472656 18.914062 L 6.472656 19.449219 C 6.472656 19.652344 6.308594 19.8125 6.105469 19.8125 " fill-opacity="1" fill-rule="nonzero"/><path fill="#312553" d="M 6.09375 21.535156 L 2.285156 21.535156 L 2.285156 20.382812 L 6.097656 20.382812 C 6.414062 20.382812 6.671875 20.636719 6.679688 20.949219 C 6.683594 21.269531 6.417969 21.535156 6.09375 21.535156 " fill-opacity="1" fill-rule="nonzero"/><path fill="#7ca417" d="M 5.992188 18.519531 L 2.214844 18.519531 L 2.214844 17.515625 L 5.992188 17.515625 C 6.214844 17.515625 6.394531 17.691406 6.394531 17.914062 L 6.394531 18.121094 C 6.394531 18.34375 6.214844 18.519531 5.992188 18.519531 " fill-opacity="1" fill-rule="nonzero"/><path fill="#cbbeed" d="M 5.699219 21.464844 L 2.027344 21.464844 L 2.027344 20.457031 L 5.699219 20.457031 C 5.976562 20.457031 6.207031 20.683594 6.207031 20.960938 C 6.207031 21.238281 5.976562 21.464844 5.699219 21.464844 " fill-opacity="1" fill-rule="nonzero"/><path fill="#7764a6" d="M 5.691406 21.535156 L 1.960938 21.535156 C 1.921875 21.535156 1.886719 21.5 1.886719 21.460938 C 1.886719 21.421875 1.921875 21.386719 1.960938 21.386719 L 5.695312 21.386719 C 5.9375 21.386719 6.136719 21.191406 6.132812 20.949219 C 6.128906 20.71875 5.9375 20.527344 5.699219 20.527344 L 1.960938 20.527344 C 1.921875 20.527344 1.886719 20.496094 1.886719 20.457031 C 1.886719 20.414062 1.921875 20.382812 1.960938 20.382812 L 5.699219 20.382812 C 6.015625 20.382812 6.273438 20.636719 6.277344 20.949219 C 6.285156 21.269531 6.019531 21.535156 5.691406 21.535156 " fill-opacity="1" fill-rule="nonzero"/><path fill="#3a4a1d" d="M 6.007812 20.367188 L 2.023438 20.367188 C 1.996094 20.367188 1.972656 20.34375 1.972656 20.316406 C 1.972656 20.289062 1.996094 20.265625 2.023438 20.265625 L 2.023438 19.9375 C 1.996094 19.9375 1.972656 19.914062 1.972656 19.886719 C 1.972656 19.859375 1.996094 19.835938 2.023438 19.835938 L 6.015625 19.835938 C 6.164062 19.835938 6.285156 19.957031 6.28125 20.105469 C 6.277344 20.25 6.15625 20.367188 6.007812 20.367188 " fill-opacity="1" fill-rule="nonzero"/><path fill="#ea9a26" d="M 5.667969 19.8125 L 1.992188 19.8125 C 1.945312 19.8125 1.910156 19.777344 1.910156 19.730469 C 1.910156 19.683594 1.945312 19.644531 1.992188 19.644531 L 5.667969 19.644531 C 5.777344 19.644531 5.863281 19.558594 5.863281 19.449219 L 5.863281 18.914062 C 5.863281 18.804688 5.777344 18.71875 5.667969 18.71875 L 1.992188 18.71875 C 1.945312 18.71875 1.910156 18.679688 1.910156 18.632812 C 1.910156 18.589844 1.945312 18.550781 1.992188 18.550781 L 5.667969 18.550781 C 5.871094 18.550781 6.035156 18.714844 6.035156 18.914062 L 6.035156 19.449219 C 6.035156 19.648438 5.871094 19.8125 5.667969 19.8125 " fill-opacity="1" fill-rule="nonzero"/><path fill="#e1d7f7" d="M 1.996094 20.277344 L 5.929688 20.277344 C 5.96875 20.277344 6.003906 20.242188 6.003906 20.203125 L 6.003906 19.96875 C 6.003906 19.929688 5.96875 19.898438 5.929688 19.898438 L 1.996094 19.898438 L 1.996094 20.277344 " fill-opacity="1" fill-rule="nonzero"/><path fill="#7ca417" d="M 5.8125 20.367188 L 1.96875 20.367188 C 1.9375 20.367188 1.917969 20.34375 1.917969 20.316406 C 1.917969 20.289062 1.9375 20.265625 1.96875 20.265625 L 5.8125 20.265625 C 5.902344 20.265625 5.980469 20.195312 5.984375 20.105469 C 5.984375 20.011719 5.910156 19.9375 5.816406 19.9375 L 1.96875 19.9375 C 1.9375 19.9375 1.917969 19.914062 1.917969 19.886719 C 1.917969 19.859375 1.9375 19.835938 1.96875 19.835938 L 5.816406 19.835938 C 5.964844 19.835938 6.085938 19.957031 6.085938 20.105469 C 6.082031 20.25 5.957031 20.367188 5.8125 20.367188 " fill-opacity="1" fill-rule="nonzero"/><path fill="#e1d7f7" d="M 2.507812 18.519531 L 2.027344 18.519531 L 2.027344 17.515625 L 2.507812 17.515625 C 2.730469 17.515625 2.910156 17.691406 2.910156 17.914062 L 2.910156 18.121094 C 2.910156 18.34375 2.730469 18.519531 2.507812 18.519531 " fill-opacity="1" fill-rule="nonzero"/><path fill="#3a4a1d" d="M 2.507812 17.515625 L 1.921875 17.515625 C 1.894531 17.515625 1.871094 17.539062 1.871094 17.566406 L 1.871094 17.574219 C 1.871094 17.605469 1.894531 17.625 1.921875 17.625 L 2.507812 17.625 C 2.667969 17.625 2.796875 17.753906 2.796875 17.914062 L 2.796875 18.121094 C 2.796875 18.28125 2.667969 18.410156 2.507812 18.410156 L 1.921875 18.410156 C 1.894531 18.410156 1.871094 18.429688 1.871094 18.460938 L 1.871094 18.46875 C 1.871094 18.496094 1.894531 18.519531 1.921875 18.519531 L 2.507812 18.519531 C 2.730469 18.519531 2.910156 18.34375 2.910156 18.121094 L 2.910156 17.914062 C 2.910156 17.691406 2.730469 17.515625 2.507812 17.515625 " fill-opacity="1" fill-rule="nonzero"/><path fill="#ffffff" d="M 2.578125 17.761719 L 2.027344 17.761719 L 2.027344 17.714844 L 2.578125 17.714844 C 2.589844 17.714844 2.601562 17.722656 2.601562 17.738281 L 2.601562 17.742188 C 2.601562 17.753906 2.589844 17.761719 2.578125 17.761719 " fill-opacity="1" fill-rule="nonzero"/><path fill="#ffffff" d="M 2.578125 17.875 L 2.027344 17.875 L 2.027344 17.824219 L 2.578125 17.824219 C 2.589844 17.824219 2.601562 17.835938 2.601562 17.847656 L 2.601562 17.851562 C 2.601562 17.863281 2.589844 17.875 2.578125 17.875 " fill-opacity="1" fill-rule="nonzero"/><path fill="#ffffff" d="M 2.578125 17.988281 L 2.027344 17.988281 L 2.027344 17.9375 L 2.578125 17.9375 C 2.589844 17.9375 2.601562 17.945312 2.601562 17.960938 L 2.601562 17.964844 C 2.601562 17.976562 2.589844 17.988281 2.578125 17.988281 " fill-opacity="1" fill-rule="nonzero"/><path fill="#ffffff" d="M 2.578125 18.097656 L 2.027344 18.097656 L 2.027344 18.046875 L 2.578125 18.046875 C 2.589844 18.046875 2.601562 18.058594 2.601562 18.070312 L 2.601562 18.074219 C 2.601562 18.089844 2.589844 18.097656 2.578125 18.097656 " fill-opacity="1" fill-rule="nonzero"/><path fill="#ffffff" d="M 2.578125 18.210938 L 2.027344 18.210938 L 2.027344 18.160156 L 2.578125 18.160156 C 2.589844 18.160156 2.601562 18.171875 2.601562 18.183594 L 2.601562 18.1875 C 2.601562 18.199219 2.589844 18.210938 2.578125 18.210938 " fill-opacity="1" fill-rule="nonzero"/><path fill="#ffffff" d="M 2.578125 18.320312 L 2.027344 18.320312 L 2.027344 18.273438 L 2.578125 18.273438 C 2.589844 18.273438 2.601562 18.28125 2.601562 18.296875 L 2.601562 18.300781 C 2.601562 18.3125 2.589844 18.320312 2.578125 18.320312 " fill-opacity="1" fill-rule="nonzero"/><path fill="#ffffff" d="M 5.667969 18.824219 L 2.117188 18.824219 L 2.117188 18.773438 L 5.667969 18.773438 C 5.679688 18.773438 5.691406 18.78125 5.691406 18.796875 L 5.691406 18.800781 C 5.691406 18.8125 5.679688 18.824219 5.667969 18.824219 " fill-opacity="1" fill-rule="nonzero"/><path fill="#ffffff" d="M 5.667969 18.949219 L 2.117188 18.949219 L 2.117188 18.902344 L 5.667969 18.902344 C 5.679688 18.902344 5.691406 18.910156 5.691406 18.925781 L 5.691406 18.929688 C 5.691406 18.941406 5.679688 18.949219 5.667969 18.949219 " fill-opacity="1" fill-rule="nonzero"/><path fill="#ffffff" d="M 5.667969 19.078125 L 2.117188 19.078125 L 2.117188 19.03125 L 5.667969 19.03125 C 5.679688 19.03125 5.691406 19.039062 5.691406 19.050781 L 5.691406 19.054688 C 5.691406 19.070312 5.679688 19.078125 5.667969 19.078125 " fill-opacity="1" fill-rule="nonzero"/><path fill="#ffffff" d="M 5.667969 19.207031 L 2.117188 19.207031 L 2.117188 19.15625 L 5.667969 19.15625 C 5.679688 19.15625 5.691406 19.167969 5.691406 19.179688 L 5.691406 19.183594 C 5.691406 19.199219 5.679688 19.207031 5.667969 19.207031 " fill-opacity="1" fill-rule="nonzero"/><path fill="#ffffff" d="M 5.667969 19.335938 L 2.117188 19.335938 L 2.117188 19.285156 L 5.667969 19.285156 C 5.679688 19.285156 5.691406 19.296875 5.691406 19.308594 L 5.691406 19.3125 C 5.691406 19.328125 5.679688 19.335938 5.667969 19.335938 " fill-opacity="1" fill-rule="nonzero"/><path fill="#ffffff" d="M 5.667969 19.464844 L 2.117188 19.464844 L 2.117188 19.414062 L 5.667969 19.414062 C 5.679688 19.414062 5.691406 19.425781 5.691406 19.4375 L 5.691406 19.441406 C 5.691406 19.453125 5.679688 19.464844 5.667969 19.464844 " fill-opacity="1" fill-rule="nonzero"/><path fill="#ffffff" d="M 5.667969 19.59375 L 2.117188 19.59375 L 2.117188 19.542969 L 5.667969 19.542969 C 5.679688 19.542969 5.691406 19.554688 5.691406 19.566406 L 5.691406 19.570312 C 5.691406 19.582031 5.679688 19.59375 5.667969 19.59375 " fill-opacity="1" fill-rule="nonzero"/><path fill="#ffffff" d="M 5.578125 20.664062 L 2.027344 20.664062 L 2.027344 20.613281 L 5.578125 20.613281 C 5.589844 20.613281 5.601562 20.625 5.601562 20.636719 L 5.601562 20.640625 C 5.601562 20.65625 5.589844 20.664062 5.578125 20.664062 " fill-opacity="1" fill-rule="nonzero"/><path fill="#ffffff" d="M 5.578125 20.792969 L 2.027344 20.792969 L 2.027344 20.742188 L 5.578125 20.742188 C 5.589844 20.742188 5.601562 20.753906 5.601562 20.765625 L 5.601562 20.769531 C 5.601562 20.78125 5.589844 20.792969 5.578125 20.792969 " fill-opacity="1" fill-rule="nonzero"/><path fill="#ffffff" d="M 5.578125 20.921875 L 2.027344 20.921875 L 2.027344 20.871094 L 5.578125 20.871094 C 5.589844 20.871094 5.601562 20.882812 5.601562 20.894531 L 5.601562 20.898438 C 5.601562 20.910156 5.589844 20.921875 5.578125 20.921875 " fill-opacity="1" fill-rule="nonzero"/><path fill="#ffffff" d="M 5.578125 21.050781 L 2.027344 21.050781 L 2.027344 21 L 5.578125 21 C 5.589844 21 5.601562 21.011719 5.601562 21.023438 L 5.601562 21.027344 C 5.601562 21.039062 5.589844 21.050781 5.578125 21.050781 " fill-opacity="1" fill-rule="nonzero"/><path fill="#ffffff" d="M 5.578125 21.179688 L 2.027344 21.179688 L 2.027344 21.128906 L 5.578125 21.128906 C 5.589844 21.128906 5.601562 21.140625 5.601562 21.152344 L 5.601562 21.15625 C 5.601562 21.167969 5.589844 21.179688 5.578125 21.179688 " fill-opacity="1" fill-rule="nonzero"/><path fill="#ffffff" d="M 5.578125 21.308594 L 2.027344 21.308594 L 2.027344 21.257812 L 5.578125 21.257812 C 5.589844 21.257812 5.601562 21.269531 5.601562 21.28125 L 5.601562 21.285156 C 5.601562 21.296875 5.589844 21.308594 5.578125 21.308594 " fill-opacity="1" fill-rule="nonzero"/><path fill="#ffffff" d="M 5.546875 20.046875 L 1.996094 20.046875 L 1.996094 19.996094 L 5.546875 19.996094 C 5.558594 19.996094 5.570312 20.007812 5.570312 20.019531 L 5.570312 20.023438 C 5.570312 20.035156 5.558594 20.046875 5.546875 20.046875 " fill-opacity="1" fill-rule="nonzero"/><path fill="#ffffff" d="M 5.546875 20.175781 L 1.996094 20.175781 L 1.996094 20.125 L 5.546875 20.125 C 5.558594 20.125 5.570312 20.136719 5.570312 20.148438 L 5.570312 20.152344 C 5.570312 20.164062 5.558594 20.175781 5.546875 20.175781 " fill-opacity="1" fill-rule="nonzero"/><g clip-path="url(#0b3d465c94)"><path fill="#d6cef2" d="M 29.25 4.691406 L 20.085938 4.691406 C 19.5625 4.691406 19.140625 5.109375 19.140625 5.628906 L 19.140625 11.65625 C 19.140625 12.320312 19.683594 12.855469 20.347656 12.855469 L 26.40625 12.855469 C 26.429688 12.855469 26.453125 12.867188 26.472656 12.882812 L 27.847656 14.128906 C 27.910156 14.1875 28.011719 14.140625 28.011719 14.054688 L 28.011719 12.953125 C 28.011719 12.898438 28.058594 12.855469 28.113281 12.855469 L 29.25 12.855469 C 29.914062 12.855469 30.457031 12.320312 30.457031 11.65625 L 30.457031 5.890625 C 30.457031 5.226562 29.914062 4.691406 29.25 4.691406 " fill-opacity="1" fill-rule="nonzero"/></g><path fill="#7764a6" d="M 20.371094 10.023438 L 27.949219 10.023438 L 27.949219 5.289062 L 20.371094 5.289062 L 20.371094 10.023438 " fill-opacity="1" fill-rule="nonzero"/><path fill="#312553" d="M 27.78125 9.859375 L 27.78125 5.457031 L 20.539062 5.457031 L 20.539062 9.859375 L 27.78125 9.859375 " fill-opacity="1" fill-rule="nonzero"/><path fill="#7764a6" d="M 25.894531 6.292969 L 23.769531 6.292969 C 23.632812 6.292969 23.519531 6.40625 23.519531 6.542969 L 23.519531 7.535156 C 23.519531 7.671875 23.632812 7.78125 23.769531 7.78125 L 25.320312 7.78125 L 25.605469 8.042969 L 25.605469 7.78125 L 25.894531 7.78125 C 26.03125 7.78125 26.144531 7.671875 26.144531 7.535156 L 26.144531 6.542969 C 26.144531 6.40625 26.03125 6.292969 25.894531 6.292969 " fill-opacity="1" fill-rule="nonzero"/><path fill="#ffffff" d="M 24.363281 7.433594 C 24.363281 7.464844 24.386719 7.488281 24.417969 7.488281 C 24.449219 7.488281 24.472656 7.464844 24.472656 7.433594 C 24.472656 7.402344 24.449219 7.378906 24.417969 7.378906 C 24.386719 7.378906 24.363281 7.402344 24.363281 7.433594 " fill-opacity="1" fill-rule="nonzero"/><path fill="#ffffff" d="M 24.132812 7.433594 C 24.132812 7.464844 24.15625 7.488281 24.1875 7.488281 C 24.21875 7.488281 24.242188 7.464844 24.242188 7.433594 C 24.242188 7.402344 24.21875 7.378906 24.1875 7.378906 C 24.15625 7.378906 24.132812 7.402344 24.132812 7.433594 " fill-opacity="1" fill-rule="nonzero"/><path fill="#ffffff" d="M 23.902344 7.433594 C 23.902344 7.464844 23.929688 7.488281 23.960938 7.488281 C 23.988281 7.488281 24.015625 7.464844 24.015625 7.433594 C 24.015625 7.402344 23.988281 7.378906 23.960938 7.378906 C 23.929688 7.378906 23.902344 7.402344 23.902344 7.433594 " fill-opacity="1" fill-rule="nonzero"/><path fill="#ffffff" d="M 23.90625 6.703125 L 25.179688 6.703125 C 25.210938 6.703125 25.234375 6.675781 25.234375 6.644531 C 25.234375 6.617188 25.210938 6.589844 25.179688 6.589844 L 23.90625 6.589844 C 23.875 6.589844 23.851562 6.617188 23.851562 6.644531 C 23.851562 6.675781 23.875 6.703125 23.90625 6.703125 " fill-opacity="1" fill-rule="nonzero"/><path fill="#ffffff" d="M 23.90625 6.964844 L 25.757812 6.964844 C 25.789062 6.964844 25.8125 6.941406 25.8125 6.910156 C 25.8125 6.878906 25.789062 6.855469 25.757812 6.855469 L 23.90625 6.855469 C 23.875 6.855469 23.851562 6.878906 23.851562 6.910156 C 23.851562 6.941406 23.875 6.964844 23.90625 6.964844 " fill-opacity="1" fill-rule="nonzero"/><path fill="#ffffff" d="M 23.90625 7.226562 L 25.757812 7.226562 C 25.789062 7.226562 25.8125 7.203125 25.8125 7.171875 C 25.8125 7.140625 25.789062 7.117188 25.757812 7.117188 L 23.90625 7.117188 C 23.875 7.117188 23.851562 7.140625 23.851562 7.171875 C 23.851562 7.203125 23.875 7.226562 23.90625 7.226562 " fill-opacity="1" fill-rule="nonzero"/><path fill="#ffffff" d="M 24.636719 7.488281 L 25.757812 7.488281 C 25.789062 7.488281 25.8125 7.464844 25.8125 7.433594 C 25.8125 7.40625 25.789062 7.378906 25.757812 7.378906 L 24.636719 7.378906 C 24.605469 7.378906 24.578125 7.40625 24.578125 7.433594 C 24.578125 7.464844 24.605469 7.488281 24.636719 7.488281 " fill-opacity="1" fill-rule="nonzero"/><path fill="#312553" d="M 21.125 12.082031 C 21.125 12.285156 20.960938 12.449219 20.757812 12.449219 C 20.554688 12.449219 20.386719 12.285156 20.386719 12.082031 C 20.386719 11.882812 20.554688 11.71875 20.757812 11.71875 C 20.960938 11.71875 21.125 11.882812 21.125 12.082031 " fill-opacity="1" fill-rule="nonzero"/><path fill="#ffffff" d="M 20.621094 12.261719 L 20.621094 11.90625 C 20.621094 11.894531 20.636719 11.886719 20.644531 11.894531 L 20.960938 12.074219 C 20.972656 12.078125 20.972656 12.09375 20.960938 12.101562 L 20.644531 12.273438 C 20.632812 12.28125 20.621094 12.273438 20.621094 12.261719 " fill-opacity="1" fill-rule="nonzero"/><g clip-path="url(#e653592d11)"><path fill="#ffffff" d="M 29.035156 12.125 L 21.304688 12.125 C 21.273438 12.125 21.246094 12.097656 21.246094 12.066406 C 21.246094 12.035156 21.273438 12.011719 21.304688 12.011719 L 29.035156 12.011719 C 29.070312 12.011719 29.09375 12.035156 29.09375 12.066406 C 29.09375 12.097656 29.070312 12.125 29.035156 12.125 " fill-opacity="1" fill-rule="nonzero"/></g><path fill="#312553" d="M 22.296875 12.082031 C 22.296875 12.199219 22.203125 12.292969 22.085938 12.292969 C 21.972656 12.292969 21.878906 12.199219 21.878906 12.082031 C 21.878906 11.96875 21.972656 11.875 22.085938 11.875 C 22.203125 11.875 22.296875 11.96875 22.296875 12.082031 " fill-opacity="1" fill-rule="nonzero"/><path fill="#312553" d="M 22.066406 12.007812 L 21.304688 12.007812 C 21.273438 12.007812 21.246094 12.035156 21.246094 12.066406 C 21.246094 12.097656 21.273438 12.125 21.304688 12.125 L 22.066406 12.125 L 22.066406 12.007812 " fill-opacity="1" fill-rule="nonzero"/><g clip-path="url(#ed723edcfc)"><path fill="#fccc44" d="M 28.351562 11.503906 C 28.453125 11.546875 28.582031 11.75 28.640625 12.050781 C 28.683594 12.261719 28.699219 12.394531 28.699219 12.585938 C 28.691406 13.0625 28.511719 13.535156 28.46875 13.652344 C 28.238281 14.3125 26.59375 14.082031 26.441406 13.738281 C 26.40625 13.667969 26.453125 13.625 26.441406 13.34375 C 26.433594 13.148438 26.40625 13.011719 26.394531 12.933594 C 26.316406 12.488281 26.351562 11.496094 26.539062 11.449219 C 26.578125 11.4375 26.601562 11.472656 26.671875 11.527344 C 27.035156 11.792969 27.554688 11.789062 27.988281 11.613281 C 28.171875 11.539062 28.253906 11.457031 28.351562 11.503906 " fill-opacity="1" fill-rule="nonzero"/></g><path fill="#512618" d="M 27.660156 6.132812 C 27.625 6.121094 27.613281 6.101562 27.585938 6.09375 C 27.382812 6.023438 27.085938 6.152344 26.964844 6.226562 C 26.679688 6.40625 26.597656 6.730469 26.539062 6.953125 C 26.441406 7.324219 26.492188 7.625 26.503906 7.6875 C 26.542969 7.898438 26.621094 8.332031 27.007812 8.589844 C 27.328125 8.804688 27.675781 8.777344 27.78125 8.769531 C 27.910156 8.757812 28.09375 8.738281 28.28125 8.605469 C 28.34375 8.5625 28.515625 8.429688 28.597656 8.195312 C 28.683594 7.941406 28.648438 7.71875 28.597656 7.542969 C 28.539062 7.355469 28.402344 7.246094 28.289062 6.960938 C 28.214844 6.765625 28.28125 6.488281 27.917969 6.226562 C 27.769531 6.121094 27.726562 6.152344 27.660156 6.132812 " fill-opacity="1" fill-rule="nonzero"/><path fill="#512618" d="M 26.929688 6.269531 L 26.894531 6.289062 C 26.890625 6.292969 26.882812 6.296875 26.878906 6.300781 L 26.859375 6.3125 C 26.847656 6.324219 26.835938 6.332031 26.828125 6.339844 L 26.792969 6.367188 C 26.753906 6.40625 26.714844 6.449219 26.683594 6.496094 C 26.617188 6.589844 26.570312 6.691406 26.535156 6.796875 C 26.515625 6.851562 26.5 6.90625 26.484375 6.957031 C 26.476562 6.984375 26.46875 7.011719 26.464844 7.039062 C 26.460938 7.054688 26.457031 7.066406 26.453125 7.082031 L 26.445312 7.125 C 26.425781 7.234375 26.414062 7.347656 26.414062 7.460938 C 26.414062 7.515625 26.417969 7.574219 26.425781 7.628906 C 26.429688 7.65625 26.433594 7.6875 26.4375 7.714844 C 26.4375 7.726562 26.441406 7.742188 26.445312 7.753906 L 26.453125 7.796875 C 26.472656 7.90625 26.503906 8.015625 26.546875 8.121094 C 26.570312 8.171875 26.59375 8.222656 26.621094 8.273438 C 26.652344 8.320312 26.683594 8.367188 26.71875 8.414062 C 26.789062 8.5 26.875 8.574219 26.972656 8.632812 C 26.886719 8.5625 26.808594 8.484375 26.746094 8.394531 C 26.683594 8.304688 26.632812 8.203125 26.597656 8.101562 C 26.578125 8.050781 26.5625 8 26.546875 7.945312 C 26.535156 7.890625 26.523438 7.839844 26.515625 7.785156 L 26.507812 7.746094 C 26.503906 7.730469 26.503906 7.71875 26.5 7.703125 C 26.496094 7.675781 26.492188 7.648438 26.488281 7.621094 C 26.484375 7.570312 26.480469 7.515625 26.480469 7.460938 C 26.480469 7.433594 26.480469 7.40625 26.484375 7.378906 C 26.484375 7.363281 26.484375 7.351562 26.484375 7.335938 L 26.484375 7.316406 L 26.488281 7.296875 C 26.492188 7.242188 26.5 7.1875 26.507812 7.132812 L 26.515625 7.09375 C 26.515625 7.082031 26.519531 7.066406 26.523438 7.054688 C 26.527344 7.027344 26.535156 7 26.542969 6.972656 C 26.554688 6.917969 26.566406 6.867188 26.582031 6.8125 C 26.597656 6.761719 26.617188 6.710938 26.636719 6.660156 C 26.65625 6.609375 26.683594 6.558594 26.710938 6.511719 C 26.738281 6.464844 26.773438 6.421875 26.808594 6.378906 L 26.835938 6.351562 C 26.847656 6.339844 26.855469 6.332031 26.867188 6.320312 L 26.882812 6.308594 C 26.886719 6.304688 26.894531 6.300781 26.898438 6.292969 L 26.929688 6.269531 " fill-opacity="1" fill-rule="nonzero"/><path fill="#512618" d="M 28.367188 8.617188 C 28.421875 8.585938 28.46875 8.542969 28.515625 8.496094 C 28.558594 8.453125 28.597656 8.398438 28.628906 8.34375 C 28.664062 8.289062 28.6875 8.230469 28.707031 8.167969 C 28.726562 8.105469 28.738281 8.042969 28.746094 7.976562 C 28.753906 7.914062 28.753906 7.847656 28.746094 7.78125 C 28.742188 7.71875 28.726562 7.65625 28.710938 7.59375 C 28.707031 7.578125 28.703125 7.5625 28.699219 7.546875 L 28.691406 7.523438 C 28.6875 7.515625 28.683594 7.507812 28.683594 7.5 C 28.671875 7.46875 28.65625 7.4375 28.640625 7.40625 C 28.609375 7.351562 28.574219 7.296875 28.539062 7.246094 C 28.503906 7.195312 28.46875 7.140625 28.4375 7.089844 C 28.429688 7.078125 28.421875 7.0625 28.414062 7.050781 L 28.402344 7.027344 L 28.394531 7.007812 C 28.386719 6.996094 28.378906 6.980469 28.375 6.96875 L 28.359375 6.9375 L 28.355469 6.925781 C 28.332031 6.875 28.320312 6.8125 28.304688 6.75 C 28.300781 6.71875 28.292969 6.6875 28.28125 6.65625 C 28.273438 6.628906 28.261719 6.597656 28.25 6.566406 C 28.226562 6.503906 28.191406 6.449219 28.152344 6.394531 C 28.132812 6.371094 28.109375 6.347656 28.085938 6.324219 C 28.0625 6.300781 28.039062 6.28125 28.011719 6.261719 C 27.984375 6.242188 27.957031 6.226562 27.929688 6.207031 C 27.902344 6.191406 27.875 6.175781 27.847656 6.164062 C 27.816406 6.152344 27.785156 6.140625 27.75 6.136719 C 27.71875 6.132812 27.6875 6.140625 27.65625 6.132812 C 27.671875 6.136719 27.6875 6.140625 27.703125 6.144531 C 27.71875 6.144531 27.734375 6.148438 27.75 6.148438 C 27.78125 6.15625 27.808594 6.167969 27.835938 6.183594 C 27.890625 6.214844 27.9375 6.253906 27.984375 6.292969 C 28.007812 6.3125 28.03125 6.335938 28.050781 6.359375 C 28.070312 6.378906 28.089844 6.402344 28.109375 6.429688 C 28.140625 6.480469 28.171875 6.53125 28.191406 6.589844 C 28.210938 6.644531 28.222656 6.703125 28.234375 6.765625 C 28.238281 6.796875 28.246094 6.828125 28.253906 6.859375 C 28.261719 6.890625 28.269531 6.921875 28.28125 6.957031 L 28.285156 6.96875 L 28.300781 7 C 28.308594 7.015625 28.3125 7.03125 28.320312 7.042969 L 28.332031 7.066406 L 28.34375 7.085938 C 28.351562 7.101562 28.359375 7.117188 28.367188 7.128906 C 28.398438 7.1875 28.433594 7.238281 28.46875 7.292969 C 28.503906 7.34375 28.539062 7.394531 28.570312 7.445312 C 28.582031 7.472656 28.597656 7.5 28.605469 7.527344 C 28.609375 7.535156 28.613281 7.539062 28.613281 7.546875 L 28.621094 7.570312 C 28.625 7.582031 28.632812 7.597656 28.636719 7.613281 C 28.652344 7.671875 28.664062 7.730469 28.675781 7.789062 C 28.683594 7.851562 28.683594 7.910156 28.679688 7.972656 C 28.679688 8.03125 28.667969 8.09375 28.65625 8.152344 C 28.640625 8.210938 28.621094 8.269531 28.59375 8.324219 C 28.566406 8.378906 28.535156 8.433594 28.496094 8.484375 C 28.476562 8.507812 28.457031 8.53125 28.433594 8.554688 C 28.414062 8.578125 28.390625 8.597656 28.367188 8.617188 " fill-opacity="1" fill-rule="nonzero"/><path fill="#ec7d40" d="M 25.757812 9.503906 C 25.757812 9.476562 25.75 9.441406 25.457031 9.148438 C 25.3125 9.003906 25.289062 8.988281 25.246094 8.925781 C 25.171875 8.8125 25.175781 8.769531 25.09375 8.675781 C 25.015625 8.589844 24.816406 8.5 24.675781 8.445312 C 24.65625 8.433594 24.425781 8.324219 24.308594 8.289062 C 24.289062 8.28125 24.257812 8.273438 24.226562 8.296875 C 24.210938 8.308594 24.207031 8.339844 24.210938 8.34375 C 24.210938 8.359375 24.21875 8.375 24.234375 8.386719 C 24.289062 8.421875 24.449219 8.507812 24.515625 8.535156 C 24.578125 8.558594 24.632812 8.585938 24.625 8.703125 C 24.617188 8.769531 24.554688 8.796875 24.535156 8.910156 C 24.527344 8.941406 24.53125 8.953125 24.535156 8.964844 C 24.546875 9.003906 24.589844 9.011719 24.652344 9.0625 C 24.683594 9.089844 24.675781 9.089844 24.707031 9.117188 C 24.738281 9.144531 24.773438 9.164062 24.933594 9.230469 C 25.003906 9.261719 25.003906 9.261719 25.015625 9.265625 C 25.09375 9.3125 25.125 9.386719 25.140625 9.417969 C 25.234375 9.601562 25.296875 9.734375 25.386719 9.765625 C 25.519531 9.8125 25.753906 9.652344 25.757812 9.503906 " fill-opacity="1" fill-rule="nonzero"/><path fill="#ec7d40" d="M 25.074219 8.933594 C 24.867188 9.003906 24.808594 8.710938 24.800781 8.675781 C 24.785156 8.589844 24.808594 8.535156 24.757812 8.445312 C 24.730469 8.398438 24.714844 8.386719 24.691406 8.304688 C 24.671875 8.230469 24.6875 8.171875 24.695312 8.160156 C 24.710938 8.128906 24.738281 8.132812 24.757812 8.140625 C 24.777344 8.152344 24.785156 8.214844 24.785156 8.222656 C 24.800781 8.300781 24.902344 8.382812 25.054688 8.542969 C 25.21875 8.722656 25.144531 8.910156 25.074219 8.933594 " fill-opacity="1" fill-rule="nonzero"/><path fill="#ea9a26" d="M 25.589844 9.246094 C 25.558594 9.222656 25.515625 9.257812 25.363281 9.386719 C 25.203125 9.519531 25.171875 9.554688 25.179688 9.601562 C 25.183594 9.636719 25.210938 9.660156 25.230469 9.679688 C 25.320312 9.765625 25.304688 9.796875 25.441406 10.003906 C 25.601562 10.238281 25.746094 10.449219 26.015625 10.585938 C 26.050781 10.605469 26.070312 10.613281 26.097656 10.625 C 26.363281 10.714844 26.796875 10.625 26.90625 10.320312 C 27.300781 9.203125 26.90625 8.566406 26.6875 8.597656 C 26.453125 8.632812 26.265625 9.714844 26.25 9.792969 C 26.25 9.796875 25.988281 9.542969 25.589844 9.246094 " fill-opacity="1" fill-rule="nonzero"/><path fill="#f79556" d="M 24.414062 8.738281 C 24.421875 8.71875 24.4375 8.707031 24.453125 8.699219 C 24.414062 8.6875 24.386719 8.644531 24.394531 8.601562 C 24.402344 8.554688 24.445312 8.523438 24.488281 8.53125 C 24.601562 8.550781 24.714844 8.59375 24.804688 8.652344 C 24.839844 8.675781 24.851562 8.730469 24.828125 8.769531 C 24.828125 8.773438 24.824219 8.777344 24.820312 8.777344 C 24.855469 8.789062 24.878906 8.824219 24.878906 8.863281 C 24.875 8.90625 24.847656 8.9375 24.8125 8.945312 C 24.8125 8.945312 24.8125 8.949219 24.8125 8.949219 C 24.816406 8.992188 24.789062 9.027344 24.75 9.03125 C 24.714844 9.035156 24.679688 9.035156 24.648438 9.035156 C 24.582031 9.035156 24.519531 9.023438 24.460938 9.003906 C 24.425781 8.992188 24.402344 8.949219 24.414062 8.910156 C 24.421875 8.886719 24.441406 8.867188 24.464844 8.859375 C 24.460938 8.859375 24.453125 8.855469 24.449219 8.851562 C 24.40625 8.832031 24.390625 8.78125 24.414062 8.738281 " fill-opacity="1" fill-rule="nonzero"/><g clip-path="url(#2f8e8345d9)"><path fill="#fccc44" d="M 28.734375 9.292969 C 28.796875 9.085938 28.832031 8.984375 28.808594 8.839844 C 28.773438 8.640625 28.550781 8.4375 28.46875 8.382812 C 28.253906 8.246094 28.050781 8.179688 27.902344 8.128906 C 27.410156 7.953125 26.734375 8.296875 26.636719 8.449219 C 26.316406 8.941406 26.304688 9.460938 26.328125 9.691406 C 26.347656 9.90625 26.507812 10.207031 26.5625 11.054688 C 26.574219 11.253906 26.457031 11.472656 26.542969 11.632812 C 26.800781 12.101562 28.222656 11.996094 28.433594 11.753906 C 28.546875 11.628906 28.402344 11.570312 28.351562 11.035156 C 28.292969 10.457031 28.339844 10.253906 28.367188 10.0625 C 28.394531 9.867188 28.625 9.65625 28.734375 9.292969 " fill-opacity="1" fill-rule="nonzero"/></g><path fill="#ec7d40" d="M 27.863281 7.367188 C 27.929688 7.449219 27.824219 7.570312 27.835938 7.824219 C 27.847656 8.039062 27.898438 8.097656 27.867188 8.21875 C 27.8125 8.421875 27.644531 8.480469 27.59375 8.5 C 27.488281 8.535156 27.246094 8.578125 27.15625 8.46875 C 27.117188 8.421875 27.140625 8.390625 27.148438 8.296875 C 27.160156 8.035156 27.105469 7.949219 27.121094 7.769531 C 27.136719 7.566406 27.253906 7.378906 27.441406 7.320312 C 27.453125 7.316406 27.765625 7.246094 27.863281 7.367188 " fill-opacity="1" fill-rule="nonzero"/><path fill="#ffffff" d="M 27.976562 8.3125 C 27.957031 8.351562 27.933594 8.390625 27.910156 8.421875 C 27.882812 8.457031 27.855469 8.484375 27.824219 8.511719 C 27.792969 8.535156 27.757812 8.554688 27.722656 8.574219 C 27.707031 8.582031 27.6875 8.589844 27.667969 8.597656 C 27.660156 8.601562 27.648438 8.605469 27.640625 8.609375 C 27.628906 8.613281 27.621094 8.613281 27.609375 8.617188 C 27.53125 8.640625 27.449219 8.65625 27.367188 8.664062 C 27.328125 8.664062 27.285156 8.664062 27.246094 8.65625 C 27.207031 8.652344 27.164062 8.636719 27.132812 8.609375 C 27.140625 8.628906 27.15625 8.648438 27.175781 8.660156 C 27.191406 8.675781 27.210938 8.6875 27.234375 8.695312 C 27.277344 8.714844 27.320312 8.722656 27.367188 8.726562 C 27.414062 8.730469 27.457031 8.730469 27.503906 8.722656 C 27.523438 8.722656 27.546875 8.71875 27.570312 8.714844 C 27.589844 8.707031 27.613281 8.703125 27.632812 8.695312 C 27.644531 8.691406 27.65625 8.6875 27.667969 8.683594 C 27.675781 8.683594 27.6875 8.679688 27.699219 8.671875 C 27.71875 8.664062 27.742188 8.65625 27.761719 8.644531 C 27.800781 8.621094 27.839844 8.589844 27.871094 8.558594 C 27.902344 8.523438 27.925781 8.484375 27.945312 8.441406 C 27.960938 8.402344 27.972656 8.359375 27.976562 8.3125 " fill-opacity="1" fill-rule="nonzero"/><path fill="#f79556" d="M 26.832031 6.605469 C 26.761719 6.769531 26.777344 6.867188 26.792969 6.9375 C 26.796875 6.96875 26.8125 7.015625 26.808594 7.085938 C 26.804688 7.125 26.796875 7.152344 26.792969 7.171875 C 26.765625 7.269531 26.769531 7.355469 26.785156 7.414062 C 26.808594 7.535156 26.957031 7.894531 27.078125 7.964844 C 27.125 7.996094 27.171875 8 27.210938 8.003906 C 27.300781 8.011719 27.371094 7.988281 27.417969 7.972656 C 27.695312 7.867188 27.820312 7.570312 27.835938 7.535156 C 27.863281 7.46875 27.875 7.414062 27.882812 7.367188 C 27.929688 7.15625 28.085938 6.914062 27.921875 6.609375 C 27.875 6.519531 27.605469 6.175781 27.101562 6.34375 C 26.980469 6.386719 26.882812 6.476562 26.832031 6.605469 " fill-opacity="1" fill-rule="nonzero"/><path fill="#512618" d="M 27.597656 6.246094 C 27.597656 6.246094 27.589844 6.246094 27.582031 6.25 C 27.535156 6.269531 27.484375 6.351562 27.460938 6.457031 C 27.453125 6.507812 27.449219 6.546875 27.453125 6.597656 C 27.472656 6.835938 27.765625 6.867188 27.835938 7.101562 C 27.894531 7.296875 27.972656 7.199219 28 7.125 C 28.125 6.800781 28.175781 6.542969 27.722656 6.269531 C 27.695312 6.25 27.632812 6.238281 27.597656 6.246094 " fill-opacity="1" fill-rule="nonzero"/><path fill="#512618" d="M 27.503906 6.238281 C 27.453125 6.214844 27.15625 6.109375 26.84375 6.425781 C 26.671875 6.605469 26.6875 6.863281 26.695312 6.960938 C 26.699219 7.035156 26.75 7.085938 26.757812 7.085938 C 26.773438 7.085938 26.667969 6.804688 27.25 6.648438 C 27.414062 6.601562 27.472656 6.496094 27.484375 6.480469 C 27.53125 6.4375 27.597656 6.34375 27.566406 6.285156 C 27.550781 6.261719 27.527344 6.25 27.503906 6.238281 " fill-opacity="1" fill-rule="nonzero"/><path fill="#f79556" d="M 27.847656 7.09375 C 27.859375 7.082031 27.921875 7.027344 27.972656 7.046875 C 28.027344 7.066406 28.058594 7.121094 28.066406 7.167969 C 28.082031 7.261719 28.046875 7.414062 27.964844 7.484375 C 27.949219 7.5 27.914062 7.527344 27.875 7.523438 C 27.835938 7.515625 27.808594 7.488281 27.800781 7.476562 C 27.726562 7.382812 27.738281 7.1875 27.847656 7.09375 " fill-opacity="1" fill-rule="nonzero"/><g clip-path="url(#2abd8db990)"><path fill="#f79556" d="M 27.25 11.152344 C 27.375 11.109375 27.472656 11.101562 27.617188 11.070312 C 27.851562 11.019531 27.984375 10.988281 28.132812 10.886719 C 28.238281 10.816406 28.304688 10.792969 28.402344 10.753906 C 28.539062 10.703125 28.671875 10.753906 28.726562 10.773438 C 28.894531 10.835938 29.042969 10.949219 29.042969 11.078125 C 29.039062 11.128906 29.015625 11.167969 29.015625 11.167969 C 28.984375 11.21875 28.933594 11.242188 28.910156 11.25 C 28.488281 11.414062 28.234375 11.441406 28.234375 11.441406 C 27.847656 11.480469 27.902344 11.433594 27.625 11.476562 C 27.421875 11.503906 27.324219 11.519531 27.203125 11.492188 C 27.074219 11.460938 27.035156 11.375 27.042969 11.292969 C 27.050781 11.21875 27.148438 11.1875 27.25 11.152344 " fill-opacity="1" fill-rule="nonzero"/></g><g clip-path="url(#93ce8102b8)"><path fill="#fccc44" d="M 28.539062 10.636719 C 28.464844 10.652344 28.390625 10.675781 28.304688 10.757812 C 28.25 10.8125 28.167969 10.871094 28.089844 10.910156 C 28.0625 10.921875 28.027344 10.917969 28.023438 10.933594 C 28.015625 10.957031 28.066406 10.992188 28.097656 11.015625 C 28.253906 11.140625 28.34375 11.363281 28.28125 11.445312 C 28.265625 11.464844 28.242188 11.472656 28.246094 11.480469 C 28.253906 11.5 28.421875 11.472656 28.539062 11.445312 C 28.816406 11.382812 28.882812 11.375 29.027344 11.265625 C 29.117188 11.199219 29.164062 11.035156 29.121094 10.898438 C 29.050781 10.679688 28.746094 10.589844 28.539062 10.636719 " fill-opacity="1" fill-rule="nonzero"/></g><path fill="#ffffff" d="M 26.046875 11.316406 L 27.332031 11.316406 C 27.347656 11.316406 27.355469 11.296875 27.34375 11.285156 L 26.421875 10.445312 C 26.394531 10.421875 26.363281 10.410156 26.324219 10.410156 L 25.042969 10.410156 C 25.023438 10.410156 25.015625 10.429688 25.027344 10.441406 L 25.949219 11.28125 C 25.976562 11.304688 26.011719 11.316406 26.046875 11.316406 " fill-opacity="1" fill-rule="nonzero"/><g clip-path="url(#594c68db25)"><path fill="#fccc44" d="M 28.917969 8.992188 C 28.894531 8.917969 28.851562 8.808594 28.753906 8.714844 C 28.714844 8.679688 28.621094 8.59375 28.472656 8.578125 C 28.34375 8.5625 28.246094 8.613281 28.203125 8.632812 C 28.011719 8.730469 27.984375 9.265625 28.039062 9.511719 C 28.085938 9.734375 28.15625 9.925781 28.269531 10.238281 C 28.339844 10.425781 28.277344 10.804688 28.300781 10.867188 C 28.351562 11.011719 28.5 11.074219 28.625 11.128906 C 28.773438 11.195312 28.949219 11.320312 29.039062 11.269531 C 29.132812 11.214844 29.140625 11.066406 29.144531 10.917969 C 29.152344 10.410156 29.050781 10.109375 29.027344 9.691406 C 29.015625 9.53125 29.007812 9.277344 28.917969 8.992188 " fill-opacity="1" fill-rule="nonzero"/></g><path fill="#ea9a26" d="M 28.292969 10.769531 C 28.316406 10.664062 28.332031 10.554688 28.339844 10.445312 C 28.339844 10.390625 28.339844 10.335938 28.328125 10.277344 C 28.328125 10.269531 28.324219 10.261719 28.324219 10.253906 L 28.316406 10.234375 C 28.316406 10.226562 28.3125 10.21875 28.3125 10.214844 L 28.304688 10.195312 L 28.277344 10.117188 C 28.246094 10.015625 28.207031 9.914062 28.167969 9.8125 L 28.058594 9.507812 C 28.0625 9.617188 28.082031 9.726562 28.105469 9.832031 C 28.132812 9.9375 28.164062 10.042969 28.199219 10.144531 L 28.226562 10.21875 L 28.234375 10.238281 C 28.238281 10.246094 28.238281 10.253906 28.242188 10.257812 L 28.246094 10.273438 C 28.246094 10.28125 28.25 10.289062 28.25 10.292969 C 28.261719 10.339844 28.269531 10.394531 28.273438 10.445312 C 28.28125 10.550781 28.28125 10.660156 28.292969 10.769531 " fill-opacity="1" fill-rule="nonzero"/><path fill="#d65b5b" d="M 27.335938 7.707031 C 27.34375 7.703125 27.339844 7.695312 27.332031 7.691406 C 27.300781 7.6875 27.230469 7.679688 27.144531 7.679688 C 27.085938 7.679688 27.03125 7.6875 27.007812 7.691406 C 27.003906 7.691406 27 7.699219 27 7.703125 C 27.015625 7.734375 27.058594 7.808594 27.160156 7.808594 C 27.253906 7.808594 27.316406 7.738281 27.335938 7.707031 " fill-opacity="1" fill-rule="nonzero"/><path fill="#512618" d="M 27.015625 7.027344 C 27.007812 7.007812 27 6.992188 26.984375 6.980469 C 26.972656 6.964844 26.960938 6.953125 26.941406 6.941406 C 26.910156 6.921875 26.871094 6.917969 26.832031 6.917969 C 26.824219 6.921875 26.8125 6.921875 26.804688 6.921875 L 26.789062 6.921875 C 26.785156 6.925781 26.78125 6.925781 26.777344 6.925781 C 26.757812 6.933594 26.738281 6.941406 26.726562 6.953125 C 26.695312 6.972656 26.675781 7.003906 26.652344 7.027344 L 26.65625 7.03125 C 26.671875 7.023438 26.683594 7.011719 26.699219 7.003906 C 26.710938 6.996094 26.726562 6.984375 26.742188 6.980469 C 26.753906 6.972656 26.769531 6.96875 26.785156 6.96875 L 26.804688 6.96875 C 26.8125 6.96875 26.820312 6.96875 26.828125 6.972656 C 26.835938 6.972656 26.84375 6.972656 26.851562 6.976562 C 26.859375 6.980469 26.867188 6.980469 26.871094 6.984375 C 26.886719 6.988281 26.898438 6.996094 26.914062 7 L 26.960938 7.015625 C 26.976562 7.019531 26.992188 7.027344 27.007812 7.03125 L 27.015625 7.027344 " fill-opacity="1" fill-rule="nonzero"/><path fill="#512618" d="M 27.675781 6.976562 C 27.648438 6.953125 27.609375 6.929688 27.570312 6.917969 C 27.53125 6.902344 27.488281 6.894531 27.445312 6.894531 C 27.433594 6.894531 27.425781 6.898438 27.414062 6.898438 C 27.402344 6.898438 27.390625 6.902344 27.378906 6.902344 C 27.359375 6.90625 27.335938 6.914062 27.320312 6.929688 C 27.28125 6.953125 27.253906 6.988281 27.246094 7.035156 L 27.25 7.039062 C 27.292969 7.023438 27.324219 7.007812 27.355469 6.996094 C 27.375 6.988281 27.386719 6.984375 27.402344 6.976562 C 27.410156 6.972656 27.417969 6.96875 27.429688 6.964844 C 27.4375 6.960938 27.445312 6.960938 27.453125 6.957031 C 27.46875 6.953125 27.488281 6.953125 27.507812 6.953125 C 27.523438 6.949219 27.542969 6.953125 27.5625 6.953125 C 27.597656 6.957031 27.636719 6.96875 27.671875 6.984375 L 27.675781 6.976562 " fill-opacity="1" fill-rule="nonzero"/><path fill="#e6e6e6" d="M 27.523438 7.167969 C 27.523438 7.179688 27.488281 7.203125 27.394531 7.195312 C 27.355469 7.1875 27.3125 7.171875 27.316406 7.152344 C 27.320312 7.132812 27.347656 7.101562 27.386719 7.097656 C 27.449219 7.097656 27.527344 7.148438 27.523438 7.167969 " fill-opacity="1" fill-rule="nonzero"/><path fill="#512618" d="M 27.453125 7.136719 C 27.4375 7.082031 27.339844 7.089844 27.351562 7.164062 C 27.367188 7.242188 27.480469 7.226562 27.453125 7.136719 " fill-opacity="1" fill-rule="nonzero"/><path fill="#512618" d="M 27.304688 7.167969 C 27.316406 7.15625 27.328125 7.148438 27.339844 7.144531 C 27.351562 7.140625 27.363281 7.140625 27.371094 7.140625 C 27.394531 7.140625 27.417969 7.148438 27.445312 7.15625 C 27.472656 7.160156 27.5 7.167969 27.527344 7.171875 C 27.542969 7.175781 27.558594 7.175781 27.574219 7.171875 C 27.582031 7.171875 27.589844 7.167969 27.597656 7.164062 C 27.605469 7.160156 27.609375 7.152344 27.613281 7.144531 C 27.605469 7.148438 27.601562 7.148438 27.59375 7.148438 C 27.585938 7.148438 27.582031 7.148438 27.574219 7.144531 C 27.5625 7.140625 27.550781 7.136719 27.539062 7.128906 C 27.515625 7.117188 27.488281 7.109375 27.460938 7.101562 C 27.429688 7.09375 27.398438 7.089844 27.367188 7.097656 C 27.347656 7.101562 27.332031 7.113281 27.324219 7.125 C 27.3125 7.136719 27.304688 7.152344 27.304688 7.167969 " fill-opacity="1" fill-rule="nonzero"/><path fill="#e6e6e6" d="M 26.980469 7.183594 C 26.980469 7.191406 26.949219 7.214844 26.867188 7.203125 C 26.828125 7.199219 26.8125 7.183594 26.816406 7.167969 C 26.816406 7.152344 26.824219 7.128906 26.859375 7.125 C 26.914062 7.125 26.984375 7.167969 26.980469 7.183594 " fill-opacity="1" fill-rule="nonzero"/><path fill="#512618" d="M 26.925781 7.152344 C 26.910156 7.101562 26.820312 7.113281 26.832031 7.179688 C 26.84375 7.246094 26.949219 7.234375 26.925781 7.152344 " fill-opacity="1" fill-rule="nonzero"/><path fill="#512618" d="M 26.78125 7.167969 C 26.792969 7.164062 26.804688 7.15625 26.816406 7.152344 C 26.824219 7.152344 26.835938 7.148438 26.84375 7.148438 C 26.859375 7.148438 26.875 7.15625 26.894531 7.160156 C 26.914062 7.167969 26.933594 7.179688 26.960938 7.183594 C 26.972656 7.1875 26.984375 7.191406 27 7.1875 C 27.011719 7.183594 27.027344 7.175781 27.03125 7.164062 C 27.019531 7.167969 27.011719 7.164062 27 7.160156 C 26.992188 7.15625 26.984375 7.152344 26.976562 7.144531 C 26.957031 7.136719 26.9375 7.121094 26.914062 7.113281 C 26.902344 7.109375 26.890625 7.105469 26.875 7.101562 C 26.863281 7.101562 26.847656 7.101562 26.832031 7.109375 C 26.820312 7.113281 26.808594 7.121094 26.796875 7.132812 C 26.789062 7.144531 26.785156 7.15625 26.78125 7.167969 " fill-opacity="1" fill-rule="nonzero"/><path fill="#ffffff" d="M 28.097656 11.015625 C 28.066406 10.992188 28.015625 10.957031 28.023438 10.933594 C 28.027344 10.917969 28.0625 10.921875 28.089844 10.910156 C 28.167969 10.871094 28.25 10.8125 28.304688 10.761719 C 28.308594 10.753906 28.3125 10.75 28.320312 10.746094 C 28.523438 10.878906 28.75 11.117188 28.789062 11.386719 C 28.730469 11.402344 28.652344 11.421875 28.539062 11.445312 C 28.421875 11.472656 28.253906 11.5 28.246094 11.480469 C 28.246094 11.472656 28.265625 11.464844 28.28125 11.445312 C 28.34375 11.363281 28.253906 11.140625 28.097656 11.015625 " fill-opacity="1" fill-rule="nonzero"/><path fill="#ffffff" d="M 25.363281 9.386719 C 25.515625 9.257812 25.558594 9.222656 25.589844 9.246094 C 25.671875 9.304688 25.746094 9.363281 25.816406 9.417969 C 25.695312 9.609375 25.507812 9.753906 25.34375 9.839844 C 25.304688 9.769531 25.289062 9.734375 25.230469 9.679688 C 25.210938 9.660156 25.183594 9.636719 25.179688 9.601562 C 25.171875 9.554688 25.203125 9.519531 25.363281 9.386719 " fill-opacity="1" fill-rule="nonzero"/><path fill="#312553" d="M 26.027344 11.363281 L 27.308594 11.363281 C 27.328125 11.363281 27.335938 11.339844 27.324219 11.328125 L 26.402344 10.492188 C 26.375 10.46875 26.339844 10.453125 26.304688 10.453125 L 25.019531 10.453125 C 25.003906 10.453125 24.996094 10.476562 25.007812 10.488281 L 25.929688 11.324219 C 25.953125 11.351562 25.988281 11.363281 26.027344 11.363281 " fill-opacity="1" fill-rule="nonzero"/><path fill="#f79556" d="M 27.363281 11.191406 C 27.308594 11.167969 27.234375 11.121094 27.179688 11.039062 C 27.144531 10.980469 27.125 10.953125 27.109375 10.933594 C 27.03125 10.835938 26.941406 10.78125 26.894531 10.75 C 26.824219 10.710938 26.828125 10.714844 26.71875 10.652344 C 26.714844 10.648438 26.695312 10.640625 26.679688 10.648438 C 26.664062 10.65625 26.636719 10.730469 26.691406 10.78125 C 26.726562 10.816406 26.753906 10.832031 26.796875 10.859375 C 26.804688 10.863281 26.84375 10.890625 26.851562 10.90625 C 26.863281 10.921875 26.898438 10.957031 26.898438 10.992188 C 26.902344 11.035156 26.886719 11.0625 26.84375 11.066406 C 26.8125 11.070312 26.789062 11.058594 26.777344 11.046875 C 26.691406 10.996094 26.613281 10.945312 26.574219 10.914062 C 26.574219 10.914062 26.464844 10.84375 26.300781 10.8125 C 26.296875 10.8125 26.246094 10.796875 26.234375 10.84375 C 26.234375 10.855469 26.230469 10.867188 26.246094 10.882812 C 26.277344 10.917969 26.320312 10.933594 26.320312 10.933594 C 26.410156 10.972656 26.507812 11.082031 26.5 11.09375 C 26.5 11.097656 26.472656 11.085938 26.417969 11.058594 C 26.367188 11.035156 26.234375 10.953125 26.167969 10.921875 C 26.132812 10.902344 26.082031 10.878906 26.007812 10.886719 C 25.976562 10.890625 25.949219 10.90625 25.945312 10.921875 C 25.941406 10.945312 25.957031 10.949219 25.949219 10.960938 C 25.945312 10.972656 25.941406 10.972656 25.933594 10.980469 C 25.914062 11.003906 25.960938 11.03125 25.976562 11.039062 C 26.074219 11.085938 26.214844 11.1875 26.3125 11.226562 C 26.414062 11.265625 26.410156 11.242188 26.53125 11.289062 C 26.605469 11.316406 26.605469 11.324219 26.714844 11.371094 C 26.855469 11.429688 26.953125 11.460938 26.976562 11.46875 C 27.078125 11.5 27.132812 11.515625 27.195312 11.515625 C 27.265625 11.511719 27.367188 11.511719 27.421875 11.441406 C 27.472656 11.371094 27.464844 11.253906 27.410156 11.210938 C 27.394531 11.199219 27.390625 11.207031 27.363281 11.191406 " fill-opacity="1" fill-rule="nonzero"/><path fill="#7764a6" d="M 16.996094 21.535156 L 24.820312 21.53125 L 24.820312 21.167969 L 17.171875 21.167969 C 17.117188 21.167969 16.933594 21.414062 16.933594 21.414062 C 16.890625 21.460938 16.925781 21.53125 16.996094 21.535156 " fill-opacity="1" fill-rule="nonzero"/><g clip-path="url(#e018d8d759)"><path fill="#7764a6" d="M 21.613281 21.535156 L 27.808594 21.53125 C 28.070312 21.53125 28.300781 21.359375 28.371094 21.109375 L 29.832031 15.949219 C 29.882812 15.777344 29.75 15.605469 29.570312 15.605469 L 23.304688 15.605469 C 23.042969 15.605469 22.808594 15.78125 22.738281 16.03125 L 21.296875 21.121094 C 21.238281 21.328125 21.394531 21.535156 21.613281 21.535156 " fill-opacity="1" fill-rule="nonzero"/><path fill="#282444" d="M 21.613281 21.535156 L 27.832031 21.53125 C 28.089844 21.53125 28.316406 21.363281 28.386719 21.113281 L 29.839844 15.984375 C 29.875 15.863281 29.78125 15.742188 29.65625 15.742188 L 23.4375 15.742188 C 23.179688 15.742188 22.953125 15.914062 22.882812 16.160156 L 21.429688 21.292969 C 21.394531 21.414062 21.488281 21.535156 21.613281 21.535156 " fill-opacity="1" fill-rule="nonzero"/></g></svg>