<svg xmlns="http://www.w3.org/2000/svg" xmlns:xlink="http://www.w3.org/1999/xlink" width="40" zoomAndPan="magnify" viewBox="0 0 30 30.000001" height="40" preserveAspectRatio="xMidYMid meet" version="1.0"><defs><clipPath id="cab4bf2b56"><path d="M 0.484375 0 L 29.515625 0 L 29.515625 29.03125 L 0.484375 29.03125 Z M 0.484375 0 " clip-rule="nonzero"/></clipPath><clipPath id="2dee0e6a02"><path d="M 26 7 L 29.515625 7 L 29.515625 11 L 26 11 Z M 26 7 " clip-rule="nonzero"/></clipPath><clipPath id="2a4dc77bc7"><path d="M 26 7 L 29.515625 7 L 29.515625 10 L 26 10 Z M 26 7 " clip-rule="nonzero"/></clipPath><clipPath id="6fd3d5d3cf"><path d="M 22 20 L 24 20 L 24 21.394531 L 22 21.394531 Z M 22 20 " clip-rule="nonzero"/></clipPath><clipPath id="d48777a790"><path d="M 24.613281 20.3125 L 26.09375 20.3125 L 26.09375 21.363281 L 24.613281 21.363281 Z M 24.613281 20.3125 " clip-rule="nonzero"/></clipPath><clipPath id="26a7666ddc"><path d="M 7 4.699219 L 9 4.699219 L 9 9 L 7 9 Z M 7 4.699219 " clip-rule="nonzero"/></clipPath><clipPath id="0d2720f93d"><path d="M 7 20 L 12 20 L 12 21.394531 L 7 21.394531 Z M 7 20 " clip-rule="nonzero"/></clipPath><clipPath id="7cb45c0ace"><path d="M 7 21 L 12 21 L 12 21.394531 L 7 21.394531 Z M 7 21 " clip-rule="nonzero"/></clipPath><clipPath id="a35404c0d0"><path d="M 14 20 L 18 20 L 18 21.394531 L 14 21.394531 Z M 14 20 " clip-rule="nonzero"/></clipPath><clipPath id="12fb890506"><path d="M 14 21 L 19 21 L 19 21.394531 L 14 21.394531 Z M 14 21 " clip-rule="nonzero"/></clipPath><clipPath id="5ce24cd10d"><path d="M 0.484375 12 L 2 12 L 2 14 L 0.484375 14 Z M 0.484375 12 " clip-rule="nonzero"/></clipPath><clipPath id="4abc8d62c9"><path d="M 1 20 L 5 20 L 5 21.394531 L 1 21.394531 Z M 1 20 " clip-rule="nonzero"/></clipPath><clipPath id="dc5e9bcd51"><path d="M 1 21 L 5 21 L 5 21.394531 L 1 21.394531 Z M 1 21 " clip-rule="nonzero"/></clipPath><clipPath id="a82ec17ce6"><path d="M 0.484375 9 L 3 9 L 3 13 L 0.484375 13 Z M 0.484375 9 " clip-rule="nonzero"/></clipPath><clipPath id="235fb7f33e"><path d="M 0.484375 11 L 4 11 L 4 13 L 0.484375 13 Z M 0.484375 11 " clip-rule="nonzero"/></clipPath></defs><g clip-path="url(#cab4bf2b56)"><path fill="#ffffff" d="M 0.484375 0 L 29.515625 0 L 29.515625 29.03125 L 0.484375 29.03125 Z M 0.484375 0 " fill-opacity="1" fill-rule="nonzero"/><path fill="#ffffff" d="M 0.484375 0 L 29.515625 0 L 29.515625 29.03125 L 0.484375 29.03125 Z M 0.484375 0 " fill-opacity="1" fill-rule="nonzero"/></g><g clip-path="url(#2dee0e6a02)"><path fill="#955147" d="M 29.445312 9.238281 L 28.066406 10.144531 C 28.023438 10.171875 27.96875 10.160156 27.941406 10.117188 L 26.691406 8.160156 C 26.664062 8.117188 26.675781 8.058594 26.71875 8.03125 L 28.097656 7.125 C 28.140625 7.097656 28.195312 7.109375 28.222656 7.152344 L 29.472656 9.109375 C 29.5 9.152344 29.488281 9.210938 29.445312 9.238281 " fill-opacity="1" fill-rule="nonzero"/></g><g clip-path="url(#2a4dc77bc7)"><path fill="#fdecde" d="M 29.261719 9.195312 L 28.105469 9.957031 C 28.0625 9.984375 28.003906 9.972656 27.976562 9.929688 L 26.875 8.203125 C 26.847656 8.160156 26.859375 8.101562 26.902344 8.074219 L 28.058594 7.3125 C 28.101562 7.285156 28.160156 7.296875 28.1875 7.339844 L 29.289062 9.066406 C 29.316406 9.109375 29.304688 9.167969 29.261719 9.195312 " fill-opacity="1" fill-rule="nonzero"/></g><path fill="#b39899" d="M 27.859375 7.324219 C 27.933594 7.441406 27.964844 7.535156 27.5625 7.816406 C 27.191406 8.074219 27.070312 8.007812 27 7.890625 C 26.925781 7.777344 27.058594 7.558594 27.296875 7.402344 C 27.535156 7.242188 27.785156 7.210938 27.859375 7.324219 " fill-opacity="1" fill-rule="nonzero"/><g clip-path="url(#6fd3d5d3cf)"><path fill="#2d253e" d="M 23.871094 21.15625 C 23.816406 21.261719 22.460938 21.394531 22.429688 21.234375 C 22.375 20.949219 22.929688 20.8125 23.089844 20.734375 C 23.132812 20.710938 23.226562 20.660156 23.261719 20.609375 C 23.351562 20.464844 23.40625 20.261719 23.40625 20.261719 L 23.871094 20.410156 C 23.871094 20.410156 23.875 20.457031 23.882812 20.527344 C 23.894531 20.71875 23.914062 21.078125 23.871094 21.15625 " fill-opacity="1" fill-rule="nonzero"/></g><path fill="#f0a77f" d="M 23.882812 20.527344 C 23.789062 20.566406 23.683594 20.605469 23.585938 20.621094 C 23.433594 20.640625 23.332031 20.628906 23.261719 20.609375 C 23.351562 20.464844 23.40625 20.261719 23.40625 20.261719 L 23.871094 20.410156 C 23.871094 20.410156 23.875 20.457031 23.882812 20.527344 " fill-opacity="1" fill-rule="nonzero"/><g clip-path="url(#d48777a790)"><path fill="#2d253e" d="M 26.066406 21.210938 C 26.007812 21.320312 24.65625 21.449219 24.625 21.289062 C 24.570312 21.003906 25.140625 20.863281 25.300781 20.785156 C 25.34375 20.765625 25.421875 20.714844 25.453125 20.664062 C 25.546875 20.523438 25.597656 20.316406 25.597656 20.316406 L 26.066406 20.464844 C 26.066406 20.464844 26.070312 20.511719 26.074219 20.585938 C 26.085938 20.773438 26.105469 21.136719 26.066406 21.210938 " fill-opacity="1" fill-rule="nonzero"/></g><path fill="#f0a77f" d="M 26.074219 20.585938 C 25.984375 20.625 25.878906 20.660156 25.78125 20.675781 C 25.628906 20.695312 25.523438 20.683594 25.453125 20.664062 C 25.546875 20.523438 25.597656 20.316406 25.597656 20.316406 L 26.050781 20.386719 C 26.050781 20.386719 26.070312 20.511719 26.074219 20.585938 " fill-opacity="1" fill-rule="nonzero"/><path fill="#ca5043" d="M 26.027344 20.460938 L 25.460938 20.460938 C 25.398438 20.460938 25.347656 20.417969 25.339844 20.355469 L 24.691406 15.460938 C 24.683594 15.398438 24.59375 15.394531 24.585938 15.460938 C 24.527344 16.019531 24.453125 16.554688 24.390625 17.320312 C 24.335938 17.945312 24.078125 19.871094 24.023438 20.355469 C 24.015625 20.414062 23.964844 20.460938 23.902344 20.460938 L 23.378906 20.460938 C 23.3125 20.460938 23.261719 20.410156 23.261719 20.34375 C 23.25 19.847656 23.222656 17.925781 23.261719 17.085938 C 23.285156 16.550781 23.332031 14.828125 23.425781 13.890625 C 23.449219 13.644531 23.496094 13.546875 23.507812 13.433594 C 23.515625 13.375 23.5625 13.328125 23.621094 13.324219 L 24.851562 13.265625 L 25.667969 13.222656 C 25.730469 13.21875 25.785156 13.269531 25.792969 13.335938 C 25.804688 13.472656 25.824219 13.722656 25.847656 14.035156 C 25.851562 14.054688 25.851562 14.074219 25.851562 14.097656 C 25.949219 15.03125 26.023438 16.476562 26.035156 17.332031 C 26.042969 18.019531 26.125 19.839844 26.148438 20.335938 C 26.152344 20.402344 26.097656 20.460938 26.027344 20.460938 " fill-opacity="1" fill-rule="nonzero"/><path fill="#f0a77f" d="M 27.085938 9.871094 C 27.085938 9.851562 27.164062 9.496094 27.164062 9.496094 C 27.164062 9.496094 27.148438 9.300781 27.148438 9.15625 C 27.148438 9.011719 27.21875 8.863281 27.335938 8.78125 C 27.472656 8.6875 27.648438 8.691406 27.621094 8.773438 C 27.597656 8.859375 27.417969 8.992188 27.417969 8.992188 C 27.417969 8.992188 27.539062 9.15625 27.539062 9.335938 C 27.539062 9.433594 27.710938 9.660156 27.679688 9.792969 C 27.660156 9.867188 27.550781 10 27.496094 10.097656 C 27.445312 10.199219 27.382812 10.335938 27.359375 10.335938 C 27.335938 10.335938 27.085938 9.871094 27.085938 9.871094 " fill-opacity="1" fill-rule="nonzero"/><path fill="#f0a77f" d="M 21.652344 10.171875 C 21.652344 10.171875 21.480469 9.929688 21.476562 9.902344 C 21.472656 9.878906 21.480469 9.691406 21.457031 9.480469 C 21.429688 9.269531 20.9375 9.246094 20.832031 9.246094 C 20.722656 9.246094 20.015625 9.285156 20 9.34375 C 19.980469 9.402344 19.976562 9.457031 20.066406 9.464844 C 20.152344 9.476562 20.582031 9.546875 20.636719 9.554688 C 20.6875 9.5625 20.648438 9.753906 20.726562 9.890625 C 20.800781 10.019531 20.980469 10.160156 21.070312 10.171875 C 21.144531 10.179688 21.359375 10.628906 21.359375 10.628906 L 21.691406 10.40625 L 21.652344 10.171875 " fill-opacity="1" fill-rule="nonzero"/><path fill="#2d253e" d="M 23.09375 6.855469 C 23.089844 6.863281 23.304688 7.867188 23.304688 7.867188 L 23.601562 7.039062 C 23.601562 7.039062 23.574219 6.746094 23.519531 6.75 C 23.464844 6.75 23.09375 6.855469 23.09375 6.855469 " fill-opacity="1" fill-rule="nonzero"/><path fill="#2d253e" d="M 24.722656 6.761719 C 24.722656 6.761719 24.753906 7.097656 24.738281 7.320312 C 24.730469 7.457031 24.664062 7.816406 24.605469 8.003906 C 24.515625 8.28125 24.476562 8.207031 24.421875 8.210938 C 24.363281 8.214844 24.355469 8.058594 24.355469 8.058594 L 24.328125 6.820312 L 24.722656 6.761719 " fill-opacity="1" fill-rule="nonzero"/><path fill="#f0a77f" d="M 24.785156 8.996094 L 24.1875 9.15625 L 24.09375 9.082031 L 23.957031 8.691406 L 23.832031 8.324219 C 23.832031 8.324219 24.066406 7.636719 24.101562 7.625 C 24.136719 7.609375 24.449219 7.785156 24.449219 7.785156 L 24.558594 8.171875 L 24.785156 8.996094 " fill-opacity="1" fill-rule="nonzero"/><path fill="#e69060" d="M 24.53125 8.078125 C 24.527344 8.140625 24.472656 8.300781 24.453125 8.339844 C 24.375 8.472656 24.296875 8.570312 24.148438 8.640625 C 24.085938 8.667969 24.019531 8.683594 23.957031 8.691406 L 23.832031 8.324219 C 23.832031 8.324219 24.066406 7.636719 24.101562 7.625 C 24.136719 7.609375 24.453125 7.785156 24.453125 7.785156 L 24.53125 8.078125 " fill-opacity="1" fill-rule="nonzero"/><path fill="#f0a77f" d="M 24.722656 7.589844 C 24.664062 7.710938 24.523438 7.789062 24.523438 7.789062 C 24.523438 7.789062 24.515625 7.835938 24.476562 8 C 24.433594 8.164062 24.070312 8.515625 23.859375 8.539062 C 23.644531 8.5625 23.40625 8.167969 23.363281 8.0625 C 23.316406 7.957031 23.226562 7.699219 23.226562 7.472656 C 23.226562 7.414062 23.226562 7.308594 23.226562 7.234375 C 23.226562 7.199219 23.226562 7.167969 23.226562 7.160156 C 23.261719 6.847656 23.292969 6.867188 23.46875 6.789062 C 23.59375 6.734375 23.558594 6.597656 23.710938 6.527344 C 23.859375 6.460938 24.152344 6.582031 24.367188 6.765625 C 24.582031 6.949219 24.53125 7.316406 24.53125 7.316406 C 24.53125 7.316406 24.582031 7.195312 24.703125 7.230469 C 24.773438 7.25 24.777344 7.46875 24.722656 7.589844 " fill-opacity="1" fill-rule="nonzero"/><path fill="#2d253e" d="M 23.378906 7.492188 L 23.414062 7.488281 C 23.429688 7.484375 23.441406 7.472656 23.4375 7.457031 L 23.429688 7.371094 C 23.429688 7.359375 23.417969 7.347656 23.402344 7.347656 L 23.367188 7.351562 C 23.351562 7.351562 23.339844 7.367188 23.34375 7.382812 L 23.351562 7.46875 C 23.351562 7.480469 23.367188 7.492188 23.378906 7.492188 " fill-opacity="1" fill-rule="nonzero"/><path fill="#2d253e" d="M 23.917969 7.417969 L 23.953125 7.414062 C 23.964844 7.414062 23.976562 7.398438 23.976562 7.386719 L 23.964844 7.300781 C 23.964844 7.285156 23.953125 7.273438 23.9375 7.277344 L 23.902344 7.28125 C 23.886719 7.28125 23.878906 7.292969 23.878906 7.308594 L 23.886719 7.394531 C 23.890625 7.410156 23.902344 7.417969 23.917969 7.417969 " fill-opacity="1" fill-rule="nonzero"/><path fill="#2d253e" d="M 23.410156 7.175781 C 23.402344 7.195312 23.320312 7.210938 23.277344 7.222656 C 23.265625 7.226562 23.238281 7.230469 23.226562 7.234375 C 23.226562 7.199219 23.226562 7.167969 23.226562 7.160156 C 23.234375 7.15625 23.257812 7.152344 23.261719 7.152344 C 23.34375 7.132812 23.375 7.128906 23.40625 7.140625 C 23.414062 7.144531 23.417969 7.15625 23.410156 7.175781 " fill-opacity="1" fill-rule="nonzero"/><path fill="#2d253e" d="M 23.792969 7.085938 C 23.820312 7.0625 23.855469 7.054688 23.9375 7.0625 C 24.019531 7.066406 24.074219 7.082031 24.066406 7.109375 C 24.058594 7.128906 23.984375 7.136719 23.9375 7.132812 C 23.894531 7.128906 23.8125 7.132812 23.796875 7.117188 C 23.785156 7.101562 23.789062 7.089844 23.792969 7.085938 " fill-opacity="1" fill-rule="nonzero"/><path fill="#e69060" d="M 23.644531 7.84375 C 23.640625 7.84375 23.636719 7.84375 23.632812 7.839844 C 23.574219 7.816406 23.472656 7.765625 23.496094 7.707031 C 23.511719 7.664062 23.597656 7.488281 23.601562 7.480469 C 23.609375 7.46875 23.625 7.464844 23.640625 7.46875 C 23.652344 7.476562 23.65625 7.492188 23.652344 7.507812 C 23.625 7.558594 23.558594 7.691406 23.546875 7.726562 C 23.550781 7.734375 23.601562 7.769531 23.65625 7.789062 C 23.667969 7.796875 23.675781 7.8125 23.667969 7.824219 C 23.664062 7.835938 23.65625 7.84375 23.644531 7.84375 " fill-opacity="1" fill-rule="nonzero"/><path fill="#d65345" d="M 24.003906 7.957031 C 24.003906 8 23.949219 8.125 23.8125 8.164062 C 23.664062 8.207031 23.546875 8.101562 23.550781 8.039062 C 23.554688 7.992188 23.996094 7.917969 24.003906 7.949219 C 24.003906 7.953125 24.003906 7.953125 24.003906 7.957031 " fill-opacity="1" fill-rule="nonzero"/><path fill="#ffffff" d="M 24.003906 7.957031 C 23.949219 8 23.875 8.042969 23.777344 8.058594 C 23.695312 8.070312 23.613281 8.0625 23.550781 8.039062 C 23.554688 7.992188 23.996094 7.917969 24.003906 7.949219 C 24.003906 7.953125 24.003906 7.953125 24.003906 7.957031 " fill-opacity="1" fill-rule="nonzero"/><path fill="#2d253e" d="M 24.53125 7.316406 C 24.507812 7.363281 24.484375 7.511719 24.457031 7.511719 C 24.429688 7.507812 24.425781 7.183594 24.394531 7.058594 C 24.328125 6.824219 24.1875 6.769531 24.1875 6.769531 C 24.1875 6.769531 23.851562 6.71875 23.582031 6.761719 C 23.363281 6.796875 23.050781 7.015625 22.855469 6.738281 C 22.65625 6.457031 22.832031 6.433594 22.992188 6.441406 C 23.171875 6.449219 23.546875 6.128906 23.957031 6.132812 C 24.367188 6.140625 24.570312 6.285156 24.679688 6.589844 C 24.804688 6.933594 24.609375 7.148438 24.53125 7.316406 " fill-opacity="1" fill-rule="nonzero"/><path fill="#fdecde" d="M 25.445312 13.25 C 25.445312 13.25 24.9375 13.429688 24.5625 13.449219 C 23.953125 13.484375 23.832031 13.378906 23.832031 13.378906 L 23.84375 11.910156 L 23.859375 8.953125 L 23.992188 8.792969 C 23.992188 8.792969 24.175781 8.882812 24.355469 8.839844 C 24.539062 8.800781 24.679688 8.621094 24.679688 8.621094 L 25.1875 8.996094 L 25.363281 11.878906 L 25.445312 13.25 " fill-opacity="1" fill-rule="nonzero"/><path fill="#f2d9c4" d="M 25.445312 13.25 C 25.445312 13.25 24.9375 13.429688 24.5625 13.449219 C 23.953125 13.484375 23.832031 13.378906 23.832031 13.378906 L 23.84375 11.910156 L 23.859375 11.921875 C 23.859375 11.949219 24.097656 12.285156 24.527344 12.273438 C 24.90625 12.265625 25.210938 11.703125 25.210938 11.703125 C 25.214844 11.699219 25.222656 11.703125 25.222656 11.707031 L 25.445312 13.25 " fill-opacity="1" fill-rule="nonzero"/><path fill="#2d253e" d="M 23.4375 13.554688 C 23.445312 13.574219 23.761719 13.742188 24.46875 13.695312 C 25.171875 13.652344 25.632812 13.476562 25.632812 13.476562 L 25.59375 13.167969 C 25.59375 13.167969 25.050781 13.417969 24.570312 13.4375 C 23.753906 13.46875 23.523438 13.355469 23.523438 13.355469 L 23.410156 13.550781 L 23.4375 13.554688 " fill-opacity="1" fill-rule="nonzero"/><path fill="#ca5043" d="M 23.953125 14.199219 C 23.894531 14.199219 23.242188 13.789062 23.210938 13.722656 C 23.179688 13.65625 23.226562 12.5 23.226562 12.367188 C 23.226562 11.984375 23.253906 11.28125 23.253906 11.28125 C 23.253906 11.28125 22.816406 12.167969 22.625 12.21875 C 22.554688 12.238281 22.121094 11.957031 21.914062 11.703125 C 21.679688 11.421875 21.320312 10.875 21.183594 10.691406 C 21.164062 10.664062 21.160156 10.625 21.175781 10.589844 C 21.265625 10.4375 21.511719 9.992188 21.527344 9.992188 C 21.542969 9.988281 22.316406 11.042969 22.425781 11 C 22.539062 10.953125 23.03125 9.691406 23.171875 9.496094 C 23.257812 9.375 23.535156 9.148438 23.746094 8.984375 L 23.769531 8.960938 C 23.867188 8.886719 23.941406 8.828125 23.976562 8.804688 L 23.992188 8.792969 C 23.992188 8.792969 23.992188 9.152344 23.992188 9.625 L 23.992188 9.675781 C 23.992188 10.105469 23.996094 10.617188 23.996094 11.035156 C 24 11.210938 24 11.367188 24.003906 11.496094 C 24.015625 12.300781 24.011719 14.199219 23.953125 14.199219 " fill-opacity="1" fill-rule="nonzero"/><path fill="#ca5043" d="M 27.609375 10.378906 C 27.628906 10.414062 27.632812 10.453125 27.613281 10.492188 C 27.46875 10.761719 26.832031 11.902344 26.554688 11.792969 C 26.210938 11.65625 25.882812 11.039062 25.882812 11.039062 C 25.882812 11.039062 26.054688 13.589844 26.015625 13.636719 C 25.976562 13.683594 25.238281 14.148438 25.113281 14.15625 C 25 14.160156 25.019531 11.761719 24.972656 10.894531 L 24.96875 10.894531 C 24.96875 10.824219 24.960938 10.765625 24.957031 10.71875 C 24.929688 10.429688 24.871094 9.980469 24.816406 9.574219 C 24.8125 9.554688 24.808594 9.53125 24.808594 9.511719 C 24.746094 9.058594 24.6875 8.667969 24.679688 8.625 L 24.679688 8.621094 C 24.679688 8.621094 24.800781 8.664062 24.96875 8.734375 C 25.269531 8.863281 25.722656 9.074219 25.886719 9.257812 C 26.140625 9.539062 26.542969 10.726562 26.613281 10.714844 C 26.683594 10.699219 27.128906 9.671875 27.128906 9.652344 C 27.128906 9.636719 27.492188 10.199219 27.609375 10.378906 " fill-opacity="1" fill-rule="nonzero"/><path fill="#fdecde" d="M 23.957031 8.691406 C 23.957031 8.691406 24.167969 8.722656 24.183594 8.738281 C 24.195312 8.75 24.308594 8.933594 24.308594 8.933594 L 24.035156 8.847656 L 23.992188 8.792969 L 23.957031 8.691406 " fill-opacity="1" fill-rule="nonzero"/><path fill="#fdecde" d="M 24.285156 8.90625 C 24.285156 8.90625 24.289062 8.722656 24.308594 8.707031 C 24.339844 8.683594 24.644531 8.484375 24.644531 8.484375 L 24.679688 8.621094 L 24.511719 8.90625 L 24.285156 8.90625 " fill-opacity="1" fill-rule="nonzero"/><path fill="#b9362a" d="M 23.226562 11.25 C 23.210938 11.25 23.199219 11.238281 23.199219 11.226562 C 23.199219 11.21875 23.132812 10.65625 23.140625 10.261719 C 23.148438 9.894531 23.199219 9.519531 23.199219 9.515625 C 23.199219 9.5 23.214844 9.492188 23.230469 9.492188 C 23.242188 9.496094 23.253906 9.507812 23.25 9.523438 C 23.25 9.527344 23.199219 9.898438 23.195312 10.265625 C 23.1875 10.65625 23.25 11.214844 23.253906 11.21875 C 23.253906 11.234375 23.242188 11.246094 23.226562 11.25 " fill-opacity="1" fill-rule="nonzero"/><path fill="#b9362a" d="M 25.867188 10.953125 C 25.855469 10.953125 25.84375 10.941406 25.84375 10.925781 L 25.761719 9.277344 C 25.761719 9.261719 25.773438 9.25 25.789062 9.25 C 25.800781 9.25 25.816406 9.261719 25.816406 9.273438 L 25.894531 10.925781 C 25.894531 10.9375 25.886719 10.953125 25.871094 10.953125 C 25.871094 10.953125 25.871094 10.953125 25.867188 10.953125 " fill-opacity="1" fill-rule="nonzero"/><path fill="#b9362a" d="M 23.992188 9.675781 L 23.59375 9.632812 L 23.746094 8.984375 L 23.769531 8.960938 L 23.976562 8.804688 L 23.992188 8.792969 C 23.992188 8.792969 23.992188 9.179688 23.992188 9.675781 " fill-opacity="1" fill-rule="nonzero"/><path fill="#b9362a" d="M 23.996094 10.925781 L 23.578125 9.90625 L 23.777344 9.652344 L 23.992188 9.675781 L 23.992188 9.761719 C 23.992188 10.191406 23.992188 10.503906 23.996094 10.925781 " fill-opacity="1" fill-rule="nonzero"/><path fill="#b9362a" d="M 25.21875 9.503906 L 24.816406 9.574219 C 24.75 9.09375 24.6875 8.667969 24.679688 8.625 L 24.679688 8.621094 C 24.679688 8.621094 24.800781 8.664062 24.96875 8.734375 L 25.21875 9.503906 " fill-opacity="1" fill-rule="nonzero"/><path fill="#b9362a" d="M 25.273438 9.769531 L 24.972656 10.894531 L 24.96875 10.894531 C 24.96875 10.824219 24.960938 10.765625 24.957031 10.71875 C 24.929688 10.429688 24.871094 9.980469 24.816406 9.574219 C 24.8125 9.554688 24.808594 9.53125 24.808594 9.511719 L 24.992188 9.519531 L 25.273438 9.769531 " fill-opacity="1" fill-rule="nonzero"/><path fill="#f2d9c4" d="M 24.359375 9.023438 C 24.359375 9.058594 24.328125 9.089844 24.292969 9.089844 C 24.257812 9.089844 24.226562 9.058594 24.226562 9.023438 C 24.226562 8.988281 24.257812 8.957031 24.292969 8.957031 C 24.328125 8.957031 24.359375 8.988281 24.359375 9.023438 " fill-opacity="1" fill-rule="nonzero"/><path fill="#f2d9c4" d="M 24.410156 9.675781 C 24.410156 9.710938 24.382812 9.742188 24.34375 9.742188 C 24.308594 9.742188 24.28125 9.710938 24.28125 9.675781 C 24.28125 9.636719 24.308594 9.609375 24.34375 9.609375 C 24.382812 9.609375 24.410156 9.636719 24.410156 9.675781 " fill-opacity="1" fill-rule="nonzero"/><path fill="#f2d9c4" d="M 24.453125 10.402344 C 24.453125 10.4375 24.425781 10.46875 24.390625 10.46875 C 24.351562 10.46875 24.324219 10.4375 24.324219 10.402344 C 24.324219 10.367188 24.351562 10.335938 24.390625 10.335938 C 24.425781 10.335938 24.453125 10.367188 24.453125 10.402344 " fill-opacity="1" fill-rule="nonzero"/><path fill="#f2d9c4" d="M 24.488281 11.105469 C 24.488281 11.140625 24.460938 11.171875 24.425781 11.171875 C 24.386719 11.171875 24.359375 11.140625 24.359375 11.105469 C 24.359375 11.066406 24.386719 11.039062 24.425781 11.039062 C 24.460938 11.039062 24.488281 11.066406 24.488281 11.105469 " fill-opacity="1" fill-rule="nonzero"/><path fill="#f2d9c4" d="M 24.519531 11.910156 C 24.519531 11.945312 24.492188 11.976562 24.453125 11.976562 C 24.417969 11.976562 24.390625 11.945312 24.390625 11.910156 C 24.390625 11.871094 24.417969 11.84375 24.453125 11.84375 C 24.492188 11.84375 24.519531 11.871094 24.519531 11.910156 " fill-opacity="1" fill-rule="nonzero"/><path fill="#b9362a" d="M 24.621094 15.359375 C 24.613281 15.359375 24.601562 15.355469 24.597656 15.347656 L 24.128906 14.488281 C 24.121094 14.476562 24.128906 14.457031 24.140625 14.453125 C 24.152344 14.445312 24.167969 14.449219 24.175781 14.460938 L 24.644531 15.320312 C 24.652344 15.332031 24.648438 15.351562 24.632812 15.355469 C 24.628906 15.359375 24.625 15.359375 24.621094 15.359375 " fill-opacity="1" fill-rule="nonzero"/><path fill="#f0a77f" d="M 12.171875 11.507812 L 12.355469 11.875 C 12.355469 11.875 11.945312 12.058594 11.925781 12.058594 C 11.90625 12.058594 11.882812 11.460938 11.882812 11.460938 L 12.171875 11.507812 " fill-opacity="1" fill-rule="nonzero"/><g clip-path="url(#26a7666ddc)"><path fill="#f0a77f" d="M 8.585938 8.035156 L 8.445312 7.816406 C 8.445312 7.816406 8.433594 7.671875 8.398438 7.507812 C 8.359375 7.34375 7.839844 6.015625 7.839844 6.015625 C 7.839844 6.015625 7.941406 5.960938 7.980469 5.855469 C 8.007812 5.785156 8.050781 5.273438 7.917969 5.289062 C 7.824219 5.296875 7.777344 4.898438 7.578125 4.8125 C 7.324219 4.699219 7.265625 5.035156 7.253906 5.199219 C 7.242188 5.367188 7.273438 5.519531 7.34375 5.773438 C 7.371094 5.878906 7.476562 6.050781 7.476562 6.050781 C 7.476562 6.050781 7.683594 7.585938 7.765625 7.769531 C 7.847656 7.953125 7.863281 7.96875 7.863281 7.96875 L 7.890625 8.355469 L 8.585938 8.035156 " fill-opacity="1" fill-rule="nonzero"/></g><path fill="#f0a77f" d="M 10.726562 8.660156 L 10.636719 9.164062 L 10.601562 9.367188 L 10.554688 9.828125 L 9.976562 9.75 L 9.863281 9.296875 L 9.984375 8.679688 L 10.015625 8.503906 L 10.015625 8.5 L 10.019531 8.5 L 10.726562 8.660156 " fill-opacity="1" fill-rule="nonzero"/><path fill="#e69060" d="M 10.726562 8.660156 L 10.636719 9.164062 C 10.511719 9.136719 10.382812 9.097656 10.292969 9.042969 C 10.136719 8.953125 10.035156 8.789062 9.984375 8.679688 L 10.015625 8.503906 L 10.019531 8.5 L 10.726562 8.660156 " fill-opacity="1" fill-rule="nonzero"/><path fill="#fdecde" d="M 9.53125 11.777344 C 9.667969 11.832031 9.816406 11.867188 9.972656 11.871094 C 10.152344 11.878906 10.308594 11.871094 10.445312 11.847656 C 10.5 11.496094 10.617188 10.585938 10.648438 10.277344 C 10.675781 9.925781 10.628906 9.214844 10.628906 9.214844 C 10.617188 9.207031 10.527344 9.222656 10.261719 9.164062 C 10 9.101562 9.929688 8.960938 9.929688 8.960938 C 9.929688 8.960938 9.769531 10.359375 9.601562 11.363281 C 9.574219 11.507812 9.554688 11.648438 9.53125 11.777344 " fill-opacity="1" fill-rule="nonzero"/><path fill="#955147" d="M 9.34375 8.761719 C 9.238281 8.699219 8.703125 8.058594 8.660156 7.988281 C 8.621094 7.914062 8.265625 7.964844 8.121094 8.046875 C 7.980469 8.128906 7.847656 8.335938 7.910156 8.429688 C 7.972656 8.527344 8.34375 9.320312 8.441406 9.53125 C 8.539062 9.738281 8.707031 9.988281 8.714844 10.0625 C 8.71875 10.097656 8.699219 10.589844 8.675781 11.117188 C 8.769531 11.230469 8.890625 11.355469 9.035156 11.476562 C 9.179688 11.59375 9.347656 11.703125 9.53125 11.777344 C 9.554688 11.648438 9.574219 11.507812 9.601562 11.363281 C 9.769531 10.359375 9.929688 8.960938 9.929688 8.960938 C 9.929688 8.960938 9.453125 8.824219 9.34375 8.761719 " fill-opacity="1" fill-rule="nonzero"/><path fill="#955147" d="M 11.417969 9.617188 C 11.347656 9.414062 10.628906 9.214844 10.628906 9.214844 C 10.628906 9.214844 10.675781 9.925781 10.648438 10.277344 C 10.617188 10.585938 10.5 11.496094 10.445312 11.847656 C 10.558594 11.828125 10.660156 11.800781 10.746094 11.765625 C 10.902344 11.707031 11.011719 11.632812 11.082031 11.570312 C 11.132812 11.277344 11.21875 10.84375 11.269531 10.597656 C 11.328125 10.277344 11.492188 9.816406 11.417969 9.617188 " fill-opacity="1" fill-rule="nonzero"/><path fill="#f2d9c4" d="M 10.425781 11.960938 C 10.429688 11.9375 10.4375 11.898438 10.445312 11.847656 C 10.308594 11.871094 10.152344 11.878906 9.972656 11.871094 C 9.816406 11.867188 9.667969 11.832031 9.53125 11.777344 C 9.410156 12.539062 9.359375 13.011719 9.359375 13.011719 L 8.867188 13.011719 L 8.835938 13.273438 L 10.742188 13.316406 L 10.71875 12.835938 L 10.292969 12.835938 C 10.292969 12.835938 10.386719 12.144531 10.425781 11.960938 " fill-opacity="1" fill-rule="nonzero"/><path fill="#854036" d="M 9.035156 11.476562 C 8.890625 11.355469 8.769531 11.230469 8.675781 11.117188 C 8.652344 11.617188 8.628906 12.148438 8.617188 12.339844 C 8.59375 12.726562 8.550781 13.011719 8.550781 13.011719 L 9.359375 13.011719 C 9.359375 13.011719 9.410156 12.539062 9.53125 11.777344 C 9.347656 11.703125 9.179688 11.59375 9.035156 11.476562 " fill-opacity="1" fill-rule="nonzero"/><path fill="#854036" d="M 10.746094 11.765625 C 10.660156 11.800781 10.558594 11.828125 10.445312 11.847656 C 10.4375 11.898438 10.429688 11.9375 10.425781 11.960938 C 10.386719 12.144531 10.292969 12.835938 10.292969 12.835938 L 10.78125 12.835938 L 10.9375 12.773438 C 10.9375 12.773438 11.015625 12.015625 11.046875 11.785156 C 11.054688 11.730469 11.066406 11.65625 11.082031 11.570312 C 11.011719 11.632812 10.902344 11.707031 10.746094 11.765625 " fill-opacity="1" fill-rule="nonzero"/><path fill="#d65345" d="M 10.328125 12.664062 C 10.328125 12.890625 10.046875 13.074219 9.699219 13.074219 C 9.351562 13.074219 9.070312 12.890625 9.070312 12.664062 C 9.070312 12.4375 9.351562 12.253906 9.699219 12.253906 C 10.046875 12.253906 10.328125 12.4375 10.328125 12.664062 " fill-opacity="1" fill-rule="nonzero"/><path fill="#3e3da1" d="M 11.03125 19.894531 L 8.363281 19.894531 L 7.800781 13.914062 L 11.597656 13.914062 L 11.03125 19.894531 " fill-opacity="1" fill-rule="nonzero"/><path fill="#5858ba" d="M 7.800781 12.730469 L 7.800781 13.917969 L 8.714844 14.863281 L 10.683594 14.863281 L 11.597656 13.917969 L 11.597656 12.730469 L 7.800781 12.730469 " fill-opacity="1" fill-rule="nonzero"/><path fill="#fdecde" d="M 8.320312 13.621094 C 8.320312 13.789062 8.382812 13.949219 8.492188 14.0625 L 8.832031 14.410156 C 8.929688 14.511719 9.0625 14.570312 9.195312 14.570312 L 10.203125 14.570312 C 10.335938 14.570312 10.46875 14.511719 10.566406 14.410156 L 10.90625 14.0625 C 11.015625 13.949219 11.078125 13.789062 11.078125 13.621094 C 11.078125 13.289062 10.835938 13.023438 10.539062 13.023438 L 8.859375 13.023438 C 8.5625 13.023438 8.320312 13.289062 8.320312 13.621094 " fill-opacity="1" fill-rule="nonzero"/><path fill="#d65345" d="M 8.4375 13.640625 C 8.4375 13.789062 8.492188 13.929688 8.59375 14.03125 L 8.902344 14.34375 C 8.996094 14.433594 9.113281 14.484375 9.238281 14.484375 L 10.160156 14.484375 C 10.285156 14.484375 10.402344 14.433594 10.492188 14.34375 L 10.804688 14.03125 C 10.902344 13.929688 10.960938 13.789062 10.960938 13.640625 C 10.960938 13.347656 10.742188 13.105469 10.46875 13.105469 L 8.929688 13.105469 C 8.65625 13.105469 8.4375 13.347656 8.4375 13.640625 " fill-opacity="1" fill-rule="nonzero"/><path fill="#5858ba" d="M 12.027344 13.914062 L 11.597656 13.914062 L 11.597656 12.730469 L 12.027344 12.730469 C 12.152344 12.730469 12.25 12.828125 12.25 12.953125 L 12.25 13.6875 C 12.25 13.8125 12.152344 13.914062 12.027344 13.914062 " fill-opacity="1" fill-rule="nonzero"/><path fill="#5858ba" d="M 7.800781 12.726562 L 7.800781 13.914062 L 7.433594 13.914062 C 7.277344 13.914062 7.148438 13.773438 7.148438 13.597656 L 7.148438 13.046875 C 7.148438 12.871094 7.277344 12.726562 7.433594 12.726562 L 7.800781 12.726562 " fill-opacity="1" fill-rule="nonzero"/><path fill="#5858ba" d="M 10.417969 19.894531 L 8.980469 19.894531 C 8.835938 19.894531 8.714844 19.773438 8.714844 19.625 L 8.714844 14.863281 L 10.683594 14.863281 L 10.683594 19.625 C 10.683594 19.773438 10.5625 19.894531 10.417969 19.894531 " fill-opacity="1" fill-rule="nonzero"/><path fill="#f9be59" d="M 10.40625 19.6875 L 8.992188 19.6875 C 8.902344 19.6875 8.828125 19.613281 8.828125 19.523438 L 8.828125 15.234375 C 8.828125 15.144531 8.902344 15.070312 8.992188 15.070312 L 10.40625 15.070312 C 10.496094 15.070312 10.566406 15.144531 10.566406 15.234375 L 10.566406 19.523438 C 10.566406 19.613281 10.496094 19.6875 10.40625 19.6875 " fill-opacity="1" fill-rule="nonzero"/><g clip-path="url(#0d2720f93d)"><path fill="#5858ba" d="M 11.410156 21.027344 L 7.988281 21.027344 L 7.988281 20.324219 C 7.988281 20.242188 8.054688 20.175781 8.132812 20.175781 L 11.261719 20.175781 C 11.34375 20.175781 11.410156 20.242188 11.410156 20.324219 L 11.410156 21.027344 " fill-opacity="1" fill-rule="nonzero"/></g><path fill="#3e3da1" d="M 11.03125 19.894531 L 8.363281 19.894531 L 8.167969 20.175781 L 11.230469 20.175781 L 11.03125 19.894531 " fill-opacity="1" fill-rule="nonzero"/><g clip-path="url(#7cb45c0ace)"><path fill="#3e3da1" d="M 11.410156 21.027344 L 7.988281 21.027344 C 7.878906 21.117188 7.933594 21.308594 8.070312 21.308594 L 11.328125 21.308594 C 11.460938 21.308594 11.519531 21.117188 11.410156 21.027344 " fill-opacity="1" fill-rule="nonzero"/></g><path fill="#f9be59" d="M 8.085938 13.890625 C 8.085938 13.941406 8.046875 13.984375 8 13.984375 C 7.953125 13.984375 7.917969 13.941406 7.917969 13.890625 C 7.917969 13.839844 7.953125 13.796875 8 13.796875 C 8.046875 13.796875 8.085938 13.839844 8.085938 13.890625 " fill-opacity="1" fill-rule="nonzero"/><path fill="#f9be59" d="M 8.300781 14.078125 C 8.300781 14.128906 8.261719 14.171875 8.214844 14.171875 C 8.167969 14.171875 8.132812 14.128906 8.132812 14.078125 C 8.132812 14.027344 8.167969 13.984375 8.214844 13.984375 C 8.261719 13.984375 8.300781 14.027344 8.300781 14.078125 " fill-opacity="1" fill-rule="nonzero"/><path fill="#f9be59" d="M 8.472656 14.207031 C 8.5 14.25 8.492188 14.308594 8.457031 14.339844 C 8.417969 14.371094 8.367188 14.363281 8.339844 14.324219 C 8.308594 14.28125 8.316406 14.222656 8.355469 14.191406 C 8.390625 14.160156 8.445312 14.167969 8.472656 14.207031 " fill-opacity="1" fill-rule="nonzero"/><path fill="#f9be59" d="M 8.652344 14.382812 C 8.679688 14.421875 8.671875 14.480469 8.636719 14.511719 C 8.597656 14.542969 8.546875 14.535156 8.519531 14.496094 C 8.488281 14.453125 8.496094 14.394531 8.535156 14.363281 C 8.570312 14.332031 8.625 14.339844 8.652344 14.382812 " fill-opacity="1" fill-rule="nonzero"/><path fill="#f9be59" d="M 8.832031 14.585938 C 8.863281 14.625 8.855469 14.683594 8.816406 14.714844 C 8.78125 14.75 8.726562 14.738281 8.699219 14.699219 C 8.671875 14.65625 8.679688 14.597656 8.714844 14.566406 C 8.753906 14.535156 8.804688 14.542969 8.832031 14.585938 " fill-opacity="1" fill-rule="nonzero"/><path fill="#f9be59" d="M 11.3125 13.890625 C 11.3125 13.941406 11.351562 13.984375 11.398438 13.984375 C 11.445312 13.984375 11.480469 13.941406 11.480469 13.890625 C 11.480469 13.839844 11.445312 13.796875 11.398438 13.796875 C 11.351562 13.796875 11.3125 13.839844 11.3125 13.890625 " fill-opacity="1" fill-rule="nonzero"/><path fill="#f9be59" d="M 11.097656 14.078125 C 11.097656 14.128906 11.136719 14.171875 11.183594 14.171875 C 11.230469 14.171875 11.265625 14.128906 11.265625 14.078125 C 11.265625 14.027344 11.230469 13.984375 11.183594 13.984375 C 11.136719 13.984375 11.097656 14.027344 11.097656 14.078125 " fill-opacity="1" fill-rule="nonzero"/><path fill="#f9be59" d="M 10.925781 14.207031 C 10.898438 14.25 10.90625 14.308594 10.941406 14.339844 C 10.980469 14.371094 11.03125 14.363281 11.058594 14.324219 C 11.089844 14.28125 11.082031 14.222656 11.042969 14.191406 C 11.007812 14.160156 10.953125 14.167969 10.925781 14.207031 " fill-opacity="1" fill-rule="nonzero"/><path fill="#f9be59" d="M 10.746094 14.382812 C 10.71875 14.421875 10.726562 14.480469 10.761719 14.511719 C 10.800781 14.542969 10.851562 14.535156 10.878906 14.496094 C 10.910156 14.453125 10.902344 14.394531 10.863281 14.363281 C 10.828125 14.332031 10.773438 14.339844 10.746094 14.382812 " fill-opacity="1" fill-rule="nonzero"/><path fill="#f9be59" d="M 10.5625 14.585938 C 10.535156 14.625 10.542969 14.683594 10.582031 14.714844 C 10.617188 14.75 10.671875 14.738281 10.699219 14.699219 C 10.726562 14.65625 10.71875 14.597656 10.683594 14.566406 C 10.644531 14.535156 10.59375 14.542969 10.5625 14.585938 " fill-opacity="1" fill-rule="nonzero"/><path fill="#fdecde" d="M 9.496094 17.746094 L 10.050781 17.746094 C 10.09375 17.746094 10.132812 17.769531 10.132812 17.828125 C 10.132812 17.886719 10.09375 17.910156 10.050781 17.910156 L 9.335938 17.910156 L 9.335938 17.375 C 9.335938 17.25 9.394531 17.1875 9.515625 17.1875 L 9.972656 17.1875 L 9.972656 16.796875 L 9.414062 16.796875 C 9.371094 16.796875 9.335938 16.773438 9.335938 16.714844 C 9.335938 16.65625 9.371094 16.632812 9.414062 16.632812 L 9.953125 16.632812 C 10.003906 16.632812 10.042969 16.640625 10.082031 16.679688 C 10.128906 16.71875 10.132812 16.765625 10.132812 16.824219 L 10.132812 17.160156 C 10.132812 17.21875 10.128906 17.265625 10.082031 17.308594 C 10.042969 17.34375 10.003906 17.351562 9.953125 17.351562 L 9.496094 17.351562 L 9.496094 17.746094 " fill-opacity="1" fill-rule="nonzero"/><path fill="#d65345" d="M 11.160156 7.042969 C 11.160156 7.042969 11.234375 7.5 11.21875 7.703125 C 11.203125 7.902344 11.070312 8.179688 11.070312 8.179688 L 10.917969 7.398438 L 10.890625 7.199219 L 11.160156 7.042969 " fill-opacity="1" fill-rule="nonzero"/><path fill="#f0a77f" d="M 9.84375 7.324219 C 9.84375 7.324219 10.292969 6.820312 10.558594 6.910156 C 10.824219 6.996094 11.101562 7.347656 11.132812 7.761719 C 11.15625 8.089844 11.046875 8.410156 11.003906 8.570312 C 10.964844 8.710938 10.722656 9.003906 10.492188 8.996094 C 10.234375 8.992188 10.003906 8.648438 9.960938 8.53125 C 9.921875 8.414062 9.832031 8.070312 9.832031 7.859375 C 9.832031 7.644531 9.84375 7.324219 9.84375 7.324219 " fill-opacity="1" fill-rule="nonzero"/><path fill="#2d253e" d="M 10.335938 7.972656 L 10.296875 7.972656 C 10.28125 7.972656 10.269531 7.960938 10.269531 7.945312 L 10.273438 7.851562 C 10.273438 7.839844 10.285156 7.828125 10.300781 7.828125 L 10.339844 7.828125 C 10.351562 7.828125 10.363281 7.839844 10.363281 7.855469 L 10.363281 7.945312 C 10.363281 7.960938 10.347656 7.972656 10.335938 7.972656 " fill-opacity="1" fill-rule="nonzero"/><path fill="#2d253e" d="M 10.914062 8.042969 L 10.875 8.042969 C 10.863281 8.039062 10.851562 8.027344 10.851562 8.015625 L 10.851562 7.921875 C 10.855469 7.90625 10.867188 7.894531 10.878906 7.894531 L 10.917969 7.898438 C 10.933594 7.898438 10.945312 7.910156 10.945312 7.925781 L 10.941406 8.015625 C 10.941406 8.03125 10.929688 8.042969 10.914062 8.042969 " fill-opacity="1" fill-rule="nonzero"/><path fill="#d65345" d="M 10.125 7.644531 C 10.148438 7.621094 10.1875 7.609375 10.273438 7.613281 C 10.355469 7.617188 10.414062 7.632812 10.40625 7.660156 C 10.402344 7.679688 10.324219 7.691406 10.277344 7.6875 C 10.230469 7.683594 10.144531 7.691406 10.128906 7.675781 C 10.117188 7.660156 10.117188 7.648438 10.125 7.644531 " fill-opacity="1" fill-rule="nonzero"/><path fill="#d65345" d="M 11.089844 7.722656 C 11.066406 7.695312 11.03125 7.683594 10.945312 7.675781 C 10.863281 7.667969 10.804688 7.671875 10.808594 7.699219 C 10.808594 7.71875 10.882812 7.742188 10.933594 7.746094 C 10.980469 7.75 11.0625 7.769531 11.078125 7.757812 C 11.09375 7.742188 11.09375 7.730469 11.089844 7.722656 " fill-opacity="1" fill-rule="nonzero"/><path fill="#e69060" d="M 10.734375 8.261719 Z M 10.636719 8.382812 C 10.628906 8.382812 10.617188 8.378906 10.613281 8.371094 C 10.605469 8.355469 10.609375 8.339844 10.621094 8.332031 C 10.667969 8.304688 10.71875 8.269531 10.734375 8.253906 C 10.71875 8.21875 10.652344 8.085938 10.605469 7.992188 C 10.597656 7.980469 10.605469 7.960938 10.617188 7.957031 C 10.628906 7.949219 10.648438 7.953125 10.652344 7.96875 C 10.703125 8.0625 10.785156 8.226562 10.789062 8.25 C 10.792969 8.265625 10.796875 8.292969 10.648438 8.378906 C 10.644531 8.382812 10.640625 8.382812 10.636719 8.382812 " fill-opacity="1" fill-rule="nonzero"/><path fill="#d65345" d="M 10.527344 8.699219 C 10.375 8.695312 10.28125 8.554688 10.300781 8.488281 C 10.300781 8.488281 10.304688 8.484375 10.304688 8.484375 C 10.316406 8.457031 10.71875 8.507812 10.742188 8.53125 C 10.757812 8.550781 10.707031 8.703125 10.527344 8.699219 " fill-opacity="1" fill-rule="nonzero"/><path fill="#ffffff" d="M 10.742188 8.53125 C 10.699219 8.5625 10.628906 8.585938 10.527344 8.582031 C 10.429688 8.574219 10.351562 8.535156 10.300781 8.488281 C 10.300781 8.488281 10.304688 8.484375 10.304688 8.484375 C 10.316406 8.457031 10.71875 8.507812 10.742188 8.53125 " fill-opacity="1" fill-rule="nonzero"/><path fill="#d65345" d="M 9.785156 7.472656 C 9.785156 7.472656 10.160156 7.265625 10.488281 7.265625 C 10.921875 7.265625 11.167969 7.46875 11.167969 7.46875 C 11.167969 7.46875 11.28125 7.367188 11.214844 7.066406 C 11.125 6.660156 10.078125 6.566406 9.851562 6.953125 C 9.710938 7.1875 9.785156 7.472656 9.785156 7.472656 " fill-opacity="1" fill-rule="nonzero"/><path fill="#d65345" d="M 9.894531 7.628906 C 9.890625 7.832031 9.835938 7.992188 9.777344 7.992188 C 9.71875 7.988281 9.675781 7.824219 9.679688 7.625 C 9.6875 7.425781 9.738281 7.265625 9.796875 7.265625 C 9.855469 7.265625 9.898438 7.429688 9.894531 7.628906 " fill-opacity="1" fill-rule="nonzero"/><path fill="#f0a77f" d="M 9.910156 7.890625 C 9.910156 7.890625 9.875 7.777344 9.832031 7.75 C 9.796875 7.722656 9.730469 7.734375 9.707031 7.816406 C 9.675781 7.921875 9.726562 8.046875 9.765625 8.125 C 9.820312 8.226562 9.902344 8.253906 9.902344 8.253906 L 9.910156 7.890625 " fill-opacity="1" fill-rule="nonzero"/><path fill="#d65345" d="M 10.199219 7.207031 C 10.1875 7.21875 10.070312 7.335938 10 7.480469 C 9.925781 7.625 9.882812 7.757812 9.882812 7.757812 L 9.8125 7.492188 L 9.867188 7.265625 L 10.15625 7.121094 L 10.199219 7.207031 " fill-opacity="1" fill-rule="nonzero"/><path fill="#d65345" d="M 9.980469 7.667969 C 9.945312 7.804688 9.949219 7.925781 9.917969 7.921875 C 9.886719 7.921875 9.863281 7.804688 9.867188 7.664062 C 9.871094 7.519531 10.070312 7.261719 10.101562 7.261719 C 10.132812 7.265625 10.035156 7.464844 9.980469 7.667969 " fill-opacity="1" fill-rule="nonzero"/><path fill="#d65345" d="M 11.101562 7.351562 C 11.097656 7.425781 10.855469 7.472656 10.554688 7.453125 C 10.257812 7.4375 10.019531 7.363281 10.023438 7.289062 C 10.027344 7.214844 10.273438 7.167969 10.570312 7.1875 C 10.867188 7.203125 11.109375 7.277344 11.101562 7.351562 " fill-opacity="1" fill-rule="nonzero"/><path fill="#955147" d="M 11.417969 9.617188 C 11.417969 9.617188 11.601562 9.917969 11.738281 10.257812 C 11.910156 10.699219 12.050781 11.210938 12.089844 11.324219 C 12.164062 11.53125 12.050781 11.675781 11.882812 11.6875 C 11.714844 11.703125 11.5 11.832031 11.398438 11.730469 C 11.296875 11.625 11.226562 11.382812 11.164062 11.296875 C 11.101562 11.207031 10.992188 11.109375 10.992188 11.109375 L 11.03125 9.648438 L 11.417969 9.617188 " fill-opacity="1" fill-rule="nonzero"/><path fill="#a86056" d="M 8.238281 8.15625 C 8.070312 8.242188 7.996094 8.410156 7.910156 8.429688 C 7.828125 8.449219 7.789062 8.339844 7.78125 8.304688 C 7.777344 8.265625 7.589844 8.25 7.664062 8.113281 C 7.738281 7.976562 7.980469 7.84375 8.226562 7.769531 C 8.472656 7.695312 8.574219 7.683594 8.628906 7.710938 C 8.714844 7.753906 8.707031 7.84375 8.710938 7.898438 C 8.71875 7.953125 8.699219 8.023438 8.675781 8.03125 C 8.527344 8.078125 8.390625 8.078125 8.238281 8.15625 " fill-opacity="1" fill-rule="nonzero"/><path fill="#a86056" d="M 11.722656 11.453125 C 11.890625 11.375 12.058594 11.335938 12.144531 11.320312 C 12.230469 11.304688 12.265625 11.414062 12.269531 11.453125 C 12.273438 11.488281 12.433594 11.585938 12.304688 11.671875 C 12.160156 11.761719 12.015625 11.757812 11.765625 11.820312 C 11.519531 11.886719 11.492188 12.050781 11.4375 12.019531 C 11.355469 11.972656 11.328125 11.867188 11.320312 11.8125 C 11.316406 11.757812 11.347656 11.699219 11.363281 11.683594 C 11.476562 11.582031 11.566406 11.523438 11.722656 11.453125 " fill-opacity="1" fill-rule="nonzero"/><path fill="#f0a77f" d="M 11.554688 11.796875 C 11.316406 11.894531 10.277344 12.191406 10.277344 12.191406 C 10.277344 12.191406 10.125 12.011719 9.765625 12.003906 C 9.515625 12 9.128906 12.320312 9.183594 12.417969 C 9.242188 12.527344 9.589844 12.390625 9.785156 12.410156 C 9.984375 12.429688 10.109375 12.597656 10.265625 12.558594 C 10.421875 12.519531 11.28125 12.542969 11.941406 12.410156 C 12.203125 12.359375 12.414062 12.019531 12.355469 11.875 C 12.222656 11.570312 11.792969 11.703125 11.554688 11.796875 " fill-opacity="1" fill-rule="nonzero"/><path fill="#854036" d="M 8.835938 9.957031 C 8.828125 9.957031 8.824219 9.953125 8.816406 9.949219 C 8.808594 9.9375 8.808594 9.917969 8.820312 9.910156 C 8.820312 9.90625 9.097656 9.640625 9.222656 9.386719 C 9.34375 9.132812 9.289062 8.855469 9.289062 8.855469 C 9.285156 8.839844 9.292969 8.824219 9.308594 8.820312 C 9.324219 8.816406 9.339844 8.828125 9.339844 8.84375 C 9.34375 8.855469 9.402344 9.136719 9.273438 9.410156 C 9.144531 9.675781 8.867188 9.9375 8.855469 9.949219 C 8.851562 9.953125 8.84375 9.957031 8.835938 9.957031 " fill-opacity="1" fill-rule="nonzero"/><path fill="#854036" d="M 11.15625 11.195312 L 11.132812 11.175781 L 11.136719 11.15625 C 11.136719 11.152344 11.136719 11.152344 11.140625 11.148438 C 11.15625 11.097656 11.269531 10.707031 11.296875 10.457031 C 11.34375 9.964844 11.34375 9.652344 11.34375 9.648438 C 11.34375 9.632812 11.355469 9.621094 11.371094 9.621094 C 11.382812 9.621094 11.398438 9.632812 11.398438 9.648438 C 11.398438 9.652344 11.394531 9.964844 11.347656 10.460938 C 11.332031 10.625 11.238281 11.050781 11.1875 11.164062 C 11.1875 11.164062 11.1875 11.167969 11.1875 11.167969 C 11.179688 11.179688 11.175781 11.1875 11.171875 11.1875 L 11.15625 11.195312 " fill-opacity="1" fill-rule="nonzero"/><path fill="#f9be59" d="M 9.136719 13.554688 C 9.136719 13.566406 9.125 13.585938 9.105469 13.585938 C 9.085938 13.585938 9.074219 13.566406 9.074219 13.554688 L 9.074219 13.519531 C 9.074219 13.507812 9.085938 13.488281 9.105469 13.488281 L 9.394531 13.488281 L 9.394531 13.679688 C 9.394531 13.703125 9.394531 13.703125 9.375 13.71875 L 9.285156 13.800781 C 9.269531 13.8125 9.265625 13.816406 9.265625 13.839844 L 9.265625 13.964844 C 9.265625 13.988281 9.257812 14 9.234375 14 C 9.210938 14 9.203125 13.988281 9.203125 13.964844 L 9.203125 13.808594 C 9.203125 13.785156 9.203125 13.785156 9.21875 13.769531 L 9.308594 13.691406 C 9.328125 13.671875 9.328125 13.671875 9.328125 13.644531 L 9.328125 13.554688 L 9.136719 13.554688 " fill-opacity="1" fill-rule="nonzero"/><path fill="#f9be59" d="M 9.667969 13.710938 L 9.785156 13.710938 C 9.808594 13.710938 9.824219 13.714844 9.839844 13.730469 C 9.855469 13.746094 9.859375 13.761719 9.859375 13.785156 L 9.859375 13.925781 C 9.859375 13.945312 9.855469 13.960938 9.84375 13.976562 C 9.828125 13.996094 9.808594 14 9.785156 14 L 9.644531 14 C 9.625 14 9.617188 13.992188 9.601562 13.988281 L 9.574219 13.976562 C 9.558594 13.96875 9.539062 13.960938 9.539062 13.9375 C 9.539062 13.921875 9.554688 13.90625 9.570312 13.90625 C 9.578125 13.90625 9.582031 13.90625 9.589844 13.910156 L 9.609375 13.917969 C 9.621094 13.921875 9.632812 13.933594 9.644531 13.933594 L 9.792969 13.933594 L 9.792969 13.777344 L 9.601562 13.777344 L 9.601562 13.488281 L 9.828125 13.488281 C 9.84375 13.488281 9.859375 13.496094 9.859375 13.519531 C 9.859375 13.542969 9.84375 13.554688 9.828125 13.554688 L 9.667969 13.554688 L 9.667969 13.710938 " fill-opacity="1" fill-rule="nonzero"/><path fill="#f9be59" d="M 10.257812 13.933594 L 10.257812 13.554688 L 10.070312 13.554688 L 10.070312 13.933594 Z M 10.257812 13.488281 C 10.296875 13.488281 10.324219 13.515625 10.324219 13.554688 L 10.324219 13.933594 C 10.324219 13.96875 10.296875 14 10.257812 14 L 10.070312 14 C 10.03125 14 10.003906 13.96875 10.003906 13.933594 L 10.003906 13.554688 C 10.003906 13.515625 10.035156 13.488281 10.070312 13.488281 L 10.257812 13.488281 " fill-opacity="1" fill-rule="nonzero"/><path fill="#f0a77f" d="M 15.511719 8.113281 L 15.597656 8.613281 L 15.636719 8.816406 L 15.679688 9.28125 L 16.257812 9.203125 L 16.808594 8.792969 C 16.808594 8.792969 16.484375 8.644531 16.402344 8.535156 C 16.34375 8.453125 16.253906 7.886719 16.253906 7.886719 L 15.511719 8.113281 " fill-opacity="1" fill-rule="nonzero"/><path fill="#e69060" d="M 15.511719 8.113281 L 15.597656 8.613281 C 15.722656 8.585938 15.851562 8.546875 15.941406 8.496094 C 16.097656 8.40625 16.242188 8.230469 16.296875 8.121094 L 16.257812 7.910156 L 16.214844 7.953125 L 15.511719 8.113281 " fill-opacity="1" fill-rule="nonzero"/><path fill="#823e3e" d="M 15.023438 6.550781 C 15.023438 6.550781 14.949219 7.007812 14.964844 7.210938 C 14.976562 7.410156 15.113281 7.6875 15.113281 7.6875 L 15.265625 6.902344 L 15.289062 6.707031 L 15.023438 6.550781 " fill-opacity="1" fill-rule="nonzero"/><path fill="#f0a77f" d="M 16.335938 6.832031 C 16.335938 6.832031 15.890625 6.328125 15.625 6.414062 C 15.355469 6.503906 15.082031 6.855469 15.050781 7.269531 C 15.023438 7.597656 15.136719 7.917969 15.179688 8.078125 C 15.21875 8.214844 15.457031 8.511719 15.691406 8.503906 C 15.949219 8.5 16.179688 8.15625 16.21875 8.039062 C 16.261719 7.921875 16.347656 7.574219 16.351562 7.363281 C 16.351562 7.152344 16.335938 6.832031 16.335938 6.832031 " fill-opacity="1" fill-rule="nonzero"/><path fill="#2d253e" d="M 15.859375 7.480469 L 15.898438 7.472656 C 15.910156 7.472656 15.921875 7.457031 15.917969 7.441406 L 15.902344 7.351562 C 15.898438 7.339844 15.886719 7.328125 15.871094 7.332031 L 15.832031 7.339844 C 15.820312 7.34375 15.808594 7.355469 15.8125 7.371094 L 15.828125 7.460938 C 15.832031 7.476562 15.84375 7.484375 15.859375 7.480469 " fill-opacity="1" fill-rule="nonzero"/><path fill="#2d253e" d="M 15.273438 7.550781 L 15.3125 7.546875 C 15.328125 7.542969 15.335938 7.53125 15.335938 7.515625 L 15.324219 7.425781 C 15.324219 7.410156 15.308594 7.398438 15.296875 7.402344 L 15.257812 7.40625 C 15.242188 7.410156 15.230469 7.421875 15.234375 7.4375 L 15.246094 7.527344 C 15.246094 7.542969 15.261719 7.550781 15.273438 7.550781 " fill-opacity="1" fill-rule="nonzero"/><path fill="#823e3e" d="M 15.984375 7.148438 C 15.960938 7.125 15.921875 7.117188 15.835938 7.121094 C 15.753906 7.125 15.695312 7.136719 15.703125 7.167969 C 15.707031 7.1875 15.785156 7.195312 15.832031 7.195312 C 15.878906 7.191406 15.964844 7.199219 15.980469 7.183594 C 15.996094 7.167969 15.992188 7.15625 15.984375 7.148438 " fill-opacity="1" fill-rule="nonzero"/><path fill="#823e3e" d="M 15.078125 7.265625 C 15.09375 7.238281 15.128906 7.21875 15.214844 7.203125 C 15.296875 7.183594 15.355469 7.183594 15.355469 7.214844 C 15.355469 7.230469 15.28125 7.261719 15.234375 7.273438 C 15.1875 7.28125 15.105469 7.308594 15.089844 7.296875 C 15.074219 7.285156 15.074219 7.273438 15.078125 7.265625 " fill-opacity="1" fill-rule="nonzero"/><path fill="#e69060" d="M 15.617188 7.832031 C 15.617188 7.832031 15.570312 7.832031 15.523438 7.820312 C 15.429688 7.796875 15.410156 7.753906 15.410156 7.71875 C 15.410156 7.710938 15.410156 7.6875 15.527344 7.472656 C 15.535156 7.460938 15.550781 7.457031 15.566406 7.464844 C 15.578125 7.46875 15.582031 7.488281 15.574219 7.5 C 15.523438 7.59375 15.46875 7.703125 15.464844 7.722656 C 15.464844 7.746094 15.507812 7.761719 15.535156 7.765625 C 15.574219 7.777344 15.617188 7.777344 15.617188 7.777344 C 15.632812 7.777344 15.644531 7.789062 15.644531 7.804688 C 15.644531 7.820312 15.632812 7.832031 15.617188 7.832031 " fill-opacity="1" fill-rule="nonzero"/><path fill="#823e3e" d="M 16.289062 7.136719 C 16.292969 7.339844 16.34375 7.5 16.402344 7.496094 C 16.460938 7.496094 16.503906 7.332031 16.5 7.132812 C 16.496094 6.933594 16.445312 6.769531 16.386719 6.773438 C 16.328125 6.773438 16.285156 6.9375 16.289062 7.136719 " fill-opacity="1" fill-rule="nonzero"/><path fill="#f0a77f" d="M 16.269531 7.394531 C 16.269531 7.394531 16.308594 7.28125 16.347656 7.257812 C 16.386719 7.230469 16.449219 7.238281 16.476562 7.320312 C 16.507812 7.429688 16.457031 7.554688 16.417969 7.628906 C 16.363281 7.734375 16.28125 7.761719 16.28125 7.761719 L 16.269531 7.394531 " fill-opacity="1" fill-rule="nonzero"/><path fill="#823e3e" d="M 15.980469 6.714844 C 15.996094 6.722656 16.113281 6.839844 16.183594 6.988281 C 16.253906 7.132812 16.296875 7.265625 16.296875 7.265625 L 16.367188 7 L 16.316406 6.773438 L 16.027344 6.628906 L 15.980469 6.714844 " fill-opacity="1" fill-rule="nonzero"/><path fill="#823e3e" d="M 16.199219 7.171875 C 16.234375 7.3125 16.230469 7.429688 16.261719 7.429688 C 16.296875 7.429688 16.316406 7.3125 16.316406 7.171875 C 16.3125 7.027344 16.113281 6.769531 16.082031 6.769531 C 16.050781 6.769531 16.148438 6.972656 16.199219 7.171875 " fill-opacity="1" fill-rule="nonzero"/><path fill="#823e3e" d="M 16.464844 6.878906 C 16.476562 6.878906 16.566406 6.757812 16.523438 6.625 C 16.480469 6.496094 16.320312 6.492188 16.320312 6.492188 C 16.320312 6.492188 16.402344 6.320312 16.199219 6.179688 C 16.0625 6.082031 15.886719 6.230469 15.886719 6.230469 C 15.886719 6.230469 15.863281 6.03125 15.601562 6.03125 C 15.367188 6.03125 15.355469 6.277344 15.355469 6.277344 C 15.355469 6.277344 15.285156 6.164062 15.15625 6.226562 C 15.015625 6.289062 15.0625 6.429688 15.0625 6.429688 C 15.0625 6.429688 14.882812 6.402344 14.824219 6.609375 C 14.773438 6.796875 14.941406 6.917969 14.941406 6.917969 C 14.941406 6.917969 14.855469 6.945312 14.867188 7.078125 C 14.882812 7.222656 14.996094 7.222656 14.996094 7.222656 L 15.125 6.800781 L 15.582031 6.84375 L 16.464844 6.878906 " fill-opacity="1" fill-rule="nonzero"/><path fill="#823e3e" d="M 15.398438 6.8125 C 15.398438 6.910156 15.308594 6.988281 15.195312 6.988281 C 15.082031 6.988281 14.992188 6.910156 14.992188 6.8125 C 14.992188 6.71875 15.082031 6.640625 15.195312 6.640625 C 15.308594 6.640625 15.398438 6.71875 15.398438 6.8125 " fill-opacity="1" fill-rule="nonzero"/><path fill="#823e3e" d="M 15.617188 6.796875 C 15.617188 6.859375 15.566406 6.914062 15.5 6.914062 C 15.4375 6.914062 15.386719 6.859375 15.386719 6.796875 C 15.386719 6.730469 15.4375 6.679688 15.5 6.679688 C 15.566406 6.679688 15.617188 6.730469 15.617188 6.796875 " fill-opacity="1" fill-rule="nonzero"/><path fill="#823e3e" d="M 16.128906 6.792969 C 16.128906 6.878906 16.011719 6.945312 15.863281 6.945312 C 15.71875 6.945312 15.601562 6.878906 15.601562 6.792969 C 15.601562 6.707031 15.71875 6.640625 15.863281 6.640625 C 16.011719 6.640625 16.128906 6.707031 16.128906 6.792969 " fill-opacity="1" fill-rule="nonzero"/><path fill="#ffffff" d="M 15.835938 7.980469 C 15.78125 7.9375 15.683594 8.003906 15.632812 8.007812 C 15.578125 8.011719 15.457031 8.007812 15.449219 8.046875 C 15.441406 8.085938 15.484375 8.175781 15.632812 8.15625 C 15.839844 8.125 15.867188 8.007812 15.835938 7.980469 " fill-opacity="1" fill-rule="nonzero"/><path fill="#468fab" d="M 17.503906 9.679688 C 17.449219 10.152344 17.292969 10.792969 17.199219 11.171875 C 17.160156 11.324219 17.132812 11.433594 17.128906 11.472656 C 17.117188 11.59375 17.15625 12.863281 17.15625 12.863281 L 15.210938 12.863281 C 15.210938 12.863281 15.1875 12.613281 15.152344 12.304688 C 15.101562 11.847656 15.039062 11.25 15.023438 11.128906 C 15.023438 11.125 15.019531 11.117188 15.019531 11.109375 C 14.980469 10.839844 14.695312 9.261719 14.808594 9.058594 C 14.921875 8.847656 15.609375 8.675781 15.609375 8.675781 C 15.609375 8.675781 15.835938 8.832031 16.039062 8.804688 C 16.242188 8.773438 16.433594 8.566406 16.433594 8.566406 C 16.433594 8.566406 17.109375 8.824219 17.207031 8.882812 C 17.308594 8.9375 17.574219 9.011719 17.503906 9.679688 " fill-opacity="1" fill-rule="nonzero"/><path fill="#3c839e" d="M 17.15625 12.863281 L 15.308594 12.863281 C 15.261719 12.703125 15.207031 12.507812 15.152344 12.304688 C 15.101562 11.847656 15.039062 11.25 15.023438 11.128906 C 15.023438 11.125 15.019531 11.117188 15.019531 11.109375 C 15.136719 11.265625 15.433594 11.542969 15.953125 11.5625 C 16.628906 11.589844 16.941406 11.335938 17.199219 11.171875 C 17.160156 11.324219 17.132812 11.433594 17.128906 11.472656 C 17.117188 11.59375 17.15625 12.863281 17.15625 12.863281 " fill-opacity="1" fill-rule="nonzero"/><path fill="#fdecde" d="M 16.871094 12.773438 C 16.871094 13.09375 16.589844 13.226562 16.242188 13.226562 C 15.894531 13.226562 15.613281 13.09375 15.613281 12.773438 C 15.613281 12.457031 15.796875 12.125 16.257812 12.125 C 16.726562 12.125 16.871094 12.457031 16.871094 12.773438 " fill-opacity="1" fill-rule="nonzero"/><path fill="#3e3da1" d="M 17.574219 19.894531 L 14.90625 19.894531 L 14.339844 13.914062 L 18.140625 13.914062 L 17.574219 19.894531 " fill-opacity="1" fill-rule="nonzero"/><path fill="#5858ba" d="M 14.339844 12.730469 L 14.339844 13.917969 L 15.257812 14.863281 L 17.226562 14.863281 L 18.140625 13.917969 L 18.140625 12.730469 L 14.339844 12.730469 " fill-opacity="1" fill-rule="nonzero"/><path fill="#fdecde" d="M 14.863281 13.621094 C 14.863281 13.789062 14.925781 13.949219 15.035156 14.0625 L 15.375 14.410156 C 15.472656 14.511719 15.601562 14.570312 15.738281 14.570312 L 16.746094 14.570312 C 16.878906 14.570312 17.011719 14.511719 17.109375 14.410156 L 17.449219 14.0625 C 17.558594 13.949219 17.621094 13.789062 17.621094 13.621094 C 17.621094 13.289062 17.378906 13.023438 17.082031 13.023438 L 15.402344 13.023438 C 15.105469 13.023438 14.863281 13.289062 14.863281 13.621094 " fill-opacity="1" fill-rule="nonzero"/><path fill="#d65345" d="M 14.980469 13.640625 C 14.980469 13.789062 15.035156 13.929688 15.136719 14.03125 L 15.445312 14.34375 C 15.539062 14.433594 15.65625 14.484375 15.78125 14.484375 L 16.703125 14.484375 C 16.824219 14.484375 16.945312 14.433594 17.035156 14.34375 L 17.347656 14.03125 C 17.445312 13.929688 17.503906 13.789062 17.503906 13.640625 C 17.503906 13.347656 17.285156 13.105469 17.011719 13.105469 L 15.472656 13.105469 C 15.199219 13.105469 14.980469 13.347656 14.980469 13.640625 " fill-opacity="1" fill-rule="nonzero"/><path fill="#5858ba" d="M 18.570312 13.914062 L 18.140625 13.914062 L 18.140625 12.730469 L 18.570312 12.730469 C 18.695312 12.730469 18.792969 12.828125 18.792969 12.953125 L 18.792969 13.6875 C 18.792969 13.8125 18.695312 13.914062 18.570312 13.914062 " fill-opacity="1" fill-rule="nonzero"/><path fill="#5858ba" d="M 14.339844 12.726562 L 14.339844 13.914062 L 13.976562 13.914062 C 13.816406 13.914062 13.691406 13.773438 13.691406 13.597656 L 13.691406 13.046875 C 13.691406 12.871094 13.816406 12.726562 13.976562 12.726562 L 14.339844 12.726562 " fill-opacity="1" fill-rule="nonzero"/><path fill="#5858ba" d="M 16.960938 19.894531 L 15.523438 19.894531 C 15.375 19.894531 15.257812 19.773438 15.257812 19.625 L 15.257812 14.863281 L 17.226562 14.863281 L 17.226562 19.625 C 17.226562 19.773438 17.105469 19.894531 16.960938 19.894531 " fill-opacity="1" fill-rule="nonzero"/><path fill="#f9be59" d="M 16.945312 19.6875 L 15.535156 19.6875 C 15.445312 19.6875 15.371094 19.613281 15.371094 19.523438 L 15.371094 15.234375 C 15.371094 15.144531 15.445312 15.070312 15.535156 15.070312 L 16.945312 15.070312 C 17.039062 15.070312 17.109375 15.144531 17.109375 15.234375 L 17.109375 19.523438 C 17.109375 19.613281 17.039062 19.6875 16.945312 19.6875 " fill-opacity="1" fill-rule="nonzero"/><g clip-path="url(#a35404c0d0)"><path fill="#5858ba" d="M 17.953125 21.027344 L 14.53125 21.027344 L 14.53125 20.324219 C 14.53125 20.242188 14.597656 20.175781 14.675781 20.175781 L 17.804688 20.175781 C 17.886719 20.175781 17.953125 20.242188 17.953125 20.324219 L 17.953125 21.027344 " fill-opacity="1" fill-rule="nonzero"/></g><path fill="#3e3da1" d="M 17.574219 19.894531 L 14.90625 19.894531 L 14.710938 20.175781 L 17.773438 20.175781 L 17.574219 19.894531 " fill-opacity="1" fill-rule="nonzero"/><g clip-path="url(#12fb890506)"><path fill="#3e3da1" d="M 17.953125 21.027344 L 14.53125 21.027344 C 14.421875 21.117188 14.476562 21.308594 14.613281 21.308594 L 17.871094 21.308594 C 18.003906 21.308594 18.0625 21.117188 17.953125 21.027344 " fill-opacity="1" fill-rule="nonzero"/></g><path fill="#f9be59" d="M 14.628906 13.890625 C 14.628906 13.941406 14.589844 13.984375 14.542969 13.984375 C 14.496094 13.984375 14.457031 13.941406 14.457031 13.890625 C 14.457031 13.839844 14.496094 13.796875 14.542969 13.796875 C 14.589844 13.796875 14.628906 13.839844 14.628906 13.890625 " fill-opacity="1" fill-rule="nonzero"/><path fill="#f9be59" d="M 14.84375 14.078125 C 14.84375 14.128906 14.804688 14.171875 14.757812 14.171875 C 14.710938 14.171875 14.675781 14.128906 14.675781 14.078125 C 14.675781 14.027344 14.710938 13.984375 14.757812 13.984375 C 14.804688 13.984375 14.84375 14.027344 14.84375 14.078125 " fill-opacity="1" fill-rule="nonzero"/><path fill="#f9be59" d="M 15.015625 14.207031 C 15.042969 14.25 15.035156 14.308594 15 14.339844 C 14.960938 14.371094 14.910156 14.363281 14.878906 14.324219 C 14.851562 14.28125 14.859375 14.222656 14.898438 14.191406 C 14.933594 14.160156 14.988281 14.167969 15.015625 14.207031 " fill-opacity="1" fill-rule="nonzero"/><path fill="#f9be59" d="M 15.195312 14.382812 C 15.222656 14.421875 15.214844 14.480469 15.179688 14.511719 C 15.140625 14.542969 15.089844 14.535156 15.058594 14.496094 C 15.03125 14.453125 15.039062 14.394531 15.078125 14.363281 C 15.113281 14.332031 15.167969 14.339844 15.195312 14.382812 " fill-opacity="1" fill-rule="nonzero"/><path fill="#f9be59" d="M 15.375 14.585938 C 15.40625 14.625 15.398438 14.683594 15.359375 14.714844 C 15.324219 14.75 15.269531 14.738281 15.242188 14.699219 C 15.214844 14.65625 15.222656 14.597656 15.257812 14.566406 C 15.296875 14.535156 15.347656 14.542969 15.375 14.585938 " fill-opacity="1" fill-rule="nonzero"/><path fill="#f9be59" d="M 17.855469 13.890625 C 17.855469 13.941406 17.894531 13.984375 17.941406 13.984375 C 17.988281 13.984375 18.023438 13.941406 18.023438 13.890625 C 18.023438 13.839844 17.988281 13.796875 17.941406 13.796875 C 17.894531 13.796875 17.855469 13.839844 17.855469 13.890625 " fill-opacity="1" fill-rule="nonzero"/><path fill="#f9be59" d="M 17.640625 14.078125 C 17.640625 14.128906 17.679688 14.171875 17.726562 14.171875 C 17.769531 14.171875 17.808594 14.128906 17.808594 14.078125 C 17.808594 14.027344 17.769531 13.984375 17.726562 13.984375 C 17.679688 13.984375 17.640625 14.027344 17.640625 14.078125 " fill-opacity="1" fill-rule="nonzero"/><path fill="#f9be59" d="M 17.46875 14.207031 C 17.441406 14.25 17.449219 14.308594 17.484375 14.339844 C 17.519531 14.371094 17.574219 14.363281 17.601562 14.324219 C 17.628906 14.28125 17.625 14.222656 17.585938 14.191406 C 17.550781 14.160156 17.496094 14.167969 17.46875 14.207031 " fill-opacity="1" fill-rule="nonzero"/><path fill="#f9be59" d="M 17.289062 14.382812 C 17.261719 14.421875 17.269531 14.480469 17.304688 14.511719 C 17.34375 14.542969 17.394531 14.535156 17.421875 14.496094 C 17.449219 14.453125 17.445312 14.394531 17.40625 14.363281 C 17.371094 14.332031 17.316406 14.339844 17.289062 14.382812 " fill-opacity="1" fill-rule="nonzero"/><path fill="#f9be59" d="M 17.105469 14.585938 C 17.078125 14.625 17.085938 14.683594 17.121094 14.714844 C 17.160156 14.75 17.210938 14.738281 17.242188 14.699219 C 17.269531 14.65625 17.261719 14.597656 17.226562 14.566406 C 17.1875 14.535156 17.136719 14.542969 17.105469 14.585938 " fill-opacity="1" fill-rule="nonzero"/><path fill="#2d253e" d="M 15.941406 16.796875 C 15.898438 16.796875 15.859375 16.773438 15.859375 16.714844 C 15.859375 16.65625 15.898438 16.632812 15.941406 16.632812 L 16.496094 16.632812 C 16.589844 16.632812 16.65625 16.703125 16.65625 16.796875 L 16.65625 17.113281 C 16.65625 17.175781 16.644531 17.226562 16.59375 17.269531 C 16.644531 17.316406 16.65625 17.363281 16.65625 17.429688 L 16.65625 17.746094 C 16.65625 17.839844 16.589844 17.910156 16.496094 17.910156 L 15.941406 17.910156 C 15.898438 17.910156 15.859375 17.886719 15.859375 17.828125 C 15.859375 17.769531 15.898438 17.746094 15.941406 17.746094 L 16.496094 17.746094 L 16.496094 17.472656 C 16.496094 17.378906 16.460938 17.351562 16.414062 17.351562 L 16.097656 17.351562 C 16.054688 17.351562 16.015625 17.328125 16.015625 17.269531 C 16.015625 17.210938 16.054688 17.1875 16.097656 17.1875 L 16.414062 17.1875 C 16.460938 17.1875 16.496094 17.160156 16.496094 17.070312 L 16.496094 16.796875 L 15.941406 16.796875 " fill-opacity="1" fill-rule="nonzero"/><path fill="#f0a77f" d="M 14.84375 12.128906 L 14.921875 12.273438 C 14.921875 12.273438 14.984375 12.289062 15.195312 12.367188 C 15.410156 12.445312 15.566406 12.726562 15.566406 12.726562 L 14.679688 12.730469 C 14.679688 12.730469 14.664062 12.597656 14.644531 12.570312 C 14.625 12.542969 14.386719 12.300781 14.386719 12.300781 C 14.386719 12.300781 14.472656 12.074219 14.515625 12.0625 C 14.558594 12.054688 14.84375 12.128906 14.84375 12.128906 " fill-opacity="1" fill-rule="nonzero"/><path fill="#468fab" d="M 14.910156 8.957031 C 14.910156 8.957031 14.714844 9.042969 14.574219 9.28125 C 14.429688 9.519531 13.800781 10.636719 13.757812 11.121094 C 13.730469 11.398438 14.359375 12.449219 14.4375 12.519531 C 14.515625 12.589844 14.566406 12.460938 14.734375 12.347656 C 14.871094 12.257812 14.984375 12.25 14.992188 12.222656 C 15 12.191406 14.480469 11.460938 14.464844 11.121094 C 14.457031 10.929688 15.09375 10.15625 15.09375 10.15625 L 15.347656 9.132812 L 14.910156 8.957031 " fill-opacity="1" fill-rule="nonzero"/><path fill="#f0a77f" d="M 17.371094 12.128906 L 17.292969 12.273438 C 17.292969 12.273438 17.230469 12.289062 17.019531 12.371094 C 16.804688 12.449219 16.671875 12.726562 16.671875 12.726562 L 17.546875 12.726562 C 17.546875 12.726562 17.566406 12.59375 17.585938 12.566406 C 17.605469 12.539062 17.828125 12.300781 17.828125 12.300781 C 17.828125 12.300781 17.742188 12.074219 17.699219 12.066406 C 17.65625 12.054688 17.371094 12.128906 17.371094 12.128906 " fill-opacity="1" fill-rule="nonzero"/><path fill="#468fab" d="M 17.300781 8.933594 C 17.300781 8.933594 17.5 9.046875 17.640625 9.28125 C 17.785156 9.519531 18.414062 10.636719 18.457031 11.121094 C 18.484375 11.402344 17.855469 12.449219 17.777344 12.519531 C 17.699219 12.589844 17.640625 12.425781 17.464844 12.320312 C 17.347656 12.253906 17.230469 12.253906 17.222656 12.222656 C 17.214844 12.191406 17.738281 11.460938 17.75 11.121094 C 17.757812 10.929688 17.125 10.15625 17.125 10.15625 L 16.867188 9.136719 L 17.300781 8.933594 " fill-opacity="1" fill-rule="nonzero"/><path fill="#3c839e" d="M 14.902344 10.328125 C 14.890625 10.328125 14.882812 10.320312 14.878906 10.308594 C 14.875 10.296875 14.773438 9.972656 14.769531 9.691406 C 14.765625 9.242188 14.839844 9.074219 14.84375 9.066406 C 14.851562 9.054688 14.867188 9.050781 14.878906 9.054688 C 14.894531 9.0625 14.898438 9.078125 14.894531 9.09375 C 14.894531 9.09375 14.816406 9.257812 14.824219 9.691406 C 14.824219 9.964844 14.929688 10.289062 14.929688 10.292969 C 14.933594 10.308594 14.925781 10.324219 14.910156 10.328125 C 14.910156 10.328125 14.90625 10.328125 14.902344 10.328125 " fill-opacity="1" fill-rule="nonzero"/><path fill="#3c839e" d="M 17.308594 10.402344 C 17.296875 10.402344 17.289062 10.394531 17.285156 10.382812 C 17.277344 10.363281 17.152344 9.953125 17.148438 9.671875 C 17.144531 9.222656 17.28125 9.015625 17.289062 9.007812 C 17.296875 8.996094 17.3125 8.992188 17.324219 9 C 17.335938 9.007812 17.339844 9.027344 17.332031 9.039062 C 17.332031 9.039062 17.199219 9.238281 17.203125 9.671875 C 17.207031 9.945312 17.335938 10.359375 17.335938 10.367188 C 17.339844 10.378906 17.332031 10.394531 17.316406 10.398438 C 17.316406 10.402344 17.3125 10.402344 17.308594 10.402344 " fill-opacity="1" fill-rule="nonzero"/><path fill="#f9be59" d="M 15.648438 13.554688 C 15.632812 13.554688 15.617188 13.542969 15.617188 13.519531 C 15.617188 13.496094 15.632812 13.488281 15.648438 13.488281 L 15.871094 13.488281 C 15.90625 13.488281 15.933594 13.515625 15.933594 13.554688 L 15.933594 13.679688 C 15.933594 13.707031 15.929688 13.726562 15.910156 13.742188 C 15.929688 13.761719 15.933594 13.78125 15.933594 13.808594 L 15.933594 13.933594 C 15.933594 13.96875 15.90625 14 15.871094 14 L 15.648438 14 C 15.632812 14 15.617188 13.988281 15.617188 13.964844 C 15.617188 13.941406 15.632812 13.933594 15.648438 13.933594 L 15.871094 13.933594 L 15.871094 13.824219 C 15.871094 13.789062 15.855469 13.777344 15.839844 13.777344 L 15.710938 13.777344 C 15.695312 13.777344 15.679688 13.765625 15.679688 13.742188 C 15.679688 13.71875 15.695312 13.710938 15.710938 13.710938 L 15.839844 13.710938 C 15.855469 13.710938 15.871094 13.699219 15.871094 13.664062 L 15.871094 13.554688 L 15.648438 13.554688 " fill-opacity="1" fill-rule="nonzero"/><path fill="#f9be59" d="M 16.335938 13.65625 L 16.335938 13.554688 L 16.144531 13.554688 L 16.144531 13.65625 Z M 16.335938 13.722656 L 16.113281 13.722656 C 16.097656 13.722656 16.082031 13.707031 16.082031 13.6875 L 16.082031 13.519531 C 16.082031 13.503906 16.097656 13.488281 16.113281 13.488281 L 16.367188 13.488281 C 16.386719 13.488281 16.402344 13.503906 16.402344 13.519531 L 16.402344 13.964844 C 16.402344 13.984375 16.386719 14 16.367188 14 L 16.335938 14 C 16.316406 14 16.304688 13.984375 16.304688 13.964844 C 16.304688 13.945312 16.316406 13.933594 16.335938 13.933594 L 16.335938 13.722656 " fill-opacity="1" fill-rule="nonzero"/><path fill="#f9be59" d="M 16.800781 13.933594 L 16.800781 13.554688 L 16.613281 13.554688 L 16.613281 13.933594 Z M 16.800781 13.488281 C 16.835938 13.488281 16.867188 13.515625 16.867188 13.554688 L 16.867188 13.933594 C 16.867188 13.96875 16.839844 14 16.800781 14 L 16.613281 14 C 16.574219 14 16.546875 13.96875 16.546875 13.933594 L 16.546875 13.554688 C 16.546875 13.515625 16.578125 13.488281 16.613281 13.488281 L 16.800781 13.488281 " fill-opacity="1" fill-rule="nonzero"/><path fill="#2d253e" d="M 2.542969 7.210938 C 2.542969 7.210938 2.574219 8.390625 2.597656 8.472656 C 2.621094 8.554688 2.683594 8.632812 2.683594 8.632812 L 1.859375 8.632812 C 1.6875 8.554688 1.730469 7.175781 1.863281 6.910156 C 2.027344 6.585938 2.410156 6.484375 2.644531 6.464844 C 2.878906 6.445312 3.496094 6.5625 3.621094 6.785156 C 3.957031 7.375 3.824219 8.339844 3.753906 8.59375 C 3.746094 8.625 3.71875 8.644531 3.683594 8.644531 L 2.984375 8.644531 L 2.542969 7.210938 " fill-opacity="1" fill-rule="nonzero"/><path fill="#f0a77f" d="M 3.527344 9.140625 C 3.527344 9.140625 3.835938 9.222656 4.050781 9.519531 C 4.472656 10.105469 4.640625 10.867188 4.816406 10.90625 C 4.875 10.917969 4.894531 10.855469 5.011719 10.691406 C 5.246094 10.367188 5.605469 9.808594 5.605469 9.808594 C 5.605469 9.808594 5.621094 9.339844 5.699219 9.199219 C 5.78125 9.058594 5.898438 9.109375 5.921875 9.109375 C 5.941406 9.109375 6.230469 8.832031 6.308594 8.882812 C 6.511719 9.015625 6.394531 9.347656 6.191406 9.617188 C 6.035156 9.824219 5.832031 10.007812 5.832031 10.007812 C 5.832031 10.007812 5.644531 10.648438 5.382812 11.117188 C 5.238281 11.378906 5.019531 11.582031 4.925781 11.609375 C 4.5 11.734375 3.695312 10.25 3.695312 10.25 L 3.527344 9.140625 " fill-opacity="1" fill-rule="nonzero"/><path fill="#f0a77f" d="M 3.207031 8.207031 L 3.105469 8.847656 L 3.054688 9.15625 C 3.054688 9.15625 2.898438 9.269531 2.761719 9.246094 C 2.628906 9.222656 2.367188 9.050781 2.378906 9.035156 C 2.386719 9.023438 2.4375 8.660156 2.460938 8.394531 C 2.472656 8.246094 2.484375 8.125 2.484375 8.125 L 3.207031 8.207031 " fill-opacity="1" fill-rule="nonzero"/><path fill="#e69060" d="M 3.207031 8.207031 L 3.105469 8.847656 C 2.972656 8.8125 2.84375 8.765625 2.753906 8.714844 C 2.613281 8.636719 2.515625 8.496094 2.460938 8.394531 C 2.472656 8.246094 2.484375 8.125 2.484375 8.125 L 3.207031 8.207031 " fill-opacity="1" fill-rule="nonzero"/><path fill="#f0a77f" d="M 3.25 8.628906 C 3.019531 8.648438 2.824219 8.546875 2.671875 8.402344 C 2.5625 8.300781 2.378906 8.042969 2.378906 8.042969 C 2.378906 8.042969 2.265625 8.03125 2.175781 7.960938 C 2.082031 7.890625 2 7.585938 2.128906 7.519531 C 2.253906 7.453125 2.328125 7.5625 2.328125 7.5625 C 2.328125 7.5625 2.332031 7.105469 2.503906 6.996094 C 2.671875 6.886719 2.9375 6.84375 2.988281 6.847656 C 3.039062 6.847656 3.277344 6.863281 3.433594 6.996094 C 3.507812 7.058594 3.558594 7.179688 3.585938 7.363281 C 3.589844 7.386719 3.59375 7.410156 3.597656 7.433594 C 3.605469 7.5 3.613281 7.570312 3.621094 7.648438 C 3.644531 7.996094 3.546875 8.609375 3.25 8.628906 " fill-opacity="1" fill-rule="nonzero"/><path fill="#2d253e" d="M 2.980469 7.667969 L 2.941406 7.667969 C 2.929688 7.667969 2.917969 7.65625 2.917969 7.640625 L 2.917969 7.546875 C 2.917969 7.535156 2.929688 7.523438 2.941406 7.523438 L 2.980469 7.523438 C 2.996094 7.523438 3.007812 7.535156 3.007812 7.546875 L 3.007812 7.640625 C 3.007812 7.65625 2.996094 7.667969 2.980469 7.667969 " fill-opacity="1" fill-rule="nonzero"/><path fill="#2d253e" d="M 3.464844 7.667969 L 3.425781 7.667969 C 3.410156 7.667969 3.398438 7.65625 3.398438 7.640625 L 3.398438 7.546875 C 3.398438 7.535156 3.410156 7.523438 3.425781 7.523438 L 3.464844 7.523438 C 3.476562 7.523438 3.488281 7.535156 3.488281 7.546875 L 3.488281 7.640625 C 3.488281 7.65625 3.476562 7.667969 3.464844 7.667969 " fill-opacity="1" fill-rule="nonzero"/><path fill="#2d253e" d="M 2.804688 7.378906 C 2.828125 7.351562 2.867188 7.339844 2.949219 7.332031 C 3.035156 7.328125 3.09375 7.332031 3.089844 7.363281 C 3.085938 7.382812 3.007812 7.402344 2.960938 7.402344 C 2.914062 7.40625 2.828125 7.425781 2.816406 7.410156 C 2.800781 7.398438 2.800781 7.382812 2.804688 7.378906 " fill-opacity="1" fill-rule="nonzero"/><path fill="#2d253e" d="M 3.597656 7.433594 C 3.566406 7.433594 3.515625 7.425781 3.484375 7.421875 C 3.4375 7.421875 3.363281 7.402344 3.359375 7.382812 C 3.355469 7.351562 3.414062 7.347656 3.496094 7.351562 C 3.535156 7.351562 3.566406 7.359375 3.585938 7.363281 C 3.589844 7.386719 3.59375 7.410156 3.597656 7.433594 " fill-opacity="1" fill-rule="nonzero"/><path fill="#e69060" d="M 3.371094 7.921875 Z M 3.289062 8.035156 C 3.277344 8.035156 3.269531 8.03125 3.261719 8.019531 C 3.257812 8.007812 3.261719 7.992188 3.273438 7.984375 C 3.320312 7.960938 3.363281 7.929688 3.371094 7.917969 C 3.363281 7.890625 3.308594 7.804688 3.265625 7.730469 C 3.257812 7.71875 3.261719 7.703125 3.273438 7.691406 C 3.285156 7.683594 3.300781 7.6875 3.308594 7.703125 C 3.335938 7.742188 3.417969 7.875 3.425781 7.90625 C 3.433594 7.941406 3.390625 7.984375 3.300781 8.03125 C 3.296875 8.035156 3.292969 8.035156 3.289062 8.035156 " fill-opacity="1" fill-rule="nonzero"/><path fill="#ffffff" d="M 3.027344 8.15625 C 3.078125 8.109375 3.203125 8.183594 3.253906 8.183594 C 3.3125 8.183594 3.410156 8.179688 3.421875 8.199219 C 3.433594 8.222656 3.382812 8.339844 3.234375 8.324219 C 3.027344 8.300781 2.996094 8.183594 3.027344 8.15625 " fill-opacity="1" fill-rule="nonzero"/><path fill="#f0a77f" d="M 2.417969 8.886719 C 2.417969 8.886719 2.152344 9.214844 2.0625 9.25 C 1.976562 9.285156 1.957031 9.46875 1.957031 9.496094 C 1.957031 9.527344 1.925781 10.023438 1.957031 10.105469 C 1.992188 10.191406 2.285156 10.363281 2.488281 10.507812 C 2.695312 10.652344 2.644531 10.667969 2.945312 10.722656 C 3.246094 10.773438 3.410156 10.753906 3.523438 10.675781 C 3.636719 10.597656 3.761719 9.585938 3.761719 9.585938 L 3.445312 9.144531 C 3.445312 9.144531 3.242188 9.0625 3.164062 9.023438 C 3.082031 8.980469 3.007812 8.917969 3.007812 8.917969 L 2.699219 8.886719 L 2.417969 8.886719 " fill-opacity="1" fill-rule="nonzero"/><path fill="#b39899" d="M 4.164062 13.007812 C 4.179688 13.140625 3.945312 13.117188 3.84375 13.164062 C 3.742188 13.210938 3.617188 13.246094 2.964844 13.164062 C 2.3125 13.082031 2.054688 13.050781 2.039062 12.960938 C 2.027344 12.871094 2.167969 12.433594 2.136719 12.230469 C 2.109375 12.03125 2.035156 11.730469 1.976562 11.570312 C 1.929688 11.421875 1.722656 10.75 1.617188 10.308594 C 1.609375 10.261719 1.597656 10.214844 1.589844 10.175781 C 1.503906 9.753906 1.683594 9.320312 1.734375 9.285156 C 1.785156 9.25 2.40625 8.847656 2.40625 8.847656 L 3.089844 8.9375 C 3.089844 8.9375 3.523438 9.085938 3.621094 9.175781 C 3.746094 9.285156 3.847656 9.410156 3.964844 9.800781 C 4.078125 10.191406 4.074219 10.675781 4.066406 10.949219 C 4.066406 11.105469 4.054688 11.402344 4.042969 11.660156 C 4.035156 11.855469 4.03125 12.027344 4.03125 12.109375 C 4.039062 12.304688 4.152344 12.878906 4.164062 13.007812 " fill-opacity="1" fill-rule="nonzero"/><path fill="#f0a77f" d="M 2.40625 8.847656 C 2.40625 8.847656 2.636719 9.175781 2.785156 9.457031 C 2.929688 9.726562 3.15625 10.0625 3.15625 10.0625 C 3.15625 10.0625 3.15625 9.875 3.15625 9.488281 C 3.15625 9.101562 3.089844 8.9375 3.089844 8.9375 L 2.621094 8.730469 L 2.40625 8.847656 " fill-opacity="1" fill-rule="nonzero"/><path fill="#997c7f" d="M 4.164062 13.007812 C 4.179688 13.140625 3.945312 13.117188 3.84375 13.164062 C 3.742188 13.210938 3.617188 13.246094 2.964844 13.164062 C 2.3125 13.082031 2.054688 13.050781 2.039062 12.960938 C 2.027344 12.871094 2.167969 12.433594 2.136719 12.230469 C 2.109375 12.03125 2.035156 11.730469 1.976562 11.570312 C 1.929688 11.421875 1.722656 10.75 1.617188 10.308594 C 1.808594 10.195312 1.957031 10.105469 1.957031 10.105469 C 1.957031 10.105469 2.105469 11.046875 2.617188 11.539062 C 3.023438 11.929688 3.753906 11.753906 4.042969 11.660156 C 4.035156 11.855469 4.03125 12.027344 4.03125 12.109375 C 4.039062 12.304688 4.152344 12.878906 4.164062 13.007812 " fill-opacity="1" fill-rule="nonzero"/><path fill="#fdecde" d="M 3.679688 12.765625 C 3.679688 13.054688 3.398438 13.175781 3.050781 13.175781 C 2.703125 13.175781 2.421875 13.050781 2.421875 12.761719 C 2.421875 12.472656 2.589844 12.128906 3.050781 12.128906 C 3.519531 12.128906 3.679688 12.476562 3.679688 12.765625 " fill-opacity="1" fill-rule="nonzero"/><path fill="#3e3da1" d="M 4.386719 19.894531 L 1.71875 19.894531 L 1.152344 13.914062 L 4.953125 13.914062 L 4.386719 19.894531 " fill-opacity="1" fill-rule="nonzero"/><path fill="#5858ba" d="M 1.152344 12.730469 L 1.152344 13.917969 L 2.066406 14.863281 L 4.035156 14.863281 L 4.953125 13.917969 L 4.953125 12.730469 L 1.152344 12.730469 " fill-opacity="1" fill-rule="nonzero"/><path fill="#fdecde" d="M 1.671875 13.621094 C 1.671875 13.789062 1.734375 13.949219 1.84375 14.0625 L 2.183594 14.410156 C 2.28125 14.511719 2.414062 14.570312 2.546875 14.570312 L 3.554688 14.570312 C 3.691406 14.570312 3.820312 14.511719 3.917969 14.410156 L 4.257812 14.0625 C 4.367188 13.949219 4.429688 13.789062 4.429688 13.621094 C 4.429688 13.289062 4.1875 13.023438 3.890625 13.023438 L 2.210938 13.023438 C 1.914062 13.023438 1.671875 13.289062 1.671875 13.621094 " fill-opacity="1" fill-rule="nonzero"/><path fill="#d65345" d="M 1.789062 13.640625 C 1.789062 13.789062 1.847656 13.929688 1.945312 14.03125 L 2.257812 14.34375 C 2.347656 14.433594 2.46875 14.484375 2.589844 14.484375 L 3.511719 14.484375 C 3.636719 14.484375 3.753906 14.433594 3.847656 14.34375 L 4.15625 14.03125 C 4.257812 13.929688 4.3125 13.789062 4.3125 13.640625 C 4.3125 13.347656 4.09375 13.105469 3.820312 13.105469 L 2.28125 13.105469 C 2.011719 13.105469 1.789062 13.347656 1.789062 13.640625 " fill-opacity="1" fill-rule="nonzero"/><path fill="#5858ba" d="M 5.382812 13.914062 L 4.953125 13.914062 L 4.953125 12.730469 L 5.382812 12.730469 C 5.503906 12.730469 5.601562 12.828125 5.601562 12.953125 L 5.601562 13.6875 C 5.601562 13.8125 5.503906 13.914062 5.382812 13.914062 " fill-opacity="1" fill-rule="nonzero"/><g clip-path="url(#5ce24cd10d)"><path fill="#5858ba" d="M 1.152344 12.726562 L 1.152344 13.914062 L 0.785156 13.914062 C 0.628906 13.914062 0.5 13.773438 0.5 13.597656 L 0.5 13.046875 C 0.5 12.871094 0.628906 12.726562 0.785156 12.726562 L 1.152344 12.726562 " fill-opacity="1" fill-rule="nonzero"/></g><path fill="#5858ba" d="M 3.769531 19.894531 L 2.332031 19.894531 C 2.1875 19.894531 2.066406 19.773438 2.066406 19.625 L 2.066406 14.863281 L 4.035156 14.863281 L 4.035156 19.625 C 4.035156 19.773438 3.917969 19.894531 3.769531 19.894531 " fill-opacity="1" fill-rule="nonzero"/><path fill="#f9be59" d="M 3.757812 19.6875 L 2.347656 19.6875 C 2.253906 19.6875 2.183594 19.613281 2.183594 19.523438 L 2.183594 15.234375 C 2.183594 15.144531 2.253906 15.070312 2.347656 15.070312 L 3.757812 15.070312 C 3.847656 15.070312 3.921875 15.144531 3.921875 15.234375 L 3.921875 19.523438 C 3.921875 19.613281 3.847656 19.6875 3.757812 19.6875 " fill-opacity="1" fill-rule="nonzero"/><g clip-path="url(#4abc8d62c9)"><path fill="#5858ba" d="M 4.761719 21.027344 L 1.339844 21.027344 L 1.339844 20.324219 C 1.339844 20.242188 1.40625 20.175781 1.488281 20.175781 L 4.617188 20.175781 C 4.695312 20.175781 4.761719 20.242188 4.761719 20.324219 L 4.761719 21.027344 " fill-opacity="1" fill-rule="nonzero"/></g><path fill="#3e3da1" d="M 4.386719 19.894531 L 1.71875 19.894531 L 1.519531 20.175781 L 4.582031 20.175781 L 4.386719 19.894531 " fill-opacity="1" fill-rule="nonzero"/><g clip-path="url(#dc5e9bcd51)"><path fill="#3e3da1" d="M 4.761719 21.027344 L 1.339844 21.027344 C 1.230469 21.117188 1.289062 21.308594 1.421875 21.308594 L 4.679688 21.308594 C 4.816406 21.308594 4.871094 21.117188 4.761719 21.027344 " fill-opacity="1" fill-rule="nonzero"/></g><path fill="#f9be59" d="M 1.4375 13.890625 C 1.4375 13.941406 1.398438 13.984375 1.351562 13.984375 C 1.304688 13.984375 1.269531 13.941406 1.269531 13.890625 C 1.269531 13.839844 1.304688 13.796875 1.351562 13.796875 C 1.398438 13.796875 1.4375 13.839844 1.4375 13.890625 " fill-opacity="1" fill-rule="nonzero"/><path fill="#f9be59" d="M 1.652344 14.078125 C 1.652344 14.128906 1.613281 14.171875 1.566406 14.171875 C 1.523438 14.171875 1.484375 14.128906 1.484375 14.078125 C 1.484375 14.027344 1.523438 13.984375 1.566406 13.984375 C 1.613281 13.984375 1.652344 14.027344 1.652344 14.078125 " fill-opacity="1" fill-rule="nonzero"/><path fill="#f9be59" d="M 1.824219 14.207031 C 1.851562 14.25 1.84375 14.308594 1.808594 14.339844 C 1.773438 14.371094 1.71875 14.363281 1.691406 14.324219 C 1.664062 14.28125 1.667969 14.222656 1.707031 14.191406 C 1.742188 14.160156 1.796875 14.167969 1.824219 14.207031 " fill-opacity="1" fill-rule="nonzero"/><path fill="#f9be59" d="M 2.003906 14.382812 C 2.03125 14.421875 2.023438 14.480469 1.988281 14.511719 C 1.953125 14.542969 1.898438 14.535156 1.871094 14.496094 C 1.84375 14.453125 1.847656 14.394531 1.886719 14.363281 C 1.921875 14.332031 1.976562 14.339844 2.003906 14.382812 " fill-opacity="1" fill-rule="nonzero"/><path fill="#f9be59" d="M 2.1875 14.585938 C 2.214844 14.625 2.207031 14.683594 2.171875 14.714844 C 2.132812 14.75 2.082031 14.738281 2.050781 14.699219 C 2.023438 14.65625 2.03125 14.597656 2.066406 14.566406 C 2.105469 14.535156 2.160156 14.542969 2.1875 14.585938 " fill-opacity="1" fill-rule="nonzero"/><path fill="#f9be59" d="M 4.667969 13.890625 C 4.667969 13.941406 4.703125 13.984375 4.75 13.984375 C 4.796875 13.984375 4.835938 13.941406 4.835938 13.890625 C 4.835938 13.839844 4.796875 13.796875 4.75 13.796875 C 4.703125 13.796875 4.667969 13.839844 4.667969 13.890625 " fill-opacity="1" fill-rule="nonzero"/><path fill="#f9be59" d="M 4.449219 14.078125 C 4.449219 14.128906 4.488281 14.171875 4.535156 14.171875 C 4.582031 14.171875 4.617188 14.128906 4.617188 14.078125 C 4.617188 14.027344 4.582031 13.984375 4.535156 13.984375 C 4.488281 13.984375 4.449219 14.027344 4.449219 14.078125 " fill-opacity="1" fill-rule="nonzero"/><path fill="#f9be59" d="M 4.277344 14.207031 C 4.25 14.25 4.257812 14.308594 4.292969 14.339844 C 4.332031 14.371094 4.382812 14.363281 4.414062 14.324219 C 4.441406 14.28125 4.433594 14.222656 4.394531 14.191406 C 4.359375 14.160156 4.304688 14.167969 4.277344 14.207031 " fill-opacity="1" fill-rule="nonzero"/><path fill="#f9be59" d="M 4.097656 14.382812 C 4.070312 14.421875 4.078125 14.480469 4.113281 14.511719 C 4.152344 14.542969 4.203125 14.535156 4.234375 14.496094 C 4.261719 14.453125 4.253906 14.394531 4.214844 14.363281 C 4.179688 14.332031 4.125 14.339844 4.097656 14.382812 " fill-opacity="1" fill-rule="nonzero"/><path fill="#f9be59" d="M 3.917969 14.585938 C 3.886719 14.625 3.894531 14.683594 3.933594 14.714844 C 3.96875 14.75 4.023438 14.738281 4.050781 14.699219 C 4.078125 14.65625 4.070312 14.597656 4.035156 14.566406 C 3.996094 14.535156 3.945312 14.542969 3.917969 14.585938 " fill-opacity="1" fill-rule="nonzero"/><g clip-path="url(#a82ec17ce6)"><path fill="#f0a77f" d="M 1.707031 9.3125 C 1.757812 9.265625 1.902344 9.203125 2.039062 9.351562 C 2.210938 9.542969 2.105469 10.15625 1.941406 10.566406 C 1.777344 10.976562 1.433594 12.160156 1.171875 12.183594 C 0.910156 12.207031 0.761719 12.011719 0.84375 11.777344 C 0.925781 11.546875 1.292969 10.257812 1.34375 10.109375 C 1.402344 9.945312 1.457031 9.554688 1.707031 9.3125 " fill-opacity="1" fill-rule="nonzero"/></g><g clip-path="url(#235fb7f33e)"><path fill="#f0a77f" d="M 1.066406 11.8125 C 1.066406 11.8125 1.117188 11.628906 1.433594 11.613281 C 1.753906 11.597656 2.585938 11.777344 2.585938 11.777344 C 2.585938 11.777344 3.074219 11.542969 3.140625 11.539062 C 3.203125 11.535156 3.703125 11.734375 3.679688 11.847656 C 3.65625 11.957031 3.320312 11.882812 3.210938 11.875 C 3.097656 11.871094 2.746094 12.089844 2.628906 12.082031 C 2.515625 12.070312 1.1875 12.355469 0.898438 12.097656 C 0.828125 12.039062 1.066406 11.8125 1.066406 11.8125 " fill-opacity="1" fill-rule="nonzero"/></g><path fill="#2d253e" d="M 3.558594 6.992188 C 3.558594 6.992188 3.542969 7.144531 3.058594 7.214844 C 2.578125 7.28125 2.347656 7.347656 2.347656 7.347656 C 2.347656 7.347656 1.902344 7.105469 1.941406 7.058594 C 1.984375 7.015625 2.128906 6.660156 2.339844 6.613281 C 2.546875 6.570312 2.875 6.5 3.015625 6.53125 C 3.15625 6.558594 3.558594 6.992188 3.558594 6.992188 " fill-opacity="1" fill-rule="nonzero"/><path fill="#2d253e" d="M 2.644531 7.140625 C 2.644531 7.140625 2.582031 7.5625 2.597656 7.949219 C 2.613281 8.308594 2.75 8.632812 2.683594 8.632812 C 2.640625 8.632812 1.960938 8.632812 1.960938 8.632812 L 2.019531 6.882812 L 2.433594 6.816406 L 2.644531 7.140625 " fill-opacity="1" fill-rule="nonzero"/><path fill="#2d253e" d="M 3.335938 17.746094 L 3.335938 17.414062 C 3.335938 17.367188 3.355469 17.332031 3.414062 17.332031 C 3.476562 17.332031 3.496094 17.367188 3.496094 17.414062 L 3.496094 17.828125 C 3.496094 17.886719 3.457031 17.910156 3.414062 17.910156 L 2.777344 17.910156 C 2.738281 17.910156 2.699219 17.886719 2.699219 17.828125 C 2.699219 17.769531 2.738281 17.746094 2.777344 17.746094 L 3.015625 17.746094 L 3.015625 16.796875 L 2.777344 16.796875 C 2.738281 16.796875 2.699219 16.773438 2.699219 16.714844 C 2.699219 16.65625 2.738281 16.632812 2.777344 16.632812 L 3.179688 16.632812 L 3.179688 17.746094 L 3.335938 17.746094 " fill-opacity="1" fill-rule="nonzero"/><path fill="#997c7f" d="M 2.699219 11.566406 C 2.691406 11.566406 2.683594 11.5625 2.679688 11.554688 C 2.667969 11.542969 2.671875 11.527344 2.683594 11.515625 C 2.6875 11.515625 2.882812 11.375 3.027344 10.980469 C 3.171875 10.578125 3.128906 10.15625 3.128906 10.152344 C 3.128906 10.136719 3.136719 10.121094 3.152344 10.121094 C 3.167969 10.117188 3.179688 10.128906 3.183594 10.144531 C 3.183594 10.164062 3.226562 10.585938 3.078125 11 C 2.925781 11.414062 2.722656 11.554688 2.714844 11.5625 C 2.710938 11.566406 2.707031 11.566406 2.699219 11.566406 " fill-opacity="1" fill-rule="nonzero"/><path fill="#f9be59" d="M 2.648438 13.765625 L 2.648438 13.578125 C 2.648438 13.558594 2.65625 13.542969 2.679688 13.542969 C 2.707031 13.542969 2.714844 13.558594 2.714844 13.578125 L 2.714844 13.765625 C 2.730469 13.765625 2.746094 13.773438 2.746094 13.800781 C 2.746094 13.824219 2.730469 13.832031 2.714844 13.832031 L 2.714844 13.964844 C 2.714844 13.988281 2.703125 14 2.679688 14 C 2.65625 14 2.648438 13.988281 2.648438 13.964844 L 2.648438 13.832031 L 2.457031 13.832031 L 2.457031 13.519531 C 2.457031 13.503906 2.464844 13.488281 2.492188 13.488281 C 2.515625 13.488281 2.523438 13.503906 2.523438 13.519531 L 2.523438 13.765625 L 2.648438 13.765625 " fill-opacity="1" fill-rule="nonzero"/><path fill="#f9be59" d="M 2.925781 13.554688 C 2.90625 13.554688 2.890625 13.542969 2.890625 13.519531 C 2.890625 13.496094 2.90625 13.488281 2.925781 13.488281 L 3.144531 13.488281 C 3.183594 13.488281 3.210938 13.515625 3.210938 13.554688 L 3.210938 13.679688 C 3.210938 13.707031 3.207031 13.726562 3.1875 13.742188 C 3.207031 13.761719 3.210938 13.78125 3.210938 13.808594 L 3.210938 13.933594 C 3.210938 13.96875 3.183594 14 3.144531 14 L 2.925781 14 C 2.90625 14 2.890625 13.988281 2.890625 13.964844 C 2.890625 13.941406 2.90625 13.933594 2.925781 13.933594 L 3.144531 13.933594 L 3.144531 13.824219 C 3.144531 13.789062 3.132812 13.777344 3.113281 13.777344 L 2.988281 13.777344 C 2.96875 13.777344 2.957031 13.765625 2.957031 13.742188 C 2.957031 13.71875 2.96875 13.710938 2.988281 13.710938 L 3.113281 13.710938 C 3.132812 13.710938 3.144531 13.699219 3.144531 13.664062 L 3.144531 13.554688 L 2.925781 13.554688 " fill-opacity="1" fill-rule="nonzero"/><path fill="#f9be59" d="M 3.613281 13.933594 L 3.613281 13.554688 L 3.421875 13.554688 L 3.421875 13.933594 Z M 3.613281 13.488281 C 3.648438 13.488281 3.675781 13.515625 3.675781 13.554688 L 3.675781 13.933594 C 3.675781 13.96875 3.648438 14 3.613281 14 L 3.421875 14 C 3.386719 14 3.355469 13.96875 3.355469 13.933594 L 3.355469 13.554688 C 3.355469 13.515625 3.386719 13.488281 3.421875 13.488281 L 3.613281 13.488281 " fill-opacity="1" fill-rule="nonzero"/></svg>