<svg xmlns="http://www.w3.org/2000/svg" xmlns:xlink="http://www.w3.org/1999/xlink" width="40" zoomAndPan="magnify" viewBox="0 0 30 30.000001" height="40" preserveAspectRatio="xMidYMid meet" version="1.0"><defs><filter x="0%" y="0%" width="100%" height="100%" id="d666d543e5"><feColorMatrix values="0 0 0 0 1 0 0 0 0 1 0 0 0 0 1 0 0 0 1 0" color-interpolation-filters="sRGB"/></filter><clipPath id="472d41518c"><path d="M 0.484375 0 L 29.515625 0 L 29.515625 29.03125 L 0.484375 29.03125 Z M 0.484375 0 " clip-rule="nonzero"/></clipPath><clipPath id="a22a6d8e2e"><path d="M 0.484375 0.679688 L 29.515625 0.679688 L 29.515625 28.988281 L 0.484375 28.988281 Z M 0.484375 0.679688 " clip-rule="nonzero"/></clipPath><clipPath id="54eb431ded"><path d="M 0.484375 16 L 12 16 L 12 28 L 0.484375 28 Z M 0.484375 16 " clip-rule="nonzero"/></clipPath><clipPath id="d992f2e944"><path d="M 0.484375 16 L 13 16 L 13 19 L 0.484375 19 Z M 0.484375 16 " clip-rule="nonzero"/></clipPath><clipPath id="886b515950"><path d="M 0.484375 14 L 13 14 L 13 18 L 0.484375 18 Z M 0.484375 14 " clip-rule="nonzero"/></clipPath><clipPath id="7800fa570b"><path d="M 0.484375 10 L 3 10 L 3 16 L 0.484375 16 Z M 0.484375 10 " clip-rule="nonzero"/></clipPath><clipPath id="6f8b6a746e"><path d="M 0.484375 10 L 3 10 L 3 16 L 0.484375 16 Z M 0.484375 10 " clip-rule="nonzero"/></clipPath><clipPath id="e876aec53a"><path d="M 0.484375 16 L 8 16 L 8 17 L 0.484375 17 Z M 0.484375 16 " clip-rule="nonzero"/></clipPath><clipPath id="1fcdf9f19d"><path d="M 0.484375 9 L 4 9 L 4 13 L 0.484375 13 Z M 0.484375 9 " clip-rule="nonzero"/></clipPath><clipPath id="57f1f66837"><path d="M 0.484375 13 L 5 13 L 5 17 L 0.484375 17 Z M 0.484375 13 " clip-rule="nonzero"/></clipPath><mask id="403fcfc8af"><g filter="url(#d666d543e5)"><rect x="-3" width="36" fill="#000000" y="-3" height="36.000001" fill-opacity="0.098"/></g></mask><clipPath id="3538aad360"><path d="M 0.59375 0.0390625 L 6 0.0390625 L 6 4.453125 L 0.59375 4.453125 Z M 0.59375 0.0390625 " clip-rule="nonzero"/></clipPath><clipPath id="f50334f60d"><rect x="0" width="7" y="0" height="5"/></clipPath><clipPath id="42384c5e9f"><path d="M 20 18 L 22 18 L 22 28.988281 L 20 28.988281 Z M 20 18 " clip-rule="nonzero"/></clipPath><clipPath id="8e3ef26488"><path d="M 29 18 L 29.515625 18 L 29.515625 24 L 29 24 Z M 29 18 " clip-rule="nonzero"/></clipPath><clipPath id="caf1432f54"><path d="M 19 19 L 29.515625 19 L 29.515625 23 L 19 23 Z M 19 19 " clip-rule="nonzero"/></clipPath><clipPath id="fd146bbd34"><path d="M 19 20 L 29.515625 20 L 29.515625 24 L 19 24 Z M 19 20 " clip-rule="nonzero"/></clipPath><clipPath id="74b59dbfee"><path d="M 27 9 L 29.515625 9 L 29.515625 24 L 27 24 Z M 27 9 " clip-rule="nonzero"/></clipPath><clipPath id="ca76326822"><path d="M 22 18 L 29.515625 18 L 29.515625 28 L 22 28 Z M 22 18 " clip-rule="nonzero"/></clipPath><clipPath id="2d41cd259c"><path d="M 25 8 L 29.515625 8 L 29.515625 13 L 25 13 Z M 25 8 " clip-rule="nonzero"/></clipPath><clipPath id="db4736ec1a"><path d="M 25 4 L 29.515625 4 L 29.515625 10 L 25 10 Z M 25 4 " clip-rule="nonzero"/></clipPath><clipPath id="e4c3fc65d5"><path d="M 17 16 L 29.515625 16 L 29.515625 19 L 17 19 Z M 17 16 " clip-rule="nonzero"/></clipPath><clipPath id="a6d43a9af8"><path d="M 18 18 L 19 18 L 19 28.988281 L 18 28.988281 Z M 18 18 " clip-rule="nonzero"/></clipPath><clipPath id="c19bc06788"><path d="M 23 16 L 29.515625 16 L 29.515625 18 L 23 18 Z M 23 16 " clip-rule="nonzero"/></clipPath><clipPath id="396cd6b893"><path d="M 24 14 L 29.515625 14 L 29.515625 17 L 24 17 Z M 24 14 " clip-rule="nonzero"/></clipPath><clipPath id="a040e31095"><path d="M 24 14 L 29.515625 14 L 29.515625 18 L 24 18 Z M 24 14 " clip-rule="nonzero"/></clipPath><clipPath id="a7f763e9c4"><path d="M 25 4 L 29.515625 4 L 29.515625 11 L 25 11 Z M 25 4 " clip-rule="nonzero"/></clipPath><mask id="a247180e60"><g filter="url(#d666d543e5)"><rect x="-3" width="36" fill="#000000" y="-3" height="36.000001" fill-opacity="0.098"/></g></mask><clipPath id="9261f1359d"><path d="M 2 0.644531 L 3 0.644531 L 3 2 L 2 2 Z M 2 0.644531 " clip-rule="nonzero"/></clipPath><clipPath id="ebdc4a8a65"><path d="M 4 2 L 4.515625 2 L 4.515625 3 L 4 3 Z M 4 2 " clip-rule="nonzero"/></clipPath><clipPath id="3ddd353bd2"><path d="M 0.101562 2 L 2 2 L 2 3 L 0.101562 3 Z M 0.101562 2 " clip-rule="nonzero"/></clipPath><clipPath id="183d22e450"><path d="M 0.101562 4 L 4.515625 4 L 4.515625 6 L 0.101562 6 Z M 0.101562 4 " clip-rule="nonzero"/></clipPath><clipPath id="07b78126b9"><rect x="0" width="5" y="0" height="7"/></clipPath></defs><g clip-path="url(#472d41518c)"><path fill="#ffffff" d="M 0.484375 0 L 29.515625 0 L 29.515625 29.03125 L 0.484375 29.03125 Z M 0.484375 0 " fill-opacity="1" fill-rule="nonzero"/><path fill="#ffffff" d="M 0.484375 0 L 29.515625 0 L 29.515625 29.03125 L 0.484375 29.03125 Z M 0.484375 0 " fill-opacity="1" fill-rule="nonzero"/></g><g clip-path="url(#a22a6d8e2e)"><path fill="#6c63ff" d="M 31.847656 17.058594 C 31.847656 17.082031 31.847656 17.101562 31.847656 17.125 C 31.84375 17.492188 31.824219 17.859375 31.78125 18.226562 C 31.78125 18.226562 31.78125 18.230469 31.78125 18.230469 C 31.777344 18.261719 31.777344 18.292969 31.773438 18.324219 C 31.765625 18.375 31.757812 18.425781 31.753906 18.476562 C 31.671875 19.105469 31.535156 19.71875 31.347656 20.324219 C 31.09375 21.144531 30.742188 21.917969 30.285156 22.644531 C 30.148438 22.867188 30 23.082031 29.84375 23.289062 C 29.757812 23.398438 29.671875 23.507812 29.585938 23.613281 C 29.523438 23.6875 29.460938 23.757812 29.394531 23.832031 L 29.355469 23.875 C 29.015625 24.246094 28.652344 24.589844 28.265625 24.90625 C 27.628906 25.429688 26.949219 25.882812 26.253906 26.304688 C 26.214844 26.328125 26.175781 26.351562 26.136719 26.375 C 26.132812 26.375 26.128906 26.378906 26.128906 26.378906 C 25.183594 26.945312 24.207031 27.457031 23.203125 27.867188 C 22.097656 28.316406 20.960938 28.640625 19.792969 28.785156 C 18.167969 28.984375 16.519531 28.820312 14.902344 28.542969 C 13.554688 28.3125 12.230469 28 10.921875 27.597656 L 10.707031 27.53125 C 10.597656 27.496094 10.484375 27.460938 10.375 27.421875 C 9.703125 27.203125 9.042969 26.957031 8.386719 26.6875 C 6.734375 26.011719 5.171875 25.175781 3.691406 24.183594 C 3.503906 24.058594 3.320312 23.929688 3.136719 23.796875 C 2.882812 23.613281 2.628906 23.425781 2.378906 23.234375 L 2.226562 23.117188 C 1.574219 22.609375 0.96875 22.050781 0.402344 21.449219 C -0.355469 20.628906 -1.003906 19.703125 -1.429688 18.648438 C -1.496094 18.484375 -1.558594 18.3125 -1.613281 18.140625 L -1.617188 18.125 C -1.644531 18.039062 -1.671875 17.949219 -1.695312 17.859375 C -1.730469 17.726562 -1.761719 17.597656 -1.789062 17.464844 C -1.792969 17.4375 -1.800781 17.410156 -1.804688 17.386719 C -1.886719 16.9375 -1.925781 16.480469 -1.914062 16.023438 C -1.90625 15.621094 -1.859375 15.226562 -1.773438 14.832031 C -1.6875 14.425781 -1.554688 14.035156 -1.375 13.65625 C -1.214844 13.320312 -1.011719 13.007812 -0.765625 12.722656 C -0.59375 12.523438 -0.402344 12.34375 -0.191406 12.1875 C 0.191406 11.90625 0.617188 11.707031 1.054688 11.550781 C 1.261719 11.480469 1.46875 11.414062 1.679688 11.355469 C 1.828125 11.3125 1.980469 11.269531 2.128906 11.230469 L 2.566406 11.113281 C 2.847656 11.035156 3.128906 10.957031 3.40625 10.875 C 4.164062 10.644531 4.90625 10.367188 5.589844 9.953125 C 5.699219 9.886719 5.808594 9.816406 5.921875 9.738281 C 6.0625 9.640625 6.199219 9.535156 6.335938 9.421875 C 6.476562 9.304688 6.613281 9.179688 6.742188 9.050781 C 6.761719 9.03125 6.78125 9.011719 6.800781 8.988281 C 6.90625 8.878906 7.007812 8.761719 7.105469 8.640625 C 7.152344 8.582031 7.195312 8.523438 7.238281 8.460938 C 7.296875 8.378906 7.355469 8.292969 7.40625 8.203125 C 7.667969 7.761719 7.828125 7.277344 7.808594 6.765625 C 7.808594 6.679688 7.800781 6.59375 7.789062 6.511719 C 7.742188 6.203125 7.699219 5.902344 7.664062 5.605469 C 7.53125 4.386719 7.585938 3.277344 8.507812 2.238281 C 9.652344 0.945312 11.453125 0.679688 13.089844 0.785156 C 17.820312 1.082031 22.128906 3.769531 25.914062 6.96875 C 26.242188 7.242188 26.566406 7.523438 26.886719 7.808594 C 26.964844 7.878906 27.046875 7.949219 27.128906 8.023438 C 27.726562 8.558594 28.316406 9.113281 28.863281 9.710938 C 28.910156 9.757812 28.953125 9.804688 28.996094 9.855469 C 29.023438 9.886719 29.050781 9.914062 29.078125 9.945312 C 29.246094 10.136719 29.414062 10.335938 29.574219 10.539062 C 30.007812 11.074219 30.386719 11.644531 30.714844 12.253906 C 31.214844 13.207031 31.546875 14.21875 31.710938 15.285156 C 31.773438 15.671875 31.8125 16.058594 31.832031 16.449219 C 31.839844 16.5625 31.84375 16.675781 31.84375 16.792969 C 31.84375 16.828125 31.84375 16.863281 31.84375 16.902344 C 31.847656 16.953125 31.847656 17.007812 31.847656 17.058594 Z M 31.847656 17.058594 " fill-opacity="0.098" fill-rule="nonzero"/></g><path fill="#3f3d56" d="M 11.953125 16.472656 L 11.390625 26.441406 L 11.953125 26.449219 L 12.414062 16.332031 Z M 11.953125 16.472656 " fill-opacity="1" fill-rule="nonzero"/><path fill="#6c63ff" d="M 2.90625 21.523438 L 9.878906 21.523438 L 9.878906 23.027344 L 2.90625 23.027344 Z M 2.90625 21.523438 " fill-opacity="1" fill-rule="nonzero"/><path fill="#3f3d56" d="M 10.335938 22.851562 L 10.335938 23.796875 L 3.132812 23.796875 C 2.878906 23.617188 2.628906 23.429688 2.378906 23.234375 L 2.378906 22.851562 Z M 10.335938 22.851562 " fill-opacity="1" fill-rule="nonzero"/><g clip-path="url(#54eb431ded)"><path fill="#35323e" d="M 11.773438 20.703125 C 11.753906 20.792969 11.726562 20.882812 11.699219 20.972656 C 11.621094 21.230469 11.523438 21.484375 11.507812 21.753906 C 11.480469 22.105469 11.578125 22.519531 11.328125 22.777344 C 11.265625 22.84375 11.183594 22.890625 11.128906 22.964844 C 11.117188 22.972656 11.109375 22.984375 11.101562 23 C 11.050781 23.082031 11.046875 23.183594 11.046875 23.277344 C 11.046875 23.480469 11.058594 23.683594 11.085938 23.886719 C 11.167969 24.578125 11.332031 25.273438 11.117188 25.925781 C 11.078125 26.042969 11.03125 26.152344 10.980469 26.261719 C 10.875 26.492188 10.757812 26.71875 10.726562 26.96875 C 10.699219 27.15625 10.707031 27.347656 10.707031 27.535156 C 10.59375 27.5 10.484375 27.464844 10.371094 27.425781 C 9.703125 27.207031 9.039062 26.960938 8.382812 26.691406 C 8.386719 26.683594 8.386719 26.671875 8.386719 26.664062 C 8.4375 26.351562 8.371094 26.03125 8.285156 25.730469 C 8.109375 25.085938 7.859375 24.449219 7.714844 23.800781 C 7.652344 23.546875 7.613281 23.289062 7.597656 23.03125 C 7.59375 22.972656 7.589844 22.914062 7.589844 22.855469 C 7.585938 22.777344 7.589844 22.703125 7.59375 22.625 C 7.601562 22.472656 7.605469 22.289062 7.484375 22.195312 C 7.414062 22.144531 7.324219 22.136719 7.246094 22.105469 C 7.09375 22.046875 6.988281 21.910156 6.867188 21.800781 C 6.742188 21.679688 6.59375 21.636719 6.425781 21.667969 C 5.632812 21.851562 5.050781 22.515625 4.316406 22.855469 C 4.285156 22.867188 4.257812 22.878906 4.230469 22.890625 C 4.132812 22.925781 4.042969 22.972656 3.957031 23.03125 C 3.898438 23.070312 3.859375 23.128906 3.835938 23.199219 C 3.820312 23.273438 3.835938 23.351562 3.84375 23.425781 C 3.859375 23.550781 3.855469 23.675781 3.828125 23.800781 C 3.820312 23.847656 3.804688 23.894531 3.789062 23.941406 C 3.761719 24.023438 3.726562 24.105469 3.6875 24.183594 C 3.5 24.058594 3.316406 23.929688 3.132812 23.800781 C 2.878906 23.617188 2.628906 23.429688 2.378906 23.234375 L 2.226562 23.117188 C 1.574219 22.609375 0.96875 22.050781 0.402344 21.449219 C 0.476562 21.238281 0.585938 21.042969 0.636719 20.828125 C 0.667969 20.707031 0.679688 20.578125 0.71875 20.457031 C 0.765625 20.332031 0.832031 20.214844 0.914062 20.109375 C 1.214844 19.691406 1.578125 19.332031 1.996094 19.035156 C 2.433594 18.722656 2.9375 18.472656 3.328125 18.121094 C 3.488281 17.980469 3.625 17.820312 3.734375 17.640625 C 3.742188 17.628906 3.75 17.617188 3.753906 17.605469 C 3.785156 17.542969 3.808594 17.476562 3.816406 17.40625 C 3.847656 17.25 3.84375 17.078125 3.855469 16.925781 C 4.335938 17.007812 4.820312 17.023438 5.304688 16.96875 C 5.867188 16.90625 6.414062 16.75 6.976562 16.691406 C 7.019531 16.6875 7.0625 16.683594 7.105469 16.679688 C 7.285156 16.664062 7.464844 16.660156 7.644531 16.664062 C 7.796875 16.664062 7.945312 16.671875 8.097656 16.675781 L 9.761719 16.730469 C 9.945312 16.738281 10.132812 16.746094 10.304688 16.8125 C 10.507812 16.890625 10.671875 17.050781 10.800781 17.222656 C 10.816406 17.246094 10.835938 17.269531 10.851562 17.289062 C 10.957031 17.449219 11.042969 17.617188 11.105469 17.792969 C 11.113281 17.8125 11.121094 17.828125 11.125 17.847656 C 11.140625 17.898438 11.15625 17.945312 11.167969 17.996094 C 11.175781 18.035156 11.183594 18.074219 11.191406 18.113281 C 11.230469 18.308594 11.253906 18.507812 11.316406 18.691406 C 11.320312 18.707031 11.324219 18.71875 11.328125 18.734375 C 11.402344 18.9375 11.527344 19.121094 11.617188 19.320312 C 11.683594 19.460938 11.734375 19.613281 11.769531 19.765625 C 11.839844 20.078125 11.839844 20.390625 11.773438 20.703125 Z M 11.773438 20.703125 " fill-opacity="1" fill-rule="nonzero"/></g><path fill="#6c63ff" d="M 6.71875 8.175781 C 6.570312 8.058594 6.355469 8.144531 6.179688 8.21875 C 6.035156 8.28125 5.886719 8.335938 5.730469 8.378906 C 5.699219 8.394531 5.667969 8.394531 5.632812 8.390625 C 5.5625 8.375 5.53125 8.289062 5.480469 8.242188 C 5.390625 8.152344 5.238281 8.175781 5.121094 8.222656 C 5.003906 8.269531 4.890625 8.335938 4.761719 8.324219 C 4.628906 8.316406 4.511719 8.21875 4.375 8.214844 C 4.136719 8.207031 3.933594 8.5 3.707031 8.421875 C 3.570312 8.375 3.460938 8.199219 3.324219 8.25 C 3.21875 8.289062 3.210938 8.433594 3.148438 8.527344 C 3.074219 8.640625 2.925781 8.671875 2.800781 8.71875 C 2.40625 8.875 2.144531 9.3125 2.199219 9.730469 C 2.226562 9.960938 2.339844 10.171875 2.414062 10.390625 C 2.632812 11.03125 2.558594 11.753906 2.835938 12.371094 C 2.871094 12.339844 2.890625 12.324219 2.925781 12.292969 C 2.832031 12.480469 2.816406 12.675781 2.875 12.875 C 2.90625 12.972656 2.953125 13.0625 2.988281 13.15625 C 3.027344 13.261719 3.058594 13.371094 3.078125 13.480469 L 3.386719 14.824219 C 3.503906 15.351562 3.625 15.875 3.648438 16.414062 C 3.660156 16.765625 3.632812 17.113281 3.566406 17.457031 C 4.121094 17.367188 4.628906 17.121094 5.191406 17.125 C 5.398438 17.125 5.601562 17.160156 5.804688 17.1875 C 6.402344 17.269531 7.003906 17.308594 7.605469 17.308594 C 7.703125 17.3125 7.792969 17.300781 7.882812 17.269531 C 7.960938 17.238281 8.023438 17.179688 8.097656 17.136719 C 8.238281 17.050781 8.414062 17.03125 8.578125 17.03125 C 9.332031 17.015625 10.058594 17.292969 10.804688 17.386719 C 11.101562 16.773438 11.117188 16.03125 10.890625 15.386719 C 10.824219 15.195312 10.734375 15.011719 10.707031 14.808594 C 10.695312 14.683594 10.695312 14.5625 10.699219 14.4375 C 10.699219 14.117188 10.640625 13.808594 10.527344 13.507812 C 10.484375 13.390625 10.433594 13.269531 10.4375 13.148438 C 10.441406 13.023438 10.503906 12.90625 10.5625 12.796875 C 10.6875 12.574219 10.8125 12.347656 10.984375 12.15625 C 11.164062 11.960938 11.382812 11.8125 11.605469 11.667969 L 12.148438 11.304688 C 12.074219 10.839844 11.976562 10.347656 11.777344 9.917969 C 11.578125 9.488281 11.28125 9.09375 10.878906 8.84375 C 10.746094 8.761719 10.601562 8.691406 10.457031 8.632812 C 10.25 8.546875 10.035156 8.472656 9.8125 8.457031 C 9.558594 8.445312 9.308594 8.511719 9.058594 8.554688 C 8.273438 8.683594 7.34375 8.667969 6.71875 8.175781 Z M 6.71875 8.175781 " fill-opacity="1" fill-rule="nonzero"/><g clip-path="url(#d992f2e944)"><path fill="#3f3d56" d="M 12.660156 16.273438 L 12.402344 16.597656 L 11.914062 17.207031 L 11.351562 17.914062 L 11.191406 18.113281 L 10.886719 18.113281 L 3.328125 18.121094 L -1.40625 18.125 L -1.617188 18.125 C -1.644531 18.039062 -1.671875 17.953125 -1.695312 17.859375 C -1.730469 17.730469 -1.761719 17.597656 -1.789062 17.464844 C -1.792969 17.4375 -1.796875 17.414062 -1.800781 17.386719 L -0.0859375 16.269531 L 0.5625 16.269531 L 2.535156 16.257812 L 3.640625 16.25 L 3.96875 16.25 L 4.703125 16.246094 L 10.304688 16.214844 L 10.714844 16.214844 L 11.046875 16.210938 L 12.269531 16.203125 L 12.503906 16.117188 L 12.523438 16.132812 Z M 12.660156 16.273438 " fill-opacity="1" fill-rule="nonzero"/></g><g clip-path="url(#886b515950)"><path fill="#504f60" d="M 12.554688 16.097656 L 12.523438 16.132812 L 12.332031 16.355469 L 11.9375 16.820312 L 11.105469 17.792969 L 3.753906 17.609375 L -1.789062 17.46875 C -1.792969 17.441406 -1.800781 17.417969 -1.804688 17.390625 C -1.886719 16.941406 -1.925781 16.484375 -1.914062 16.027344 L -1.300781 15.714844 L -1.160156 15.644531 L -0.0625 15.082031 L 0.898438 14.59375 L 3.40625 14.917969 L 3.964844 14.988281 L 4.214844 15.019531 L 4.582031 15.070312 L 4.613281 15.074219 L 10.382812 15.816406 L 11.019531 15.898438 L 11.394531 15.949219 L 12.546875 16.097656 Z M 12.554688 16.097656 " fill-opacity="1" fill-rule="nonzero"/></g><path fill="#3f3d56" d="M 11.355469 17.777344 L 11.351562 17.914062 L 11.316406 18.691406 L 11.125 22.960938 L 11.085938 23.886719 L 10.980469 26.261719 L 10.921875 27.601562 L 10.707031 27.535156 C 10.59375 27.5 10.484375 27.464844 10.371094 27.425781 L 10.886719 18.117188 L 10.898438 17.921875 L 11.125 17.851562 Z M 11.355469 17.777344 " fill-opacity="1" fill-rule="nonzero"/><path fill="#a1616a" d="M 9.4375 10.304688 C 9.4375 10.589844 9.398438 10.867188 9.3125 11.132812 C 9.230469 11.402344 9.113281 11.636719 8.964844 11.839844 C 8.8125 12.042969 8.636719 12.199219 8.4375 12.308594 C 8.238281 12.417969 8.03125 12.472656 7.816406 12.472656 C 7.601562 12.472656 7.398438 12.417969 7.199219 12.308594 C 7 12.199219 6.824219 12.042969 6.671875 11.839844 C 6.519531 11.636719 6.402344 11.402344 6.320312 11.132812 C 6.238281 10.867188 6.199219 10.589844 6.199219 10.304688 C 6.199219 10.015625 6.238281 9.738281 6.320312 9.472656 C 6.402344 9.207031 6.519531 8.972656 6.671875 8.769531 C 6.824219 8.566406 7 8.410156 7.199219 8.300781 C 7.398438 8.1875 7.601562 8.132812 7.816406 8.132812 C 8.03125 8.132812 8.238281 8.1875 8.4375 8.296875 C 8.636719 8.410156 8.8125 8.566406 8.964844 8.769531 C 9.113281 8.972656 9.230469 9.207031 9.3125 9.472656 C 9.398438 9.738281 9.4375 10.015625 9.4375 10.304688 Z M 9.4375 10.304688 " fill-opacity="1" fill-rule="nonzero"/><path fill="#000000" d="M 9.4375 10.304688 C 9.4375 10.589844 9.398438 10.867188 9.3125 11.132812 C 9.230469 11.402344 9.113281 11.636719 8.964844 11.839844 C 8.8125 12.042969 8.636719 12.199219 8.4375 12.308594 C 8.238281 12.417969 8.03125 12.472656 7.816406 12.472656 C 7.601562 12.472656 7.398438 12.417969 7.199219 12.308594 C 7 12.199219 6.824219 12.042969 6.671875 11.839844 C 6.519531 11.636719 6.402344 11.402344 6.320312 11.132812 C 6.238281 10.867188 6.199219 10.589844 6.199219 10.304688 C 6.199219 10.015625 6.238281 9.738281 6.320312 9.472656 C 6.402344 9.207031 6.519531 8.972656 6.671875 8.769531 C 6.824219 8.566406 7 8.410156 7.199219 8.300781 C 7.398438 8.1875 7.601562 8.132812 7.816406 8.132812 C 8.03125 8.132812 8.238281 8.1875 8.4375 8.296875 C 8.636719 8.410156 8.8125 8.566406 8.964844 8.769531 C 9.113281 8.972656 9.230469 9.207031 9.3125 9.472656 C 9.398438 9.738281 9.4375 10.015625 9.4375 10.304688 Z M 9.4375 10.304688 " fill-opacity="0.098" fill-rule="nonzero"/><path fill="#a1616a" d="M 10.300781 8.992188 C 10.300781 9.289062 10.242188 9.574219 10.128906 9.847656 C 10.015625 10.125 9.851562 10.367188 9.640625 10.574219 C 9.429688 10.785156 9.183594 10.949219 8.910156 11.0625 C 8.632812 11.175781 8.34375 11.230469 8.046875 11.230469 C 7.75 11.230469 7.460938 11.175781 7.183594 11.0625 C 6.910156 10.949219 6.664062 10.785156 6.453125 10.574219 C 6.242188 10.367188 6.078125 10.125 5.964844 9.847656 C 5.851562 9.574219 5.792969 9.289062 5.792969 8.992188 C 5.792969 8.695312 5.851562 8.410156 5.964844 8.132812 C 6.078125 7.859375 6.242188 7.617188 6.453125 7.40625 C 6.664062 7.195312 6.910156 7.035156 7.183594 6.921875 C 7.460938 6.808594 7.75 6.75 8.046875 6.75 C 8.34375 6.75 8.632812 6.808594 8.910156 6.921875 C 9.183594 7.035156 9.429688 7.195312 9.640625 7.40625 C 9.851562 7.617188 10.015625 7.859375 10.128906 8.132812 C 10.242188 8.410156 10.300781 8.695312 10.300781 8.992188 Z M 10.300781 8.992188 " fill-opacity="1" fill-rule="nonzero"/><path fill="#464353" d="M 8.089844 5.539062 C 7.953125 5.550781 7.816406 5.570312 7.683594 5.601562 C 7.328125 5.6875 7.019531 5.878906 6.71875 6.066406 C 6.582031 6.148438 6.445312 6.238281 6.363281 6.359375 C 6.210938 6.582031 6.269531 6.867188 6.1875 7.113281 C 6.140625 7.238281 6.0625 7.355469 5.996094 7.472656 C 5.808594 7.796875 5.710938 8.152344 5.613281 8.503906 C 5.59375 8.574219 5.589844 8.671875 5.667969 8.703125 C 5.714844 8.710938 5.761719 8.707031 5.804688 8.6875 C 6.058594 8.601562 6.378906 8.578125 6.566406 8.746094 C 6.753906 8.917969 6.738281 9.214844 6.960938 9.34375 C 7.214844 9.492188 7.613281 9.3125 7.84375 9.488281 C 7.945312 9.5625 7.980469 9.683594 8.0625 9.773438 C 8.25 9.980469 8.613281 9.972656 8.917969 9.929688 C 9.09375 9.90625 9.304688 9.890625 9.410156 10.011719 C 9.460938 10.066406 9.476562 10.144531 9.535156 10.199219 C 9.640625 10.292969 9.835938 10.246094 9.9375 10.148438 C 10.039062 10.050781 10.089844 9.921875 10.175781 9.8125 C 10.34375 9.605469 10.636719 9.488281 10.808594 9.28125 C 10.953125 9.105469 10.996094 8.886719 11.035156 8.675781 L 11.183594 7.890625 C 11.242188 7.574219 11.296875 7.226562 11.117188 6.945312 C 11.054688 6.847656 10.960938 6.757812 10.90625 6.65625 C 10.871094 6.585938 10.847656 6.511719 10.804688 6.445312 C 10.753906 6.375 10.695312 6.316406 10.625 6.261719 L 10.277344 5.976562 C 10.160156 5.875 10.03125 5.78125 9.898438 5.699219 C 9.402344 5.410156 8.660156 5.484375 8.089844 5.539062 Z M 8.089844 5.539062 " fill-opacity="1" fill-rule="nonzero"/><g clip-path="url(#7800fa570b)"><path fill="#a1616a" d="M 0.667969 11.308594 C 0.585938 11.398438 0.507812 11.492188 0.417969 11.574219 C 0.339844 11.644531 0.257812 11.710938 0.171875 11.769531 C 0.0351562 11.875 -0.101562 11.980469 -0.230469 12.089844 C -0.371094 12.199219 -0.492188 12.320312 -0.601562 12.457031 C -0.789062 12.710938 -0.878906 13.023438 -1.054688 13.28125 C -1.210938 13.511719 -1.429688 13.691406 -1.589844 13.921875 C -1.660156 14.019531 -1.710938 14.125 -1.742188 14.238281 C -1.765625 14.351562 -1.773438 14.460938 -1.773438 14.574219 C -1.777344 14.757812 -1.777344 14.945312 -1.742188 15.128906 C -1.703125 15.308594 -1.617188 15.484375 -1.476562 15.605469 C -1.34375 15.714844 -1.171875 15.765625 -1.003906 15.808594 C -0.917969 15.828125 -0.824219 15.847656 -0.742188 15.816406 C -0.679688 15.785156 -0.628906 15.742188 -0.589844 15.6875 L -0.160156 15.195312 C 0.125 14.867188 0.425781 14.53125 0.816406 14.339844 C 0.941406 14.28125 1.070312 14.234375 1.195312 14.175781 C 1.71875 13.925781 2.089844 13.410156 2.234375 12.851562 C 2.269531 12.714844 2.289062 12.574219 2.3125 12.433594 L 2.375 12.050781 C 2.378906 12.03125 2.378906 12.011719 2.375 11.992188 C 2.367188 11.972656 2.351562 11.953125 2.332031 11.941406 C 2.03125 11.699219 1.753906 11.4375 1.496094 11.15625 C 1.433594 11.089844 1.375 10.996094 1.304688 10.941406 C 1.214844 10.871094 1.222656 10.875 1.117188 10.941406 C 0.953125 11.042969 0.800781 11.167969 0.667969 11.308594 Z M 0.667969 11.308594 " fill-opacity="1" fill-rule="nonzero"/></g><path fill="#3f3d56" d="M 3.601562 13.859375 C 3.582031 13.816406 3.550781 13.804688 3.511719 13.824219 C 3.46875 13.84375 3.460938 13.875 3.480469 13.914062 L 3.445312 13.933594 L 4.496094 16.070312 L 4.6875 15.980469 L 3.636719 13.839844 Z M 3.601562 13.859375 " fill-opacity="1" fill-rule="nonzero"/><g clip-path="url(#6f8b6a746e)"><path fill="#000000" d="M 0.667969 11.308594 C 0.585938 11.398438 0.507812 11.492188 0.417969 11.574219 C 0.339844 11.644531 0.257812 11.710938 0.171875 11.769531 C 0.0351562 11.875 -0.101562 11.980469 -0.230469 12.089844 C -0.371094 12.199219 -0.492188 12.320312 -0.601562 12.457031 C -0.789062 12.710938 -0.878906 13.023438 -1.054688 13.28125 C -1.210938 13.511719 -1.429688 13.691406 -1.589844 13.921875 C -1.660156 14.019531 -1.710938 14.125 -1.742188 14.238281 C -1.765625 14.351562 -1.773438 14.460938 -1.773438 14.574219 C -1.777344 14.757812 -1.777344 14.945312 -1.742188 15.128906 C -1.703125 15.308594 -1.617188 15.484375 -1.476562 15.605469 C -1.34375 15.714844 -1.171875 15.765625 -1.003906 15.808594 C -0.917969 15.828125 -0.824219 15.847656 -0.742188 15.816406 C -0.679688 15.785156 -0.628906 15.742188 -0.589844 15.6875 L -0.160156 15.195312 C 0.125 14.867188 0.425781 14.53125 0.816406 14.339844 C 0.941406 14.28125 1.070312 14.234375 1.195312 14.175781 C 1.71875 13.925781 2.089844 13.410156 2.234375 12.851562 C 2.269531 12.714844 2.289062 12.574219 2.3125 12.433594 L 2.375 12.050781 C 2.378906 12.03125 2.378906 12.011719 2.375 11.992188 C 2.367188 11.972656 2.351562 11.953125 2.332031 11.941406 C 2.03125 11.699219 1.753906 11.4375 1.496094 11.15625 C 1.433594 11.089844 1.375 10.996094 1.304688 10.941406 C 1.214844 10.871094 1.222656 10.875 1.117188 10.941406 C 0.953125 11.042969 0.800781 11.167969 0.667969 11.308594 Z M 0.667969 11.308594 " fill-opacity="0.0392" fill-rule="nonzero"/></g><path fill="#a1616a" d="M 12.808594 15.253906 C 12.804688 15.476562 12.796875 15.707031 12.703125 15.910156 C 12.660156 15.996094 12.597656 16.085938 12.507812 16.113281 C 12.449219 16.125 12.390625 16.128906 12.332031 16.121094 C 11.636719 16.058594 10.953125 16.113281 10.273438 16.28125 C 10.453125 15.925781 10.351562 15.496094 10.402344 15.101562 C 10.414062 14.992188 10.4375 14.886719 10.449219 14.777344 C 10.484375 14.394531 10.316406 14.019531 10.242188 13.636719 C 10.175781 13.304688 10.175781 12.972656 10.242188 12.640625 C 10.253906 12.554688 10.285156 12.476562 10.328125 12.402344 C 10.378906 12.328125 10.445312 12.273438 10.527344 12.230469 C 10.8125 12.070312 11.148438 12.050781 11.46875 12.070312 C 11.683594 12.085938 12.117188 12.066406 12.296875 12.199219 C 12.492188 12.34375 12.554688 12.828125 12.609375 13.050781 C 12.6875 13.398438 12.742188 13.746094 12.769531 14.097656 C 12.804688 14.480469 12.8125 14.867188 12.808594 15.253906 Z M 12.808594 15.253906 " fill-opacity="1" fill-rule="nonzero"/><g clip-path="url(#e876aec53a)"><path fill="#ffffff" d="M 0.195312 16.027344 L 1.464844 16.867188 L 7.167969 16.65625 L 3.398438 16.027344 Z M 0.195312 16.027344 " fill-opacity="1" fill-rule="nonzero"/></g><g clip-path="url(#1fcdf9f19d)"><path fill="#6c63ff" d="M 1.867188 9.351562 C 1.660156 9.535156 1.480469 9.75 1.285156 9.945312 C 1.015625 10.210938 0.707031 10.4375 0.402344 10.664062 C 0.640625 10.730469 0.792969 10.882812 0.859375 11.121094 C 0.871094 11.171875 0.878906 11.226562 0.894531 11.277344 C 0.929688 11.398438 1.007812 11.5 1.089844 11.59375 C 1.445312 11.992188 1.945312 12.289062 2.15625 12.78125 C 2.164062 12.808594 2.179688 12.828125 2.199219 12.84375 C 2.21875 12.851562 2.234375 12.851562 2.253906 12.847656 C 2.445312 12.828125 2.589844 12.675781 2.710938 12.527344 C 2.964844 12.210938 3.183594 11.863281 3.308594 11.480469 C 3.433594 11.09375 3.457031 10.671875 3.320312 10.289062 C 3.25 10.101562 3.144531 9.925781 3.042969 9.753906 C 2.949219 9.601562 2.859375 9.453125 2.769531 9.300781 C 2.722656 9.222656 2.660156 9.058594 2.566406 9.019531 C 2.367188 8.933594 1.996094 9.222656 1.867188 9.351562 Z M 1.867188 9.351562 " fill-opacity="1" fill-rule="nonzero"/></g><path fill="#6c63ff" d="M 12.238281 11.613281 L 12.535156 12.316406 C 12.207031 12.199219 11.867188 12.167969 11.519531 12.214844 C 11.171875 12.261719 10.855469 12.386719 10.570312 12.585938 C 10.398438 12.707031 10.242188 12.859375 10.164062 13.054688 C 10.078125 13.070312 10.011719 13.042969 9.960938 12.972656 C 9.914062 12.910156 9.890625 12.839844 9.882812 12.761719 C 9.855469 12.492188 9.960938 12.226562 10.0625 11.976562 C 10.109375 11.859375 10.15625 11.738281 10.242188 11.644531 C 10.324219 11.546875 10.433594 11.484375 10.546875 11.425781 C 10.902344 11.230469 11.273438 11.066406 11.65625 10.9375 C 11.820312 10.886719 11.988281 10.886719 12.078125 11.035156 C 12.183594 11.214844 12.15625 11.421875 12.238281 11.613281 Z M 12.238281 11.613281 " fill-opacity="1" fill-rule="nonzero"/><g clip-path="url(#57f1f66837)"><path fill="#a1616a" d="M 0.203125 13.714844 C 0.277344 13.773438 0.34375 13.84375 0.421875 13.902344 C 0.503906 13.957031 0.589844 14.007812 0.679688 14.046875 L 1.027344 14.210938 C 1.136719 14.269531 1.246094 14.3125 1.363281 14.347656 C 1.511719 14.386719 1.667969 14.390625 1.816406 14.429688 C 2.003906 14.472656 2.175781 14.570312 2.363281 14.625 C 2.546875 14.683594 2.765625 14.691406 2.921875 14.574219 C 3.019531 14.503906 3.089844 14.382812 3.210938 14.367188 C 3.289062 14.355469 3.363281 14.390625 3.433594 14.429688 L 4.335938 14.902344 C 4.457031 14.964844 4.585938 15.035156 4.648438 15.15625 C 4.714844 15.277344 4.671875 15.460938 4.535156 15.492188 C 4.488281 15.5 4.441406 15.503906 4.394531 15.503906 C 4.347656 15.507812 4.296875 15.535156 4.292969 15.582031 C 4.292969 15.609375 4.300781 15.636719 4.3125 15.664062 C 4.355469 15.757812 4.367188 15.867188 4.320312 15.957031 C 4.273438 16.046875 4.15625 16.101562 4.0625 16.0625 C 4.078125 16.195312 3.933594 16.292969 3.800781 16.328125 C 3.464844 16.417969 3.113281 16.363281 2.773438 16.304688 C 2.640625 16.28125 2.503906 16.261719 2.382812 16.199219 C 2.324219 16.171875 2.269531 16.136719 2.210938 16.109375 C 2.046875 16.039062 1.863281 16.046875 1.683594 16.050781 C 0.863281 16.066406 0.0507812 15.914062 -0.757812 15.761719 C -0.90625 15.734375 -1.058594 15.703125 -1.1875 15.621094 C -1.433594 15.464844 -1.523438 15.136719 -1.484375 14.84375 C -1.445312 14.554688 -1.296875 14.292969 -1.152344 14.039062 L -0.960938 13.707031 C -0.9375 13.65625 -0.902344 13.613281 -0.859375 13.574219 C -0.585938 13.363281 -0.0351562 13.527344 0.203125 13.714844 Z M 0.203125 13.714844 " fill-opacity="1" fill-rule="nonzero"/><path fill="#000000" d="M 0.203125 13.714844 C 0.277344 13.773438 0.34375 13.84375 0.421875 13.902344 C 0.503906 13.957031 0.589844 14.007812 0.679688 14.046875 L 1.027344 14.210938 C 1.136719 14.269531 1.246094 14.3125 1.363281 14.347656 C 1.511719 14.386719 1.667969 14.390625 1.816406 14.429688 C 2.003906 14.472656 2.175781 14.570312 2.363281 14.625 C 2.546875 14.683594 2.765625 14.691406 2.921875 14.574219 C 3.019531 14.503906 3.089844 14.382812 3.210938 14.367188 C 3.289062 14.355469 3.363281 14.390625 3.433594 14.429688 L 4.335938 14.902344 C 4.457031 14.964844 4.585938 15.035156 4.648438 15.15625 C 4.714844 15.277344 4.671875 15.460938 4.535156 15.492188 C 4.488281 15.5 4.441406 15.503906 4.394531 15.503906 C 4.347656 15.507812 4.296875 15.535156 4.292969 15.582031 C 4.292969 15.609375 4.300781 15.636719 4.3125 15.664062 C 4.355469 15.757812 4.367188 15.867188 4.320312 15.957031 C 4.273438 16.046875 4.15625 16.101562 4.0625 16.0625 C 4.078125 16.195312 3.933594 16.292969 3.800781 16.328125 C 3.464844 16.417969 3.113281 16.363281 2.773438 16.304688 C 2.640625 16.28125 2.503906 16.261719 2.382812 16.199219 C 2.324219 16.171875 2.269531 16.136719 2.210938 16.109375 C 2.046875 16.039062 1.863281 16.046875 1.683594 16.050781 C 0.863281 16.066406 0.0507812 15.914062 -0.757812 15.761719 C -0.90625 15.734375 -1.058594 15.703125 -1.1875 15.621094 C -1.433594 15.464844 -1.523438 15.136719 -1.484375 14.84375 C -1.445312 14.554688 -1.296875 14.292969 -1.152344 14.039062 L -0.960938 13.707031 C -0.9375 13.65625 -0.902344 13.613281 -0.859375 13.574219 C -0.585938 13.363281 -0.0351562 13.527344 0.203125 13.714844 Z M 0.203125 13.714844 " fill-opacity="0.0392" fill-rule="nonzero"/></g><path fill="#a1616a" d="M 10.949219 14.320312 C 10.765625 14.40625 10.554688 14.414062 10.363281 14.480469 C 10.171875 14.546875 10.011719 14.667969 9.835938 14.761719 C 9.378906 15.015625 8.847656 15.113281 8.332031 15.203125 C 8.015625 15.261719 7.695312 15.316406 7.378906 15.304688 C 6.953125 15.285156 6.539062 15.144531 6.125 15.035156 C 5.707031 14.929688 5.265625 14.855469 4.851562 14.976562 C 4.390625 15.117188 4.082031 15.414062 3.921875 15.867188 C 3.835938 16.117188 3.820312 16.390625 3.839844 16.65625 C 3.925781 16.71875 4.046875 16.632812 4.09375 16.535156 C 4.140625 16.4375 4.167969 16.320312 4.257812 16.265625 C 4.417969 16.316406 4.457031 16.527344 4.585938 16.632812 C 4.667969 16.699219 4.777344 16.714844 4.882812 16.730469 L 5.417969 16.804688 C 5.546875 16.824219 5.695312 16.835938 5.789062 16.746094 C 5.832031 16.703125 5.859375 16.640625 5.898438 16.59375 C 5.984375 16.5 6.128906 16.484375 6.253906 16.496094 C 6.648438 16.535156 7.019531 16.789062 7.414062 16.730469 C 7.550781 16.710938 7.675781 16.652344 7.804688 16.605469 C 8.566406 16.339844 9.417969 16.5 10.210938 16.347656 C 10.515625 16.289062 10.804688 16.1875 11.09375 16.078125 C 11.25 16.015625 11.410156 15.957031 11.542969 15.855469 C 11.820312 15.644531 11.941406 15.367188 11.90625 15.023438 C 11.878906 14.769531 11.765625 14.566406 11.570312 14.402344 C 11.507812 14.351562 11.425781 14.25 11.351562 14.21875 C 11.210938 14.15625 11.070312 14.265625 10.949219 14.320312 Z M 10.949219 14.320312 " fill-opacity="1" fill-rule="nonzero"/><g mask="url(#403fcfc8af)"><g transform="matrix(1, 0, 0, 1, 5, 6)"><g clip-path="url(#f50334f60d)"><g clip-path="url(#3538aad360)"><path fill="#000000" d="M 4.921875 3.847656 C 4.863281 3.796875 4.847656 3.71875 4.796875 3.660156 C 4.691406 3.539062 4.480469 3.554688 4.304688 3.578125 C 4 3.621094 3.636719 3.632812 3.449219 3.421875 C 3.367188 3.332031 3.332031 3.210938 3.230469 3.136719 C 3 2.960938 2.601562 3.140625 2.347656 2.992188 C 2.121094 2.863281 2.136719 2.5625 1.953125 2.398438 C 1.765625 2.230469 1.445312 2.253906 1.191406 2.335938 C 1.148438 2.355469 1.101562 2.363281 1.054688 2.351562 C 0.972656 2.324219 0.980469 2.226562 1 2.152344 C 1.097656 1.800781 1.195312 1.445312 1.378906 1.121094 C 1.449219 1.003906 1.527344 0.890625 1.574219 0.761719 C 1.648438 0.542969 1.609375 0.289062 1.710938 0.0820312 C 1.601562 0.148438 1.5 0.226562 1.433594 0.324219 C 1.28125 0.546875 1.339844 0.832031 1.257812 1.078125 C 1.210938 1.203125 1.132812 1.316406 1.066406 1.4375 C 0.878906 1.757812 0.78125 2.113281 0.683594 2.464844 C 0.664062 2.539062 0.660156 2.636719 0.738281 2.664062 C 0.785156 2.675781 0.832031 2.671875 0.875 2.648438 C 1.128906 2.566406 1.449219 2.542969 1.636719 2.710938 C 1.824219 2.878906 1.808594 3.179688 2.03125 3.308594 C 2.285156 3.457031 2.683594 3.277344 2.914062 3.449219 C 3.015625 3.527344 3.050781 3.644531 3.132812 3.734375 C 3.320312 3.945312 3.6875 3.9375 3.988281 3.894531 C 4.164062 3.871094 4.375 3.851562 4.480469 3.972656 C 4.53125 4.03125 4.546875 4.109375 4.605469 4.164062 C 4.710938 4.257812 4.90625 4.207031 5.007812 4.113281 C 5.074219 4.042969 5.128906 3.96875 5.175781 3.882812 C 5.085938 3.910156 4.988281 3.90625 4.921875 3.847656 Z M 4.921875 3.847656 " fill-opacity="1" fill-rule="nonzero"/></g><path fill="#000000" d="M 5.5625 3.464844 C 5.539062 3.492188 5.519531 3.523438 5.5 3.554688 C 5.636719 3.457031 5.777344 3.367188 5.878906 3.246094 C 5.90625 3.214844 5.929688 3.179688 5.949219 3.144531 C 5.808594 3.246094 5.664062 3.335938 5.5625 3.464844 Z M 5.5625 3.464844 " fill-opacity="1" fill-rule="nonzero"/></g></g></g><path fill="#3f3d56" d="M 17.675781 16.394531 L 17.78125 26.441406 L 18.273438 26.371094 L 18.167969 16.394531 Z M 17.675781 16.394531 " fill-opacity="1" fill-rule="nonzero"/><g clip-path="url(#42384c5e9f)"><path fill="#3f3d56" d="M 20.632812 18.214844 L 20.738281 28.261719 L 21.234375 28.191406 L 21.125 18.214844 Z M 20.632812 18.214844 " fill-opacity="1" fill-rule="nonzero"/></g><g clip-path="url(#8e3ef26488)"><path fill="#3f3d56" d="M 29.84375 23.289062 L 29.839844 23.097656 L 29.839844 22.984375 L 29.820312 21.214844 L 29.792969 18.453125 L 29.785156 18.214844 L 29.292969 18.214844 L 29.296875 18.445312 L 29.3125 19.925781 L 29.320312 20.566406 L 29.324219 21.082031 L 29.332031 21.980469 L 29.339844 22.507812 L 29.339844 22.566406 L 29.347656 23.261719 L 29.351562 23.875 L 29.394531 23.828125 C 29.457031 23.757812 29.519531 23.683594 29.582031 23.609375 Z M 29.84375 23.289062 " fill-opacity="1" fill-rule="nonzero"/></g><g clip-path="url(#caf1432f54)"><path fill="#6c63ff" d="M 20.089844 19.84375 L 19.804688 20.261719 L 20.089844 22.167969 L 22.480469 22.820312 L 26.355469 22.820312 L 28.679688 22.960938 L 29.785156 22.207031 L 29.59375 20.914062 L 28.75 19.84375 Z M 20.089844 19.84375 " fill-opacity="1" fill-rule="nonzero"/></g><g clip-path="url(#fd146bbd34)"><path fill="#3f3d56" d="M 19.804688 20.261719 L 19.664062 21.425781 C 19.664062 21.425781 18.925781 23.703125 24.875 23.566406 C 30.828125 23.425781 29.804688 22.960938 29.804688 22.960938 L 29.769531 21.609375 C 29.769531 21.609375 29.976562 22.25 26.953125 22.164062 C 23.929688 22.078125 21.109375 21.796875 21.109375 21.796875 C 21.109375 21.796875 20.054688 21.984375 19.804688 20.261719 Z M 19.804688 20.261719 " fill-opacity="1" fill-rule="nonzero"/></g><path fill="#fbbebe" d="M 24.765625 9.839844 C 24.425781 9.992188 24.167969 10.289062 23.996094 10.621094 C 23.824219 10.949219 23.726562 11.308594 23.628906 11.667969 C 23.53125 12.046875 23.429688 12.429688 23.378906 12.816406 C 23.285156 13.507812 23.355469 14.230469 23.671875 14.851562 C 23.992188 15.472656 24.582031 15.972656 25.269531 16.09375 C 25.539062 16.136719 25.8125 16.128906 26.082031 16.101562 C 26.570312 16.050781 27.046875 15.945312 27.511719 15.789062 C 27.996094 15.625 28.5 15.375 28.714844 14.914062 C 28.839844 14.644531 28.851562 14.339844 28.84375 14.046875 C 28.828125 13.238281 28.707031 12.445312 28.480469 11.671875 C 28.414062 11.449219 28.339844 11.222656 28.203125 11.035156 C 28.0625 10.84375 27.875 10.707031 27.683594 10.578125 C 26.859375 10.027344 25.777344 9.378906 24.765625 9.839844 Z M 24.765625 9.839844 " fill-opacity="1" fill-rule="nonzero"/><path fill="#000000" d="M 24.765625 9.839844 C 24.425781 9.992188 24.167969 10.289062 23.996094 10.621094 C 23.824219 10.949219 23.726562 11.308594 23.628906 11.667969 C 23.53125 12.046875 23.429688 12.429688 23.378906 12.816406 C 23.285156 13.507812 23.355469 14.230469 23.671875 14.851562 C 23.992188 15.472656 24.582031 15.972656 25.269531 16.09375 C 25.539062 16.136719 25.8125 16.128906 26.082031 16.101562 C 26.570312 16.050781 27.046875 15.945312 27.511719 15.789062 C 27.996094 15.625 28.5 15.375 28.714844 14.914062 C 28.839844 14.644531 28.851562 14.339844 28.84375 14.046875 C 28.828125 13.238281 28.707031 12.445312 28.480469 11.671875 C 28.414062 11.449219 28.339844 11.222656 28.203125 11.035156 C 28.0625 10.84375 27.875 10.707031 27.683594 10.578125 C 26.859375 10.027344 25.777344 9.378906 24.765625 9.839844 Z M 24.765625 9.839844 " fill-opacity="0.0471" fill-rule="nonzero"/><path fill="#6c63ff" d="M 24.382812 14.246094 C 24.480469 14.378906 24.597656 14.496094 24.734375 14.59375 C 25.070312 14.824219 25.5 14.855469 25.90625 14.867188 C 26.234375 14.878906 26.609375 14.859375 26.8125 14.605469 C 26.90625 14.492188 26.945312 14.347656 26.984375 14.203125 C 27.214844 13.332031 27.378906 12.449219 27.472656 11.550781 L 28.40625 11.554688 C 28.808594 13.273438 28.777344 15.058594 28.742188 16.824219 L 28.691406 19.394531 L 28.089844 19.332031 C 26.664062 19.183594 25.234375 19.03125 23.800781 19.003906 C 22.960938 18.992188 22.121094 19.019531 21.28125 19.089844 L 22.589844 15.222656 C 22.761719 14.71875 22.933594 14.210938 22.972656 13.679688 C 23.027344 12.914062 22.8125 12.105469 23.113281 11.398438 C 23.136719 11.339844 23.167969 11.28125 23.222656 11.25 C 23.277344 11.222656 23.34375 11.230469 23.40625 11.238281 C 23.527344 11.253906 23.886719 11.238281 23.972656 11.3125 C 24.101562 11.421875 24.015625 11.4375 23.972656 11.613281 C 23.890625 11.929688 23.816406 12.21875 23.816406 12.550781 C 23.816406 13.144531 24.003906 13.773438 24.382812 14.246094 Z M 24.382812 14.246094 " fill-opacity="1" fill-rule="nonzero"/><g clip-path="url(#74b59dbfee)"><path fill="#464353" d="M 29.84375 23.289062 C 30 23.082031 30.148438 22.867188 30.285156 22.648438 C 30.214844 22.496094 30.136719 22.351562 30.078125 22.199219 C 29.980469 21.964844 29.929688 21.714844 29.875 21.46875 C 29.855469 21.382812 29.835938 21.300781 29.820312 21.214844 C 29.621094 20.300781 29.4375 19.375 29.398438 18.449219 C 29.394531 18.371094 29.394531 18.292969 29.390625 18.21875 C 29.390625 18.207031 29.390625 18.195312 29.390625 18.183594 C 29.390625 18.097656 29.390625 18.011719 29.390625 17.929688 C 29.398438 17.71875 29.410156 17.507812 29.433594 17.296875 C 29.4375 17.253906 29.445312 17.214844 29.449219 17.171875 C 29.449219 17.164062 29.453125 17.15625 29.453125 17.144531 L 31.847656 17.058594 L 32.046875 17.050781 C 32.1875 17.046875 32.332031 17.039062 32.449219 16.960938 C 32.640625 16.832031 32.664062 16.5625 32.660156 16.332031 C 32.648438 15.746094 32.582031 15.167969 32.460938 14.597656 C 32.371094 14.167969 32.238281 13.730469 31.949219 13.398438 C 31.710938 13.128906 31.363281 12.929688 31.242188 12.59375 C 31.195312 12.46875 31.183594 12.332031 31.121094 12.210938 C 31.0625 12.089844 30.964844 12.003906 30.871094 11.910156 C 30.539062 11.585938 30.269531 11.214844 30.0625 10.800781 C 29.921875 10.515625 29.765625 10.199219 29.582031 10.003906 C 29.570312 9.992188 29.5625 9.984375 29.554688 9.972656 C 29.394531 9.816406 29.214844 9.75 29 9.855469 C 28.960938 9.875 28.921875 9.898438 28.890625 9.921875 C 28.8125 9.980469 28.742188 10.046875 28.679688 10.121094 C 28.460938 10.371094 28.273438 10.636719 28.113281 10.925781 C 28 11.128906 27.902344 11.339844 27.820312 11.554688 C 27.757812 11.726562 27.707031 11.902344 27.664062 12.082031 C 27.636719 12.214844 27.609375 12.347656 27.59375 12.480469 C 27.523438 12.984375 27.523438 13.496094 27.53125 14.003906 C 27.542969 14.472656 27.5625 14.941406 27.605469 15.40625 C 27.617188 15.519531 27.628906 15.632812 27.640625 15.746094 C 27.667969 15.96875 27.699219 16.1875 27.738281 16.410156 C 27.75 16.496094 27.765625 16.578125 27.785156 16.664062 C 27.789062 16.683594 27.792969 16.707031 27.796875 16.730469 L 27.800781 16.738281 C 27.847656 16.933594 27.882812 17.132812 27.90625 17.332031 C 27.910156 17.355469 27.914062 17.382812 27.914062 17.40625 C 27.921875 17.519531 27.917969 17.632812 27.910156 17.75 C 27.902344 17.882812 27.890625 18.019531 27.882812 18.152344 C 27.882812 18.179688 27.882812 18.203125 27.882812 18.222656 C 27.878906 18.292969 27.882812 18.359375 27.882812 18.429688 C 27.890625 18.59375 27.910156 18.753906 27.941406 18.914062 C 28 19.214844 28.101562 19.5 28.246094 19.769531 C 28.257812 19.796875 28.273438 19.820312 28.285156 19.84375 C 28.464844 20.164062 28.691406 20.453125 28.855469 20.777344 C 28.996094 21.070312 29.101562 21.375 29.171875 21.695312 C 29.195312 21.800781 29.21875 21.90625 29.238281 22.011719 C 29.269531 22.179688 29.300781 22.347656 29.332031 22.515625 C 29.332031 22.535156 29.335938 22.550781 29.339844 22.566406 C 29.378906 22.792969 29.421875 23.015625 29.476562 23.234375 C 29.507812 23.363281 29.542969 23.488281 29.582031 23.613281 Z M 29.84375 23.289062 " fill-opacity="1" fill-rule="nonzero"/></g><g clip-path="url(#ca76326822)"><path fill="#f86d70" d="M 29.371094 20.53125 C 29.371094 20.5625 29.371094 20.59375 29.367188 20.625 C 29.363281 20.78125 29.347656 20.933594 29.324219 21.085938 C 29.296875 21.292969 29.246094 21.496094 29.171875 21.695312 C 29.125 21.824219 29.0625 21.949219 28.992188 22.066406 C 28.925781 22.167969 28.851562 22.265625 28.765625 22.355469 C 28.554688 22.574219 28.25 22.644531 27.957031 22.734375 C 27.820312 22.773438 27.691406 22.828125 27.566406 22.894531 C 27.542969 22.90625 27.519531 22.917969 27.5 22.933594 L 27.132812 23.175781 C 27.015625 23.25 26.898438 23.328125 26.820312 23.441406 C 26.808594 23.460938 26.796875 23.480469 26.785156 23.5 C 26.734375 23.601562 26.699219 23.710938 26.675781 23.824219 C 26.484375 24.617188 26.292969 25.410156 26.164062 26.214844 C 26.152344 26.269531 26.144531 26.324219 26.136719 26.375 L 26.132812 26.394531 C 26.132812 26.390625 26.128906 26.386719 26.128906 26.382812 C 25.183594 26.949219 24.207031 27.457031 23.203125 27.867188 L 22.984375 26.046875 C 22.960938 25.898438 22.953125 25.75 22.960938 25.601562 C 22.980469 25.363281 23.078125 25.140625 23.101562 24.90625 C 23.128906 24.671875 23.085938 24.449219 22.976562 24.238281 C 22.9375 24.160156 22.882812 24.082031 22.875 23.992188 C 22.863281 23.902344 22.917969 23.820312 23.007812 23.8125 C 23.078125 23.734375 23.082031 23.628906 23.0625 23.523438 C 23.050781 23.46875 23.035156 23.414062 23.011719 23.363281 C 22.953125 23.214844 22.878906 23.058594 22.929688 22.90625 C 22.941406 22.878906 22.949219 22.851562 22.945312 22.820312 C 22.945312 22.816406 22.945312 22.816406 22.945312 22.8125 C 22.933594 22.773438 22.886719 22.757812 22.863281 22.726562 C 22.816406 22.664062 22.863281 22.578125 22.890625 22.507812 C 22.917969 22.429688 22.933594 22.351562 22.9375 22.269531 C 22.941406 22.222656 22.945312 22.179688 22.949219 22.132812 C 22.957031 22.074219 22.96875 22.011719 22.984375 21.953125 C 23.070312 21.605469 23.265625 21.332031 23.5625 21.128906 C 23.699219 21.039062 23.851562 20.972656 23.992188 20.886719 C 24.132812 20.789062 24.269531 20.683594 24.398438 20.570312 C 24.710938 20.3125 25.03125 20.070312 25.367188 19.84375 C 25.726562 19.597656 26.097656 19.375 26.484375 19.167969 C 26.566406 19.125 26.648438 19.082031 26.730469 19.039062 C 26.820312 18.992188 26.910156 18.949219 27 18.90625 C 27.289062 18.769531 27.621094 18.820312 27.941406 18.914062 C 28.074219 18.953125 28.207031 18.996094 28.335938 19.039062 C 28.460938 19.078125 28.582031 19.132812 28.695312 19.199219 C 28.980469 19.363281 29.214844 19.609375 29.3125 19.917969 C 29.3125 19.921875 29.3125 19.921875 29.3125 19.925781 C 29.375 20.121094 29.378906 20.328125 29.371094 20.53125 Z M 29.371094 20.53125 " fill-opacity="1" fill-rule="nonzero"/><path fill="#000000" d="M 29.371094 20.53125 C 29.371094 20.5625 29.371094 20.59375 29.367188 20.625 C 29.363281 20.78125 29.347656 20.933594 29.324219 21.085938 C 29.296875 21.292969 29.246094 21.496094 29.171875 21.695312 C 29.125 21.824219 29.0625 21.949219 28.992188 22.066406 C 28.925781 22.167969 28.851562 22.265625 28.765625 22.355469 C 28.554688 22.574219 28.25 22.644531 27.957031 22.734375 C 27.820312 22.773438 27.691406 22.828125 27.566406 22.894531 C 27.542969 22.90625 27.519531 22.917969 27.5 22.933594 L 27.132812 23.175781 C 27.015625 23.25 26.898438 23.328125 26.820312 23.441406 C 26.808594 23.460938 26.796875 23.480469 26.785156 23.5 C 26.734375 23.601562 26.699219 23.710938 26.675781 23.824219 C 26.484375 24.617188 26.292969 25.410156 26.164062 26.214844 C 26.152344 26.269531 26.144531 26.324219 26.136719 26.375 L 26.132812 26.394531 C 26.132812 26.390625 26.128906 26.386719 26.128906 26.382812 C 25.183594 26.949219 24.207031 27.457031 23.203125 27.867188 L 22.984375 26.046875 C 22.960938 25.898438 22.953125 25.75 22.960938 25.601562 C 22.980469 25.363281 23.078125 25.140625 23.101562 24.90625 C 23.128906 24.671875 23.085938 24.449219 22.976562 24.238281 C 22.9375 24.160156 22.882812 24.082031 22.875 23.992188 C 22.863281 23.902344 22.917969 23.820312 23.007812 23.8125 C 23.078125 23.734375 23.082031 23.628906 23.0625 23.523438 C 23.050781 23.46875 23.035156 23.414062 23.011719 23.363281 C 22.953125 23.214844 22.878906 23.058594 22.929688 22.90625 C 22.941406 22.878906 22.949219 22.851562 22.945312 22.820312 C 22.945312 22.816406 22.945312 22.816406 22.945312 22.8125 C 22.933594 22.773438 22.886719 22.757812 22.863281 22.726562 C 22.816406 22.664062 22.863281 22.578125 22.890625 22.507812 C 22.917969 22.429688 22.933594 22.351562 22.9375 22.269531 C 22.941406 22.222656 22.945312 22.179688 22.949219 22.132812 C 22.957031 22.074219 22.96875 22.011719 22.984375 21.953125 C 23.070312 21.605469 23.265625 21.332031 23.5625 21.128906 C 23.699219 21.039062 23.851562 20.972656 23.992188 20.886719 C 24.132812 20.789062 24.269531 20.683594 24.398438 20.570312 C 24.710938 20.3125 25.03125 20.070312 25.367188 19.84375 C 25.726562 19.597656 26.097656 19.375 26.484375 19.167969 C 26.566406 19.125 26.648438 19.082031 26.730469 19.039062 C 26.820312 18.992188 26.910156 18.949219 27 18.90625 C 27.289062 18.769531 27.621094 18.820312 27.941406 18.914062 C 28.074219 18.953125 28.207031 18.996094 28.335938 19.039062 C 28.460938 19.078125 28.582031 19.132812 28.695312 19.199219 C 28.980469 19.363281 29.214844 19.609375 29.3125 19.917969 C 29.3125 19.921875 29.3125 19.921875 29.3125 19.925781 C 29.375 20.121094 29.378906 20.328125 29.371094 20.53125 Z M 29.371094 20.53125 " fill-opacity="0.098" fill-rule="nonzero"/></g><path fill="#3f3d56" d="M 26.027344 14.734375 C 26.011719 14.691406 25.980469 14.679688 25.9375 14.699219 C 25.898438 14.71875 25.886719 14.75 25.910156 14.789062 L 25.875 14.808594 L 26.925781 16.945312 L 27.113281 16.855469 L 26.0625 14.714844 Z M 26.027344 14.734375 " fill-opacity="1" fill-rule="nonzero"/><g clip-path="url(#2d41cd259c)"><path fill="#fbbebe" d="M 29.59375 10.25 C 29.59375 10.546875 29.539062 10.835938 29.421875 11.109375 C 29.308594 11.382812 29.144531 11.625 28.933594 11.835938 C 28.722656 12.046875 28.480469 12.207031 28.203125 12.320312 C 27.925781 12.433594 27.640625 12.492188 27.339844 12.492188 C 27.042969 12.492188 26.753906 12.433594 26.480469 12.320312 C 26.203125 12.207031 25.960938 12.046875 25.746094 11.835938 C 25.535156 11.625 25.375 11.382812 25.257812 11.109375 C 25.144531 10.835938 25.085938 10.546875 25.085938 10.25 C 25.085938 9.953125 25.144531 9.667969 25.257812 9.394531 C 25.375 9.121094 25.535156 8.878906 25.746094 8.667969 C 25.960938 8.457031 26.203125 8.296875 26.480469 8.179688 C 26.753906 8.066406 27.042969 8.011719 27.339844 8.011719 C 27.640625 8.011719 27.925781 8.066406 28.203125 8.179688 C 28.480469 8.296875 28.722656 8.457031 28.933594 8.667969 C 29.144531 8.878906 29.308594 9.121094 29.421875 9.394531 C 29.539062 9.667969 29.59375 9.953125 29.59375 10.25 Z M 29.59375 10.25 " fill-opacity="1" fill-rule="nonzero"/></g><g clip-path="url(#db4736ec1a)"><path fill="#464353" d="M 30.316406 8.863281 C 30.304688 8.6875 30.277344 8.511719 30.234375 8.335938 C 30.101562 7.769531 29.859375 7.214844 29.445312 6.804688 C 29.417969 6.707031 29.386719 6.609375 29.351562 6.511719 C 29.351562 6.511719 29.351562 6.507812 29.351562 6.503906 C 29.226562 6.164062 29.046875 5.851562 28.820312 5.570312 C 28.6875 5.40625 28.515625 5.246094 28.304688 5.238281 C 28.246094 5.234375 28.183594 5.246094 28.128906 5.21875 C 28.089844 5.195312 28.054688 5.160156 28.03125 5.121094 C 27.800781 4.828125 27.503906 4.71875 27.136719 4.785156 L 27.117188 4.792969 C 27.105469 4.792969 27.089844 4.796875 27.082031 4.800781 C 27.070312 4.804688 27.050781 4.808594 27.035156 4.8125 C 27.050781 4.839844 27.070312 4.867188 27.085938 4.894531 C 27.125 4.96875 27.164062 5.042969 27.199219 5.121094 C 27.230469 5.183594 27.257812 5.25 27.28125 5.316406 C 26.921875 5.359375 26.628906 5.613281 26.359375 5.855469 L 25.726562 6.425781 C 25.726562 6.425781 25.726562 6.425781 25.726562 6.429688 L 25.707031 6.445312 C 25.703125 6.449219 25.699219 6.453125 25.691406 6.460938 C 25.691406 6.460938 25.691406 6.460938 25.6875 6.464844 C 25.683594 6.46875 25.679688 6.476562 25.671875 6.480469 C 25.664062 6.492188 25.65625 6.503906 25.648438 6.515625 C 25.648438 6.523438 25.644531 6.527344 25.640625 6.53125 C 25.640625 6.535156 25.640625 6.535156 25.636719 6.539062 C 25.636719 6.542969 25.632812 6.546875 25.632812 6.554688 C 25.632812 6.558594 25.628906 6.5625 25.628906 6.5625 C 25.621094 6.589844 25.625 6.613281 25.636719 6.636719 L 26.050781 6.644531 L 26.101562 6.644531 C 26.101562 6.699219 26.105469 6.753906 26.105469 6.808594 C 26.042969 6.859375 25.976562 6.910156 25.917969 6.964844 C 25.851562 7.027344 25.789062 7.09375 25.730469 7.160156 C 25.355469 7.613281 25.160156 8.195312 25.140625 8.78125 C 25.140625 8.800781 25.140625 8.816406 25.140625 8.835938 C 25.140625 8.890625 25.140625 8.941406 25.140625 8.996094 C 25.140625 9.03125 25.144531 9.066406 25.144531 9.101562 C 25.144531 9.148438 25.15625 9.191406 25.179688 9.230469 C 25.183594 9.234375 25.1875 9.238281 25.191406 9.242188 C 25.210938 9.265625 25.238281 9.285156 25.265625 9.296875 L 25.296875 9.3125 C 25.3125 9.320312 25.324219 9.328125 25.339844 9.335938 C 25.472656 9.410156 25.550781 9.554688 25.671875 9.644531 C 25.679688 9.652344 25.6875 9.65625 25.691406 9.660156 L 25.707031 9.671875 L 25.730469 9.6875 C 25.742188 9.691406 25.75 9.695312 25.757812 9.699219 L 25.777344 9.707031 C 25.792969 9.714844 25.808594 9.722656 25.820312 9.726562 L 25.839844 9.734375 L 25.847656 9.734375 C 25.851562 9.738281 25.859375 9.738281 25.863281 9.742188 C 25.878906 9.742188 25.890625 9.746094 25.898438 9.75 L 25.9375 9.757812 C 25.949219 9.761719 25.964844 9.761719 25.976562 9.765625 L 26 9.765625 L 26.019531 9.769531 C 26.054688 9.773438 26.085938 9.773438 26.121094 9.773438 C 26.226562 9.773438 26.335938 9.765625 26.441406 9.753906 L 27.339844 9.648438 C 27.542969 9.625 27.75 9.601562 27.953125 9.640625 C 28.121094 9.675781 28.277344 9.757812 28.445312 9.8125 C 28.480469 9.828125 28.519531 9.839844 28.558594 9.847656 C 28.570312 9.851562 28.585938 9.855469 28.597656 9.859375 L 28.617188 9.867188 L 28.664062 9.875 C 28.679688 9.878906 28.695312 9.882812 28.710938 9.886719 C 28.734375 9.890625 28.757812 9.898438 28.78125 9.902344 C 28.796875 9.902344 28.8125 9.90625 28.828125 9.910156 L 28.832031 9.910156 L 28.875 9.917969 L 28.886719 9.917969 L 28.917969 9.921875 C 28.9375 9.921875 28.953125 9.925781 28.96875 9.925781 C 29.003906 9.929688 29.039062 9.933594 29.078125 9.9375 C 29.132812 9.945312 29.191406 9.949219 29.253906 9.953125 L 29.3125 9.957031 L 29.371094 9.957031 L 29.546875 9.964844 L 29.578125 9.964844 C 29.652344 9.972656 29.722656 9.96875 29.796875 9.953125 C 29.808594 9.953125 29.820312 9.949219 29.835938 9.945312 C 29.847656 9.941406 29.855469 9.9375 29.871094 9.933594 C 30 9.882812 30.097656 9.769531 30.164062 9.644531 C 30.179688 9.617188 30.191406 9.59375 30.203125 9.566406 C 30.214844 9.539062 30.226562 9.511719 30.238281 9.484375 C 30.25 9.449219 30.257812 9.414062 30.269531 9.378906 C 30.269531 9.371094 30.273438 9.359375 30.277344 9.351562 C 30.277344 9.339844 30.28125 9.324219 30.285156 9.308594 C 30.292969 9.265625 30.300781 9.226562 30.304688 9.1875 C 30.304688 9.171875 30.308594 9.160156 30.3125 9.148438 C 30.3125 9.113281 30.316406 9.078125 30.316406 9.042969 C 30.316406 9.019531 30.316406 8.992188 30.316406 8.964844 C 30.316406 8.9375 30.316406 8.902344 30.316406 8.863281 Z M 29.414062 6.773438 C 29.382812 6.75 29.355469 6.722656 29.324219 6.699219 C 29.359375 6.71875 29.386719 6.746094 29.410156 6.773438 Z M 29.414062 6.773438 " fill-opacity="1" fill-rule="nonzero"/></g><path fill="#464353" d="M 23.015625 10.128906 C 22.75 10.09375 22.488281 9.980469 22.226562 10.035156 C 22.0625 10.070312 21.921875 10.171875 21.792969 10.277344 C 21.300781 10.667969 20.890625 11.132812 20.566406 11.667969 C 20.511719 11.75 20.472656 11.835938 20.453125 11.933594 C 20.4375 12.039062 20.46875 12.152344 20.503906 12.257812 C 20.742188 12.964844 21.257812 13.554688 21.492188 14.265625 C 21.738281 15.011719 21.652344 15.828125 21.472656 16.589844 C 21.246094 17.539062 20.882812 18.433594 20.386719 19.277344 C 20.320312 19.402344 20.234375 19.515625 20.136719 19.617188 C 20.007812 19.738281 19.835938 19.828125 19.761719 19.988281 C 19.726562 20.054688 19.714844 20.136719 19.691406 20.210938 C 19.621094 20.421875 19.449219 20.601562 19.433594 20.824219 C 19.417969 20.992188 19.5 21.152344 19.550781 21.3125 C 19.632812 21.597656 19.625 21.878906 19.523438 22.15625 C 19.347656 22.644531 18.878906 23.085938 19.015625 23.585938 C 19.316406 23.5 19.652344 23.386719 19.792969 23.109375 C 19.84375 23.007812 19.871094 22.890625 19.953125 22.820312 C 20.125 22.675781 20.414062 22.804688 20.59375 22.675781 C 20.730469 22.574219 20.734375 22.367188 20.671875 22.210938 C 20.613281 22.054688 20.507812 21.914062 20.460938 21.753906 C 20.378906 21.460938 20.511719 21.152344 20.488281 20.851562 C 20.476562 20.710938 20.433594 20.574219 20.429688 20.4375 C 20.421875 20.164062 20.574219 19.910156 20.773438 19.726562 C 20.972656 19.542969 21.222656 19.421875 21.464844 19.300781 L 22.386719 18.847656 C 22.71875 18.683594 23.085938 18.480469 23.195312 18.128906 C 23.238281 17.996094 23.238281 17.851562 23.238281 17.714844 C 23.269531 15.597656 23.804688 13.519531 24.335938 11.46875 C 24.417969 11.152344 24.5 10.832031 24.625 10.527344 C 24.746094 10.222656 24.988281 9.976562 25.109375 9.691406 C 24.398438 9.609375 23.753906 10.21875 23.015625 10.128906 Z M 23.015625 10.128906 " fill-opacity="1" fill-rule="nonzero"/><path fill="#f86d70" d="M 28.09375 23.417969 C 28.175781 23.90625 28.226562 24.40625 28.261719 24.90625 C 27.628906 25.429688 26.949219 25.882812 26.253906 26.304688 C 26.214844 26.328125 26.175781 26.351562 26.136719 26.375 L 26.132812 26.390625 C 26.128906 26.386719 26.128906 26.382812 26.125 26.378906 C 26.070312 26.257812 25.984375 26.171875 25.863281 26.121094 C 25.601562 25.578125 25.34375 25.035156 25.082031 24.492188 C 24.941406 24.199219 24.800781 23.902344 24.730469 23.585938 C 24.730469 23.578125 24.726562 23.574219 24.726562 23.566406 C 24.671875 23.320312 24.660156 23.066406 24.625 22.820312 C 24.605469 22.675781 24.574219 22.535156 24.527344 22.402344 C 24.488281 22.28125 24.429688 22.164062 24.378906 22.042969 C 24.3125 21.898438 24.261719 21.75 24.257812 21.59375 C 24.257812 21.542969 24.261719 21.488281 24.238281 21.449219 C 24.210938 21.410156 24.179688 21.378906 24.140625 21.355469 C 24.039062 21.265625 24 21.15625 24.023438 21.023438 C 23.8125 21.03125 23.691406 21.257812 23.605469 21.449219 C 23.53125 21.636719 23.429688 21.8125 23.304688 21.976562 C 23.214844 22.09375 23.105469 22.183594 22.972656 22.25 C 22.960938 22.257812 22.949219 22.261719 22.9375 22.269531 C 22.644531 22.394531 22.300781 22.351562 21.980469 22.292969 C 21.703125 22.242188 21.414062 22.179688 21.191406 22.007812 L 21.167969 21.988281 C 21.101562 21.933594 21.042969 21.871094 20.992188 21.800781 C 20.804688 21.546875 20.71875 21.210938 20.671875 20.890625 C 20.667969 20.859375 20.664062 20.832031 20.660156 20.800781 C 20.628906 20.574219 20.621094 20.347656 20.636719 20.117188 C 20.640625 20.0625 20.644531 20.007812 20.652344 19.949219 C 20.65625 19.914062 20.664062 19.878906 20.667969 19.839844 C 20.679688 19.78125 20.6875 19.722656 20.699219 19.664062 C 20.734375 19.464844 20.769531 19.261719 20.875 19.089844 C 20.945312 18.984375 21.03125 18.890625 21.132812 18.816406 C 21.171875 18.785156 21.210938 18.757812 21.25 18.730469 C 21.3125 18.683594 21.378906 18.644531 21.445312 18.605469 C 21.613281 18.503906 21.789062 18.417969 21.972656 18.347656 C 22.019531 18.332031 22.0625 18.316406 22.105469 18.300781 C 22.28125 18.238281 22.460938 18.222656 22.644531 18.257812 C 22.804688 18.28125 22.964844 18.289062 23.125 18.285156 C 23.539062 18.277344 23.953125 18.199219 24.367188 18.148438 C 24.9375 18.078125 25.554688 18.070312 26.054688 18.359375 C 26.078125 18.371094 26.101562 18.386719 26.125 18.402344 C 26.371094 18.5625 26.570312 18.785156 26.730469 19.039062 C 26.765625 19.089844 26.792969 19.144531 26.824219 19.199219 C 26.894531 19.328125 26.957031 19.457031 27.015625 19.589844 C 27.046875 19.65625 27.066406 19.726562 27.066406 19.796875 C 27.066406 19.8125 27.0625 19.828125 27.0625 19.839844 C 27.050781 19.890625 27.03125 19.9375 27.027344 19.988281 C 27.003906 20.179688 27.167969 20.339844 27.226562 20.519531 C 27.265625 20.636719 27.261719 20.765625 27.285156 20.890625 C 27.316406 21.066406 27.402344 21.222656 27.480469 21.378906 C 27.601562 21.632812 27.707031 21.894531 27.792969 22.164062 C 27.855469 22.347656 27.90625 22.539062 27.953125 22.730469 C 27.96875 22.792969 27.984375 22.851562 27.996094 22.914062 C 28.035156 23.082031 28.066406 23.25 28.09375 23.417969 Z M 28.09375 23.417969 " fill-opacity="1" fill-rule="nonzero"/><g clip-path="url(#e4c3fc65d5)"><path fill="#3f3d56" d="M 31.847656 18.234375 L 31.847656 18.476562 L 31.75 18.476562 L 31.183594 18.46875 L 29.789062 18.453125 L 29.398438 18.445312 L 29.296875 18.445312 L 28.710938 18.4375 L 27.882812 18.425781 L 26.125 18.402344 L 23.078125 18.363281 L 21.976562 18.351562 L 21.535156 18.34375 L 21.128906 18.339844 L 20.875 18.335938 L 20.636719 18.332031 L 18.859375 18.308594 L 18.363281 18.304688 L 18.257812 18.304688 L 18.1875 18.125 L 17.679688 16.824219 L 17.589844 16.585938 L 17.660156 16.308594 L 17.976562 16.515625 L 18.171875 16.542969 L 21.382812 16.9375 L 21.984375 17.011719 L 23.261719 17.171875 L 24.515625 17.324219 L 25.003906 17.386719 L 27.910156 17.746094 L 28.722656 17.847656 L 29.394531 17.929688 L 31.78125 18.226562 Z M 31.847656 18.234375 " fill-opacity="1" fill-rule="nonzero"/><path fill="#504f60" d="M 17.660156 16.308594 L 18.292969 17.953125 L 31.847656 18.234375 L 31.847656 16.449219 Z M 17.660156 16.308594 " fill-opacity="1" fill-rule="nonzero"/></g><g clip-path="url(#a6d43a9af8)"><path fill="#3f3d56" d="M 18.363281 18.128906 L 18.46875 28.175781 L 18.960938 28.105469 L 18.855469 18.128906 Z M 18.363281 18.128906 " fill-opacity="1" fill-rule="nonzero"/></g><g clip-path="url(#c19bc06788)"><path fill="#ffffff" d="M 29.875 17.289062 L 24.71875 17.394531 L 23.117188 16.867188 L 27.410156 16.621094 Z M 29.875 17.289062 " fill-opacity="1" fill-rule="nonzero"/></g><path fill="#fbbebe" d="M 23.40625 15.246094 C 23.351562 15.265625 23.304688 15.300781 23.265625 15.347656 C 23.234375 15.394531 23.21875 15.449219 23.210938 15.503906 L 23.125 16.019531 C 23.113281 16.066406 23.113281 16.113281 23.132812 16.160156 C 23.15625 16.203125 23.21875 16.226562 23.253906 16.191406 C 23.25 16.292969 23.257812 16.398438 23.316406 16.480469 C 23.375 16.5625 23.5 16.605469 23.582031 16.546875 C 23.609375 16.59375 23.648438 16.621094 23.703125 16.628906 C 23.753906 16.636719 23.800781 16.621094 23.839844 16.585938 C 23.789062 16.605469 23.789062 16.679688 23.824219 16.71875 C 23.863281 16.753906 23.910156 16.773438 23.964844 16.777344 C 24.597656 16.863281 25.207031 16.789062 25.792969 16.546875 C 25.847656 16.523438 25.703125 15.855469 25.691406 15.789062 C 25.65625 15.625 25.636719 15.429688 25.5 15.320312 C 25.171875 15.0625 24.589844 15.011719 24.191406 15.039062 C 23.917969 15.0625 23.65625 15.128906 23.40625 15.246094 Z M 23.40625 15.246094 " fill-opacity="1" fill-rule="nonzero"/><g clip-path="url(#396cd6b893)"><path fill="#000000" d="M 28.652344 15.324219 C 27.378906 15.347656 26.082031 15.367188 24.863281 14.988281 C 24.984375 15.445312 24.976562 15.898438 24.84375 16.351562 L 30.796875 16.839844 C 31.050781 16.859375 32.09375 16.980469 32.339844 16.917969 C 32.585938 16.859375 30.277344 16.101562 30.371094 15.871094 C 30.625 15.222656 31.488281 14.847656 30.867188 14.820312 C 30.085938 14.792969 29.441406 15.308594 28.652344 15.324219 Z M 28.652344 15.324219 " fill-opacity="0.098" fill-rule="nonzero"/></g><g clip-path="url(#a040e31095)"><path fill="#464353" d="M 28.6875 15.394531 C 27.414062 15.417969 26.117188 15.4375 24.902344 15.058594 C 25.019531 15.515625 25.011719 15.96875 24.878906 16.421875 L 30.832031 16.910156 C 31.085938 16.929688 32.128906 17.050781 32.375 16.988281 C 32.625 16.929688 32.566406 16.628906 32.660156 16.394531 C 32.914062 15.75 31.523438 14.914062 30.902344 14.890625 C 30.121094 14.859375 29.476562 15.378906 28.6875 15.394531 Z M 28.6875 15.394531 " fill-opacity="1" fill-rule="nonzero"/></g><path fill="#fbbebe" d="M 26.664062 15.492188 C 26.71875 15.511719 26.765625 15.546875 26.804688 15.589844 C 26.835938 15.640625 26.851562 15.691406 26.859375 15.75 L 26.945312 16.261719 C 26.957031 16.3125 26.957031 16.359375 26.9375 16.40625 C 26.914062 16.449219 26.847656 16.472656 26.816406 16.4375 C 26.820312 16.535156 26.8125 16.644531 26.753906 16.726562 C 26.695312 16.808594 26.570312 16.851562 26.488281 16.792969 C 26.460938 16.839844 26.421875 16.863281 26.367188 16.871094 C 26.316406 16.878906 26.269531 16.867188 26.230469 16.832031 C 26.28125 16.851562 26.285156 16.925781 26.246094 16.964844 C 26.207031 17 26.160156 17.019531 26.105469 17.019531 C 25.472656 17.109375 24.863281 17.035156 24.277344 16.792969 C 24.222656 16.769531 24.367188 16.101562 24.378906 16.03125 C 24.414062 15.871094 24.433594 15.675781 24.570312 15.566406 C 24.898438 15.304688 25.480469 15.253906 25.878906 15.285156 C 26.152344 15.304688 26.414062 15.375 26.664062 15.492188 Z M 26.664062 15.492188 " fill-opacity="1" fill-rule="nonzero"/><path fill="#464353" d="M 18.25 14.375 C 18.132812 14.527344 18.015625 14.679688 17.941406 14.855469 C 17.796875 15.1875 17.816406 15.5625 17.839844 15.925781 C 17.847656 16.03125 17.855469 16.136719 17.910156 16.226562 C 17.960938 16.292969 18.019531 16.34375 18.09375 16.382812 C 18.398438 16.554688 18.757812 16.605469 19.105469 16.644531 C 19.640625 16.703125 20.175781 16.738281 20.710938 16.75 C 22.042969 16.785156 23.394531 16.675781 24.695312 16.976562 C 24.53125 16.734375 24.535156 16.410156 24.621094 16.136719 C 24.710938 15.859375 24.886719 15.617188 25.054688 15.378906 C 24.460938 15.195312 23.824219 15.484375 23.203125 15.457031 C 22.566406 15.425781 21.972656 15.058594 21.335938 15.058594 C 21.199219 15.058594 21.058594 15.078125 20.925781 15.042969 C 20.789062 15.011719 20.660156 14.910156 20.648438 14.773438 C 20.820312 14.8125 20.980469 14.667969 21.050781 14.507812 C 21.121094 14.351562 21.136719 14.171875 21.203125 14.011719 C 21.375 13.613281 21.832031 13.429688 22.117188 13.101562 C 22.164062 13.050781 22.207031 12.988281 22.203125 12.917969 C 22.199219 12.859375 22.175781 12.808594 22.132812 12.761719 C 21.898438 12.449219 21.539062 12.273438 21.242188 12.027344 C 21.136719 11.941406 20.929688 11.621094 20.8125 11.589844 C 20.597656 11.535156 20.414062 11.84375 20.273438 11.996094 C 19.566406 12.761719 18.890625 13.554688 18.25 14.375 Z M 18.25 14.375 " fill-opacity="1" fill-rule="nonzero"/><path fill="#000000" d="M 25.328125 14.289062 C 25.417969 14.351562 25.496094 14.429688 25.566406 14.519531 C 25.636719 14.613281 25.660156 14.71875 25.636719 14.832031 C 25.613281 14.597656 25.710938 14.4375 25.933594 14.347656 Z M 25.328125 14.289062 " fill-opacity="0.0667" fill-rule="nonzero"/><g clip-path="url(#a7f763e9c4)"><g mask="url(#a247180e60)"><g transform="matrix(1, 0, 0, 1, 25, 4)"><g clip-path="url(#07b78126b9)"><g clip-path="url(#9261f1359d)"><path fill="#000000" d="M 2.28125 1.105469 C 2.242188 0.996094 2.191406 0.890625 2.140625 0.785156 C 2.105469 0.792969 2.070312 0.800781 2.035156 0.8125 C 2.097656 0.914062 2.152344 1.015625 2.199219 1.121094 C 2.226562 1.117188 2.253906 1.109375 2.28125 1.105469 Z M 2.28125 1.105469 " fill-opacity="1" fill-rule="nonzero"/></g><g clip-path="url(#ebdc4a8a65)"><path fill="#000000" d="M 4.324219 2.488281 C 4.335938 2.496094 4.34375 2.503906 4.351562 2.511719 C 4.351562 2.511719 4.351562 2.507812 4.351562 2.503906 C 4.34375 2.5 4.332031 2.492188 4.324219 2.488281 Z M 4.324219 2.488281 " fill-opacity="1" fill-rule="nonzero"/></g><g clip-path="url(#3ddd353bd2)"><path fill="#000000" d="M 1.050781 2.640625 C 1.070312 2.628906 1.085938 2.613281 1.105469 2.597656 L 1.101562 2.433594 L 0.726562 2.429688 C 0.664062 2.484375 0.597656 2.5625 0.636719 2.636719 Z M 1.050781 2.640625 " fill-opacity="1" fill-rule="nonzero"/></g><g clip-path="url(#183d22e450)"><path fill="#000000" d="M 5.164062 5.441406 C 5.097656 5.566406 5 5.679688 4.867188 5.730469 C 4.765625 5.769531 4.652344 5.765625 4.542969 5.761719 C 4.171875 5.746094 3.796875 5.730469 3.445312 5.605469 C 3.28125 5.550781 3.125 5.46875 2.953125 5.433594 C 2.75 5.394531 2.542969 5.417969 2.339844 5.441406 L 1.441406 5.546875 C 1.175781 5.578125 0.878906 5.597656 0.667969 5.4375 C 0.546875 5.34375 0.46875 5.203125 0.335938 5.128906 C 0.28125 5.09375 0.214844 5.074219 0.179688 5.023438 C 0.15625 4.980469 0.144531 4.9375 0.144531 4.890625 C 0.140625 4.855469 0.136719 4.820312 0.136719 4.78125 C 0.132812 4.890625 0.136719 4.996094 0.144531 5.101562 C 0.144531 5.148438 0.15625 5.191406 0.179688 5.230469 C 0.214844 5.285156 0.28125 5.304688 0.335938 5.335938 C 0.46875 5.410156 0.546875 5.554688 0.667969 5.648438 C 0.878906 5.808594 1.175781 5.789062 1.441406 5.753906 L 2.339844 5.652344 C 2.542969 5.625 2.75 5.601562 2.953125 5.644531 C 3.125 5.679688 3.28125 5.761719 3.445312 5.816406 C 3.796875 5.941406 4.171875 5.957031 4.542969 5.972656 C 4.652344 5.976562 4.765625 5.980469 4.867188 5.941406 C 5 5.890625 5.097656 5.773438 5.164062 5.652344 C 5.292969 5.410156 5.328125 5.140625 5.316406 4.863281 C 5.308594 5.066406 5.257812 5.261719 5.164062 5.441406 Z M 5.164062 5.441406 " fill-opacity="1" fill-rule="nonzero"/></g></g></g></g></g><path fill="#000000" d="M 27.273438 5.332031 L 27.765625 5.789062 C 27.765625 5.789062 27.34375 5.613281 27.273438 5.332031 Z M 27.273438 5.332031 " fill-opacity="0.098" fill-rule="nonzero"/></svg>