<svg xmlns="http://www.w3.org/2000/svg" xmlns:xlink="http://www.w3.org/1999/xlink" width="40" zoomAndPan="magnify" viewBox="0 0 30 30.000001" height="40" preserveAspectRatio="xMidYMid meet" version="1.0"><defs><clipPath id="d1cb306f08"><path d="M 0.484375 0 L 29.515625 0 L 29.515625 29.03125 L 0.484375 29.03125 Z M 0.484375 0 " clip-rule="nonzero"/></clipPath><clipPath id="dbda953586"><path d="M 1.328125 4.378906 L 29.515625 4.378906 L 29.515625 27.605469 L 1.328125 27.605469 Z M 1.328125 4.378906 " clip-rule="nonzero"/></clipPath></defs><g clip-path="url(#d1cb306f08)"><path fill="#ffffff" d="M 0.484375 0 L 29.515625 0 L 29.515625 29.03125 L 0.484375 29.03125 Z M 0.484375 0 " fill-opacity="1" fill-rule="nonzero"/><path fill="#ffffff" d="M 0.484375 0 L 29.515625 0 L 29.515625 29.03125 L 0.484375 29.03125 Z M 0.484375 0 " fill-opacity="1" fill-rule="nonzero"/></g><g clip-path="url(#dbda953586)"><path fill="#ed1c40" d="M 25.28125 27.277344 C 23.179688 26.90625 21.003906 25.554688 20.578125 23.324219 C 20.339844 21.386719 20.714844 19.394531 21.683594 17.695312 L 24.636719 12.15625 C 25.214844 11.023438 23.875 9.640625 22.832031 10.566406 C 21.523438 11.8125 21.015625 13.605469 20.199219 15.164062 C 19.140625 17.328125 18.285156 19.613281 16.992188 21.652344 C 16.359375 22.652344 15.25 23.726562 13.960938 23.265625 C 12.527344 22.828125 12.90625 21.15625 13.375 20.121094 C 14.171875 17.765625 15.503906 15.566406 15.824219 13.066406 C 16.347656 11.632812 14.234375 10.589844 13.507812 11.988281 L 10.6875 18.664062 C 9.867188 20.511719 9.628906 22.558594 8.832031 24.390625 C 8.085938 25.835938 6.179688 26.023438 4.738281 25.851562 C 3.179688 25.644531 1.675781 24.390625 1.742188 22.722656 C 1.578125 20.308594 2.667969 18.0625 3.214844 15.757812 C 3.953125 13.261719 4.828125 10.796875 5.859375 8.40625 C 6.632812 6.828125 7.863281 4.945312 9.847656 4.976562 C 11.617188 4.78125 13.03125 6.058594 14.636719 6.523438 C 16.546875 6.839844 17.320312 4.300781 19.207031 4.453125 C 20.660156 4.386719 21.457031 6.238281 22.902344 5.949219 C 24.589844 5.394531 26.679688 5.132812 28.167969 6.292969 C 29.496094 7.542969 29.058594 9.578125 28.601562 11.128906 C 27.574219 14.53125 25.351562 17.492188 24.691406 21.011719 C 24.378906 22.230469 24.796875 23.925781 26.304688 23.988281 C 27.511719 24.164062 29.386719 24.386719 29.464844 25.925781 C 28.839844 27.484375 26.691406 27.542969 25.289062 27.261719 Z M 25.28125 27.277344 " fill-opacity="1" fill-rule="nonzero"/></g></svg>